<?xml version="1.0" standalone="no"?>
<!DOCTYPE svg PUBLIC "-//W3C//DTD SVG 20010904//EN"
 "http://www.w3.org/TR/2001/REC-SVG-20010904/DTD/svg10.dtd">
<svg version="1.0" xmlns="http://www.w3.org/2000/svg"
 width="1024.000000pt" height="1024.000000pt" viewBox="0 0 1024.000000 1024.000000"
 preserveAspectRatio="xMidYMid meet">

<g transform="translate(0.000000,1024.000000) scale(0.100000,-0.100000)"
fill="#000000" stroke="none">
<path d="M4386 8853 c-3 -21 -24 -65 -46 -98 -116 -171 -126 -263 -44 -415 99
-184 108 -208 108 -289 0 -92 -26 -181 -65 -222 -32 -34 -52 -36 -79 -9 -24
24 -26 71 -4 131 37 102 2 217 -80 261 -16 9 -18 8 -11 -8 34 -83 23 -129 -53
-232 -65 -87 -92 -145 -92 -200 0 -64 24 -104 103 -174 95 -84 121 -141 115
-243 -7 -112 -50 -165 -132 -165 -79 0 -124 92 -112 229 l7 76 -24 -24 c-37
-34 -84 -129 -96 -192 -23 -129 21 -262 158 -472 142 -219 166 -294 183 -574
19 -323 -5 -703 -81 -1274 -55 -408 -61 -509 -40 -611 16 -73 33 -104 96 -170
78 -83 98 -132 97 -243 -1 -49 -11 -141 -23 -204 -23 -127 -26 -187 -11 -243
33 -118 207 -118 240 0 14 54 12 110 -10 267 -25 177 -26 269 -2 315 21 43 59
65 95 56 33 -8 47 -33 64 -116 15 -73 35 -100 72 -100 58 0 74 26 101 162 15
75 53 118 105 118 56 0 94 -25 117 -78 20 -44 20 -52 8 -157 -16 -140 -11
-207 20 -240 49 -52 133 -37 165 30 16 34 17 55 10 191 -8 177 0 206 79 296
52 60 98 148 120 233 82 314 5 797 -157 981 -69 79 -128 94 -176 47 -21 -22
-33 -51 -50 -128 -28 -121 -50 -180 -95 -249 -62 -97 -151 -165 -215 -166 -46
0 -108 39 -140 88 -43 69 -61 149 -68 304 -8 181 5 306 92 948 26 193 38 318
42 460 7 266 17 294 149 446 78 91 118 150 152 222 22 47 26 71 26 137 0 96
-18 141 -93 235 -28 35 -54 75 -58 88 -3 14 2 48 11 77 19 61 20 98 5 128 -13
25 -50 67 -58 67 -3 0 -6 -20 -6 -43 0 -33 -7 -52 -28 -78 -92 -114 -101 -148
-63 -258 56 -162 17 -261 -103 -261 -31 0 -49 7 -75 30 -75 67 -76 179 -1 341
96 210 97 215 93 298 -4 100 -32 155 -125 251 -112 115 -115 126 -79 290 14
64 15 82 4 119 -17 57 -34 62 -42 14z"/>
<path d="M5956 8193 c84 -140 72 -210 -57 -349 -157 -170 -167 -288 -39 -439
68 -79 94 -146 94 -235 0 -62 -5 -84 -27 -127 -51 -99 -138 -135 -230 -95 -25
11 -53 32 -63 47 -23 35 -21 101 5 160 44 99 18 165 -84 221 -56 31 -139 53
-151 41 -4 -3 4 -16 16 -29 48 -50 63 -128 36 -191 -7 -18 -39 -63 -71 -102
-113 -136 -153 -274 -121 -416 21 -93 54 -165 95 -203 25 -24 42 -30 88 -34
53 -3 63 0 113 32 30 20 66 36 81 36 77 0 147 -107 176 -270 22 -123 25 -673
5 -820 -22 -154 -50 -323 -88 -515 -60 -307 -74 -397 -74 -495 0 -120 16 -158
109 -254 37 -39 75 -82 82 -96 10 -18 14 -67 14 -182 0 -152 1 -157 24 -182
17 -18 35 -26 58 -26 85 0 107 46 97 205 -8 131 5 175 59 197 93 38 133 66
163 110 43 64 59 148 58 303 -2 129 -11 202 -74 565 -74 422 -80 748 -20 952
26 87 56 122 103 122 39 0 70 -22 93 -66 7 -14 20 -87 29 -162 16 -148 34
-206 73 -236 53 -42 143 -14 186 59 16 28 21 62 27 190 4 86 15 201 24 256 21
125 21 247 2 301 -13 36 -94 174 -101 174 -2 0 -16 -20 -31 -44 -53 -84 -162
-113 -236 -63 -68 46 -47 132 65 257 84 94 149 191 170 253 9 27 16 80 16 123
0 120 -40 218 -147 356 -64 83 -83 131 -83 211 0 37 -4 67 -10 67 -15 0 -67
-76 -81 -117 -22 -69 -6 -154 50 -266 28 -56 53 -120 57 -142 13 -88 -40 -175
-107 -175 -38 0 -43 14 -29 88 21 118 -26 256 -119 347 -57 55 -76 103 -62
151 5 16 26 62 47 103 35 66 39 81 39 145 0 60 -5 80 -30 125 -43 77 -145 159
-232 185 -21 7 -20 3 13 -51z"/>
<path d="M3188 7701 c5 -51 -19 -95 -107 -201 -145 -174 -155 -247 -52 -398
53 -79 71 -129 71 -201 0 -66 -26 -128 -65 -159 -33 -26 -62 -28 -94 -5 -23
16 -24 19 -18 120 3 56 2 103 -2 103 -20 0 -122 -125 -153 -187 -28 -58 -33
-78 -33 -143 0 -65 5 -88 39 -170 53 -128 58 -213 22 -435 -27 -170 -27 -178
13 -288 39 -112 51 -198 51 -379 0 -224 -18 -376 -80 -656 -66 -304 -82 -400
-83 -507 -1 -109 11 -147 69 -222 82 -105 87 -155 43 -434 -26 -163 -22 -214
23 -264 27 -31 35 -35 82 -35 57 0 89 17 110 58 25 51 25 106 1 299 -20 156
-23 202 -14 240 13 61 42 93 84 93 43 0 70 -32 98 -115 26 -81 55 -106 104
-90 37 13 60 61 73 154 13 95 33 135 75 156 30 14 38 14 69 1 50 -21 66 -59
66 -159 0 -103 16 -131 74 -131 65 0 80 27 86 152 6 120 13 139 115 312 100
170 138 337 139 605 1 189 -12 257 -60 314 -50 60 -81 36 -161 -122 -118 -237
-213 -330 -347 -344 -139 -14 -214 99 -204 309 4 86 9 106 39 165 35 70 82
113 122 113 12 0 42 -23 72 -55 62 -68 91 -72 140 -20 75 78 106 297 57 391
-37 73 -77 73 -166 -1 -72 -59 -116 -74 -174 -59 -58 15 -77 51 -77 147 1 107
32 175 125 267 77 77 143 112 223 118 85 6 121 -21 181 -137 53 -103 83 -130
121 -113 33 15 61 62 86 145 19 59 21 86 17 210 -5 166 -26 235 -84 286 -42
38 -70 45 -140 38 -67 -7 -116 6 -155 41 -18 16 -62 92 -109 186 -71 145 -79
157 -85 130 -4 -16 -9 -35 -11 -43 -2 -8 3 -57 12 -110 20 -118 15 -221 -13
-259 -11 -15 -38 -33 -60 -41 -36 -13 -43 -12 -79 5 -37 18 -39 22 -42 70 -2
38 6 79 33 157 39 116 42 162 23 293 -14 96 -8 128 45 249 19 44 38 95 42 114
l7 34 -39 -31 c-55 -45 -95 -51 -127 -19 -37 37 -35 90 9 188 55 122 57 216 4
283 -28 36 -35 33 -31 -13z"/>
<path d="M7766 7389 c-25 -27 -57 -75 -72 -105 -23 -47 -26 -63 -21 -117 3
-37 18 -93 37 -137 17 -41 34 -98 37 -126 14 -133 -108 -234 -188 -155 -25 26
-29 37 -29 88 0 32 5 75 11 96 6 22 8 41 6 43 -9 9 -93 -63 -129 -111 -84
-111 -77 -209 31 -433 124 -259 132 -347 58 -632 -66 -256 -80 -366 -80 -615
0 -395 67 -706 223 -1031 72 -151 127 -237 219 -339 104 -115 114 -142 122
-305 8 -186 35 -241 117 -244 77 -2 97 28 121 173 17 108 62 130 124 62 62
-68 70 -137 37 -316 -33 -180 -24 -257 35 -303 34 -27 109 -30 144 -6 32 23
61 90 61 142 0 24 -9 105 -21 180 -37 241 -20 316 101 457 100 116 120 178
120 364 0 241 -79 507 -176 593 -64 56 -123 16 -156 -105 -26 -97 -51 -136
-108 -165 -127 -66 -303 43 -403 248 -174 354 -170 913 8 1068 64 57 106 55
178 -8 60 -53 83 -115 102 -278 28 -232 40 -276 84 -316 20 -18 23 -18 64 -2
57 21 89 20 140 -5 111 -57 180 -5 208 155 30 175 -58 473 -203 683 -95 139
-169 202 -375 321 -82 48 -139 109 -154 167 -6 22 -15 51 -19 65 l-7 25 -19
-35 c-13 -25 -19 -57 -20 -110 0 -41 -2 -81 -2 -88 -3 -23 -65 -52 -112 -52
-92 0 -145 65 -143 177 1 85 28 136 128 243 110 118 130 159 130 275 0 101
-15 141 -86 227 -57 68 -80 126 -81 206 0 38 3 83 7 100 3 18 4 32 2 32 -3 0
-26 -23 -51 -51z"/>
<path d="M2225 6918 c-36 -20 -86 -72 -108 -113 -27 -51 -26 -123 2 -193 42
-105 25 -160 -88 -277 -87 -90 -111 -141 -111 -232 0 -61 -24 -129 -51 -143
-51 -28 -99 4 -99 65 0 16 16 68 36 115 44 107 53 182 26 229 -26 48 -40 49
-47 4 -12 -73 -36 -119 -106 -203 -132 -157 -156 -218 -169 -425 -6 -84 -21
-198 -40 -285 -45 -218 -39 -332 21 -374 57 -40 120 -3 154 89 99 272 191 417
305 479 70 38 143 41 171 7 57 -70 5 -178 -344 -710 -190 -290 -280 -439 -348
-578 -107 -221 -183 -454 -196 -598 -9 -108 14 -174 82 -239 91 -86 99 -126
64 -316 -30 -161 -17 -245 42 -276 58 -30 128 -13 159 38 26 43 26 116 -1 295
-11 76 -18 156 -14 178 7 52 38 102 71 117 24 11 29 10 48 -13 11 -15 29 -40
38 -57 29 -54 99 -55 147 -3 14 16 39 61 55 100 43 107 97 138 147 85 22 -23
24 -34 24 -121 0 -94 0 -95 33 -124 43 -38 107 -41 148 -5 27 22 28 28 35 147
7 148 14 165 111 268 40 41 81 97 94 126 52 113 97 355 111 595 8 138 -2 213
-32 247 -36 43 -61 23 -150 -120 -127 -203 -244 -325 -373 -389 -117 -58 -192
-39 -192 49 0 90 58 204 292 571 269 421 419 700 459 848 16 60 22 111 23 209
1 146 -6 169 -86 270 -22 27 -44 68 -51 92 -6 24 -16 42 -22 40 -5 -2 -31 -41
-57 -88 -26 -46 -61 -96 -78 -111 -54 -49 -130 -31 -130 29 0 15 19 67 42 117
34 74 43 104 46 161 3 67 1 75 -44 165 -52 106 -60 163 -30 233 17 39 14 43
-19 25z"/>
<path d="M6952 6493 c-7 -3 -20 -19 -28 -36 -32 -61 -35 -158 -18 -527 19
-403 14 -839 -10 -1035 -8 -66 -32 -203 -52 -305 -32 -158 -37 -206 -38 -325
-1 -177 11 -207 117 -293 96 -77 119 -122 118 -234 -1 -46 -8 -123 -16 -173
-27 -166 -16 -258 34 -285 11 -5 40 -10 64 -10 38 0 49 5 71 30 37 45 41 89
23 245 -29 238 -24 260 77 365 90 93 101 130 101 335 0 182 -6 226 -80 605
-89 455 -93 564 -35 850 53 255 41 460 -33 607 -33 64 -110 149 -158 173 -36
19 -107 25 -137 13z"/>
<path d="M2760 2961 c-86 -20 -147 -66 -185 -142 -71 -140 -20 -311 115 -382
51 -27 61 -29 145 -25 116 5 170 33 215 111 16 29 30 54 30 57 0 3 -27 5 -60
4 -53 -2 -63 -5 -88 -32 -34 -37 -66 -46 -133 -40 -85 9 -139 78 -139 178 0
63 29 124 73 150 66 41 200 15 214 -41 5 -16 14 -19 69 -19 l64 0 -15 36 c-25
61 -54 92 -108 118 -57 27 -143 39 -197 27z"/>
<path d="M4073 2960 c-128 -27 -204 -121 -211 -261 -5 -98 20 -161 88 -222 56
-50 103 -67 190 -67 85 0 133 16 187 64 149 131 114 390 -62 467 -50 22 -137
30 -192 19z m166 -127 c66 -50 89 -156 49 -233 -32 -63 -77 -90 -148 -90 -43
0 -66 6 -91 23 -42 28 -79 98 -79 152 0 49 35 122 71 148 54 39 145 39 198 0z"/>
<path d="M7253 2960 c-57 -12 -81 -25 -131 -73 -75 -73 -100 -183 -66 -297 20
-67 99 -150 160 -168 70 -20 172 -15 230 12 88 41 130 109 136 224 l3 53 -125
0 -125 0 0 -43 0 -43 70 -1 c76 -2 82 -9 49 -60 -35 -52 -147 -71 -214 -36
-97 52 -113 220 -28 299 51 48 173 48 215 -1 19 -23 30 -26 83 -26 33 0 60 4
60 9 0 12 -49 83 -69 99 -55 45 -168 69 -248 52z"/>
<path d="M3300 2690 l0 -270 185 0 185 0 0 50 0 50 -127 0 -128 0 0 217 0 218
-57 3 -58 3 0 -271z"/>
<path d="M4600 2910 l0 -50 85 0 85 0 0 -222 0 -223 55 0 55 0 0 223 0 222 90
0 90 0 0 50 0 50 -230 0 -230 0 0 -50z"/>
<path d="M5270 2690 l0 -270 55 0 55 0 0 109 0 110 120 3 120 3 0 -112 0 -113
55 0 55 0 0 270 0 270 -55 0 -55 0 0 -110 0 -110 -120 0 -120 0 0 110 0 110
-55 0 -55 0 0 -270z"/>
<path d="M5980 2690 l0 -270 50 0 c28 0 52 0 55 0 3 0 6 120 6 268 l0 267 -56
3 -55 3 0 -271z"/>
<path d="M6340 2690 l0 -270 60 0 61 0 -3 170 c-2 94 -1 170 2 170 3 -1 56
-77 118 -170 l113 -170 60 0 59 0 0 270 0 270 -55 0 -55 0 -2 -177 -3 -178
-119 178 -119 177 -59 0 -58 0 0 -270z"/>
<path d="M4190 1861 l0 -251 126 0 c156 0 195 11 254 70 51 50 70 100 70 177
0 100 -42 174 -124 220 -48 26 -59 28 -188 31 l-138 4 0 -251z m268 135 c46
-24 72 -74 72 -138 0 -102 -63 -158 -176 -158 l-62 0 0 152 c-1 83 1 154 3
158 8 12 133 1 163 -14z"/>
<path d="M4845 1861 l0 -249 53 -4 52 -3 0 88 0 87 34 0 c31 0 37 -6 88 -86
l55 -86 61 -2 c34 0 62 0 62 2 0 1 -27 43 -60 93 l-61 90 31 25 c41 35 60 74
60 124 0 50 -19 89 -60 123 -43 37 -89 47 -210 47 l-105 0 0 -249z m247 132
c24 -22 24 -77 -2 -103 -16 -16 -33 -20 -80 -20 l-60 0 0 70 0 70 62 0 c43 0
67 -5 80 -17z"/>
<path d="M5430 1858 l0 -253 52 1 53 2 3 251 2 251 -55 0 -55 0 0 -252z"/>
<path d="M5760 1862 l0 -250 51 -4 c28 -1 53 -1 55 1 2 2 4 39 4 81 l0 77 75
6 c117 9 172 52 182 141 8 68 -19 130 -70 164 -38 25 -49 27 -169 31 l-128 3
0 -250z m242 128 c10 -12 18 -37 18 -56 0 -42 -32 -65 -101 -72 l-49 -5 0 80
0 79 57 -2 c46 -1 61 -6 75 -24z"/>
<path d="M3692 1907 c-32 -34 -30 -89 4 -116 56 -44 134 -8 134 62 0 69 -90
105 -138 54z"/>
</g>
</svg>
