<?xml version="1.0" standalone="no"?>
<!DOCTYPE svg PUBLIC "-//W3C//DTD SVG 20010904//EN"
 "http://www.w3.org/TR/2001/REC-SVG-20010904/DTD/svg10.dtd">
<svg version="1.0" xmlns="http://www.w3.org/2000/svg"
 width="739.000000pt" height="739.000000pt" viewBox="0 0 739.000000 739.000000"
 preserveAspectRatio="xMidYMid meet">

<g transform="translate(0.000000,739.000000) scale(0.100000,-0.100000)"
fill="#000000" stroke="none">
<path d="M0 3695 l0 -3695 3695 0 3695 0 0 3695 0 3695 -3695 0 -3695 0 0
-3695z m3702 3435 c30 -41 51 -136 43 -198 -8 -63 -28 -116 -40 -105 -4 5 -5
3 -1 -4 6 -12 -30 -83 -43 -83 -4 0 -7 -8 -8 -17 -1 -10 -6 -38 -11 -62 -6
-25 -6 -52 -2 -60 4 -9 13 -27 19 -41 7 -14 27 -43 45 -64 l33 -39 12 79 c15
96 21 109 52 109 21 0 25 -5 29 -50 4 -36 16 -64 42 -101 58 -82 69 -110 66
-165 -2 -31 -7 -48 -14 -45 -7 3 -11 -17 -10 -60 1 -35 -1 -64 -4 -64 -3 0 -7
-9 -8 -20 -4 -44 -6 -50 -14 -50 -5 0 -7 -4 -4 -9 3 -4 -3 -19 -14 -31 -22
-26 -26 -35 -9 -24 8 4 8 0 0 -15 -7 -11 -17 -21 -23 -21 -6 0 -9 -3 -5 -6 3
-3 -12 -40 -33 -82 -63 -129 -62 -201 5 -279 19 -22 31 -44 27 -48 -4 -5 -2
-5 5 -2 6 4 25 -7 42 -24 18 -17 36 -27 42 -23 8 4 9 3 5 -4 -6 -10 10 -23 39
-34 11 -3 8 -28 -6 -42 -11 -12 -61 15 -142 75 -66 50 -111 117 -121 182 -11
70 48 270 89 299 7 5 7 8 0 8 -5 0 -1 7 9 15 11 8 16 15 12 15 -4 0 2 14 14
30 12 17 19 30 15 30 -3 0 1 12 8 28 22 42 16 136 -11 167 -12 14 -22 29 -22
33 0 13 -66 73 -73 67 -4 -3 -5 -2 -2 2 8 10 -67 83 -78 76 -6 -3 -7 -2 -4 4
3 5 -9 24 -27 41 -44 41 -63 113 -47 176 6 24 28 77 50 118 36 67 67 146 42
108 -5 -8 -31 -37 -58 -65 -115 -119 -133 -180 -89 -307 14 -40 32 -77 39 -83
27 -20 67 -102 81 -165 22 -102 7 -216 -36 -266 -10 -11 -16 -23 -13 -26 3 -3
-19 -24 -50 -47 -32 -24 -53 -47 -49 -53 4 -7 3 -8 -4 -4 -11 7 -17 -6 -13
-27 1 -5 -3 -6 -8 -3 -5 4 -12 2 -16 -4 -9 -14 -45 -13 -45 2 0 6 11 26 26 45
14 18 22 33 18 33 -4 0 1 9 11 20 9 10 22 18 29 17 6 -1 10 3 9 9 -1 6 10 22
24 35 14 13 23 18 19 12 -4 -7 -5 -13 -2 -13 3 0 17 24 31 53 19 40 25 70 25
118 0 62 -15 139 -29 149 -14 10 -52 70 -45 70 4 0 -1 7 -12 15 -10 8 -15 15
-10 15 6 0 2 6 -8 13 -9 7 -18 19 -19 27 -2 8 -10 29 -19 47 -21 42 -18 182 6
218 9 14 14 25 10 25 -8 0 43 67 108 143 49 57 71 115 64 173 -3 28 -3 54 1
58 12 12 35 2 55 -24z m775 -557 c-2 -16 -9 -41 -16 -58 -9 -20 -11 -58 -8
-113 4 -68 9 -88 30 -116 15 -18 23 -37 19 -41 -4 -3 0 -5 8 -3 8 2 15 -4 15
-12 1 -8 6 -14 12 -13 18 4 105 -98 130 -153 30 -66 33 -171 7 -231 -9 -21
-19 -47 -21 -58 -2 -11 -8 -21 -13 -23 -13 -5 -13 -97 0 -144 6 -21 21 -50 34
-65 35 -43 39 -62 13 -55 -37 9 -96 63 -107 98 -19 57 -2 223 21 208 5 -3 6 2
3 10 -3 8 0 24 6 36 14 27 29 159 18 162 -5 2 -10 17 -12 35 -6 44 -26 71
-114 149 -42 38 -65 55 -51 38 14 -18 44 -47 65 -65 46 -40 70 -67 86 -94 6
-11 -33 24 -86 78 -63 64 -95 104 -92 113 3 8 2 13 -3 10 -4 -3 -14 7 -21 22
l-14 27 -4 -25 c-3 -17 18 -67 63 -155 63 -123 67 -134 66 -196 0 -64 -15
-119 -32 -119 -5 0 -6 -6 -4 -12 3 -7 -5 -24 -16 -38 -11 -14 -18 -18 -14 -10
4 8 0 6 -9 -4 -8 -10 -13 -22 -11 -27 3 -4 1 -9 -4 -11 -5 -1 -17 -18 -28 -37
-27 -50 -44 -52 -42 -4 1 23 15 57 34 88 48 75 68 117 71 150 3 29 -28 125
-50 155 -59 81 -80 141 -84 237 -4 86 -2 98 26 156 35 75 86 137 114 137 15 0
18 -6 15 -27z m-1593 -140 c3 -8 -1 -24 -8 -36 -16 -24 -18 -144 -4 -162 62
-75 151 -221 143 -235 -3 -6 -2 -10 3 -10 4 0 9 -31 9 -70 0 -45 -3 -67 -10
-63 -7 4 -8 -1 -3 -12 5 -14 0 -25 -16 -38 -13 -10 -16 -15 -8 -11 8 4 3 -4
-12 -19 -16 -14 -28 -32 -28 -39 0 -9 3 -9 10 2 11 17 13 10 4 -14 -3 -9 -10
-14 -14 -11 -4 3 -11 -10 -14 -28 -7 -37 5 -80 40 -141 29 -50 29 -53 5 -51
-24 2 -40 19 -74 82 -23 43 -27 60 -22 99 3 25 9 53 14 62 5 10 10 22 10 27 3
26 13 45 22 40 5 -3 6 1 3 9 -4 9 0 18 9 22 9 3 13 12 10 21 -4 11 -2 14 5 9
19 -12 14 67 -7 123 -11 27 -17 52 -13 57 4 4 2 5 -3 1 -6 -3 -17 4 -25 16
-12 21 -12 21 5 7 18 -15 18 -14 1 13 -18 26 -35 39 -20 15 5 -9 2 -9 -9 1
-20 16 -23 36 -4 25 7 -4 9 -3 4 2 -5 5 -14 9 -20 9 -5 0 -12 6 -15 14 -3 8 0
11 6 7 8 -5 -26 68 -43 92 -2 2 -5 -4 -9 -13 -4 -10 -2 -14 5 -9 8 4 9 -1 4
-15 -4 -14 0 -34 13 -55 32 -54 60 -138 67 -201 5 -46 4 -56 -5 -45 -9 12 -10
8 -5 -18 7 -35 -11 -96 -26 -86 -5 3 -6 -1 -3 -9 3 -8 -2 -17 -10 -20 -9 -4
-13 -13 -10 -22 4 -8 -1 -17 -10 -21 -9 -3 -13 -10 -10 -15 3 -5 1 -9 -4 -9
-6 0 -17 -18 -26 -41 -18 -43 -35 -44 -37 -1 l-1 27 -7 -25 c-6 -22 -8 -23
-14 -6 -5 13 1 29 17 51 55 71 86 145 90 208 2 42 0 55 -5 42 -7 -16 -8 -13
-6 12 2 18 1 31 -1 28 -3 -3 -21 30 -41 73 -32 68 -36 86 -35 152 1 81 21 136
70 196 27 33 57 36 68 7z m559 -121 c9 -26 17 -68 17 -93 0 -47 -16 -109 -29
-109 -3 0 -7 -29 -8 -65 0 -36 -4 -77 -7 -91 -6 -22 -8 -23 -21 -10 -8 8 -15
22 -15 31 0 9 -4 13 -10 10 -16 -10 -12 101 5 142 20 46 19 53 -4 26 -10 -12
-22 -19 -25 -15 -4 3 -4 -1 -1 -10 4 -9 1 -19 -6 -24 -8 -5 -10 -3 -4 6 5 8 4
11 -3 6 -6 -4 -9 -13 -6 -21 4 -8 -1 -17 -9 -21 -9 -3 -13 -12 -10 -21 4 -9 2
-14 -3 -11 -5 3 -9 -7 -10 -22 -1 -15 -5 -36 -9 -46 -18 -42 -13 -64 39 -178
34 -75 45 -126 36 -173 -8 -45 -58 -143 -77 -150 -43 -17 13 -23 215 -25 l227
-2 -270 -8 c-148 -5 -290 -9 -315 -10 -101 -3 -156 26 -127 66 10 14 17 15 45
5 27 -9 68 -9 154 3 9 1 14 6 11 11 -3 5 0 7 8 5 20 -8 59 31 52 50 -4 9 -2
13 3 9 9 -5 14 21 16 83 1 29 -6 70 -13 70 -3 0 -6 6 -6 13 0 6 -10 34 -22 61
-38 81 -44 176 -16 251 5 16 5 17 -4 5 -6 -8 -11 -11 -11 -7 0 4 18 36 40 69
22 34 40 66 40 71 0 4 5 5 12 1 6 -4 8 -3 5 3 -4 6 0 27 8 47 8 19 15 60 15
90 0 102 53 89 93 -22z m-604 -132 c11 -24 11 -24 -3 -6 -9 11 -16 24 -16 30
0 12 5 7 19 -24z m1439 -95 c44 -37 64 -96 64 -190 0 -76 -10 -137 -34 -197
-12 -32 -23 -35 -33 -10 -14 31 -14 43 2 95 18 65 25 159 14 189 l-9 23 -5
-25 c-3 -14 -11 -49 -17 -78 -7 -28 -17 -55 -23 -59 -6 -3 -7 -1 -3 5 4 7 5
12 2 12 -3 0 -10 -10 -17 -21 -8 -15 -8 -19 0 -15 6 4 11 3 11 -1 0 -5 -9 -14
-21 -21 -12 -8 -18 -19 -15 -28 3 -9 -1 -22 -9 -31 -35 -35 10 -168 76 -228
21 -19 39 -38 39 -41 0 -16 -86 6 -102 25 -9 12 -21 21 -28 21 -6 0 -9 4 -5 9
3 6 -1 14 -9 18 -30 17 -64 173 -38 173 4 0 8 16 9 35 3 34 20 71 68 144 29
43 46 143 26 155 -15 9 -14 39 1 54 17 17 22 15 56 -13z m1104 -10 c-2 -11 -4
-56 -5 -100 -2 -76 0 -84 33 -139 19 -32 50 -75 68 -97 19 -21 30 -39 27 -39
-4 0 -3 -6 3 -13 16 -19 40 -97 43 -137 1 -19 -1 -61 -6 -93 -8 -60 5 -114 32
-130 7 -4 13 -12 13 -17 0 -13 119 -127 126 -121 3 3 4 1 3 -4 -2 -6 8 -30 23
-55 14 -25 32 -62 39 -82 7 -21 16 -33 19 -28 6 10 8 -10 12 -157 2 -50 -1
-89 -6 -86 -4 3 -5 -4 -1 -16 4 -12 2 -21 -4 -21 -6 0 -8 -6 -5 -14 3 -7 -6
-23 -20 -33 -14 -11 -22 -23 -19 -27 3 -3 0 -6 -8 -6 -8 0 -25 -10 -39 -23
-30 -26 -70 -25 -70 3 0 10 9 21 20 25 10 3 30 19 43 35 14 16 27 27 29 25 2
-2 4 4 5 13 1 9 6 35 12 57 31 117 -12 294 -88 365 -15 14 -18 18 -7 10 17
-12 17 -10 -3 12 -13 15 -29 26 -35 25 -6 -1 -10 3 -9 10 2 11 -67 70 -78 66
-3 -1 -16 16 -29 39 -25 44 -28 85 -15 189 6 53 4 73 -8 98 -9 17 -11 29 -6
26 5 -3 6 1 3 9 -3 9 -10 13 -15 10 -5 -3 -9 1 -9 9 0 7 -13 26 -30 42 -29 28
-41 53 -18 39 7 -4 8 -3 4 5 -4 6 -11 9 -16 6 -12 -8 -73 93 -66 111 3 8 2 13
-3 10 -5 -3 -11 15 -13 40 -2 25 0 48 4 50 5 3 8 10 8 17 0 23 -28 -19 -39
-58 -10 -38 -8 -45 42 -145 47 -94 52 -112 52 -170 0 -36 -2 -67 -5 -70 -7 -7
-38 -71 -49 -102 -10 -26 -41 -40 -41 -18 0 6 -6 10 -14 10 -9 0 -14 -9 -13
-20 1 -11 5 -20 9 -20 4 0 8 -5 8 -11 0 -6 -7 -8 -16 -5 -8 3 -12 2 -9 -4 15
-25 -23 -6 -50 24 -16 19 -41 36 -55 39 -25 4 -25 4 3 6 27 1 34 15 18 39 -6
10 -14 6 -33 -17 -14 -16 -28 -28 -31 -25 -3 3 -4 -1 -4 -8 1 -7 -4 -37 -12
-66 -11 -43 -20 -57 -50 -76 -31 -20 -44 -22 -85 -16 -53 8 -100 49 -89 77 4
11 2 14 -5 9 -8 -5 -12 0 -12 13 0 12 4 21 10 21 5 0 7 6 4 14 -3 8 1 27 10
44 31 59 19 168 -21 190 -10 6 -17 13 -15 16 5 13 1 26 -8 26 -5 0 -10 -28
-12 -62 -2 -50 -6 -63 -20 -66 -12 -2 -18 3 -18 17 0 11 -4 22 -9 25 -4 3 -9
37 -10 76 -1 57 3 79 20 110 13 22 29 40 36 40 7 0 16 0 20 1 4 0 12 -17 18
-38 7 -21 30 -74 53 -117 23 -43 39 -84 35 -89 -3 -6 -1 -7 5 -3 9 5 10 -10 7
-55 -3 -34 -8 -65 -10 -70 -3 -4 3 -10 12 -12 15 -4 15 -5 -2 -6 -25 -1 -44
-41 -34 -69 5 -12 20 -24 34 -28 26 -6 81 3 72 12 -3 3 1 22 9 41 9 19 13 37
10 40 -8 9 29 75 64 113 28 31 31 40 26 77 -6 47 3 58 39 49 28 -7 39 -40 52
-150 6 -55 12 -70 26 -72 9 -1 14 2 11 7 -3 6 6 21 20 35 24 24 36 53 51 117
3 17 2 26 -4 23 -5 -4 -7 3 -3 16 4 16 2 19 -8 13 -10 -6 -12 -3 -8 13 4 13 2
20 -4 16 -5 -3 -9 0 -7 7 3 27 -1 40 -11 34 -6 -4 -9 -3 -8 2 4 12 -24 77 -36
85 -18 12 -13 119 7 158 30 60 97 131 121 128 15 -2 20 -9 18 -23z m-2647
-119 c-4 -42 -10 -74 -14 -71 -4 2 -6 -10 -3 -28 3 -25 1 -29 -7 -17 -8 11 -9
2 -5 -35 8 -67 12 -77 26 -70 7 4 6 1 -3 -7 -9 -7 -14 -19 -12 -26 3 -6 -6
-16 -19 -21 -31 -12 -40 12 -40 112 -1 78 -1 78 -21 60 -11 -10 -17 -12 -13
-5 4 6 5 12 2 12 -3 0 -14 -18 -24 -40 -10 -22 -22 -37 -26 -33 -4 4 -4 0 -1
-9 4 -9 2 -32 -3 -52 -11 -37 -3 -82 23 -141 7 -16 16 -41 21 -55 10 -30 12
-150 3 -150 -4 0 -12 -12 -18 -27 -20 -49 -64 -71 -133 -68 -80 4 -94 18 -101
101 -2 36 -11 73 -20 82 -8 9 -16 24 -19 32 -3 8 -10 -15 -17 -52 -8 -38 -18
-68 -23 -68 -5 0 -7 -4 -4 -9 4 -5 -4 -7 -16 -4 -19 4 -20 3 -8 -6 9 -7 10
-11 3 -11 -6 0 -15 5 -19 12 -10 15 -12 78 -3 78 4 0 7 39 7 88 -1 52 3 96 11
110 18 33 52 25 73 -18 10 -19 34 -58 55 -88 31 -46 38 -65 41 -118 5 -70 14
-79 77 -70 17 3 33 5 37 5 13 2 40 70 32 82 -4 6 -8 26 -10 43 -7 64 -11 74
-28 91 -9 10 -15 24 -12 31 3 8 0 14 -6 14 -7 0 -9 26 -6 83 6 98 40 175 113
257 27 30 45 60 45 75 0 17 6 25 23 27 41 7 50 -12 42 -96z m-565 18 c36 -57
52 -127 40 -178 -7 -32 -47 -126 -80 -187 -16 -30 -3 -106 27 -160 16 -30 29
-60 28 -66 -2 -7 -3 -17 -4 -23 -3 -28 -55 5 -63 40 -2 8 -11 21 -20 28 -9 7
-17 20 -17 30 0 9 -3 43 -7 74 -4 33 -2 70 4 85 6 16 13 41 16 56 4 17 11 25
18 21 7 -4 8 -3 4 4 -4 6 1 23 10 37 22 34 34 100 24 134 -8 25 -8 24 -9 -9
-1 -20 -7 -42 -13 -48 -7 -7 -13 -16 -14 -20 -2 -21 -17 -41 -27 -35 -5 3 -7
2 -4 -4 4 -6 -1 -19 -9 -29 -9 -10 -13 -13 -9 -6 10 20 0 14 -26 -15 -18 -21
-19 -24 -4 -13 11 7 6 0 -11 -17 -32 -30 -66 -86 -62 -100 3 -11 -12 -85 -20
-97 -3 -5 -6 -35 -6 -65 -1 -46 -7 -65 -33 -105 -18 -27 -33 -46 -33 -41 0 5
-11 -2 -25 -15 -13 -12 -22 -27 -19 -31 3 -5 1 -9 -4 -9 -4 0 -19 -14 -31 -31
-13 -18 -17 -28 -10 -24 8 5 4 -3 -9 -17 -13 -14 -22 -29 -21 -34 2 -5 -8 -43
-20 -84 -32 -104 -23 -191 26 -262 22 -33 24 -41 12 -49 -8 -5 -17 -9 -21 -9
-12 0 -47 50 -73 105 -21 45 -24 62 -19 120 3 37 12 85 20 107 8 22 11 44 8
49 -3 5 -2 9 3 9 4 0 17 21 27 47 11 25 39 70 62 99 23 28 40 55 36 59 -4 4 0
5 8 3 8 -1 15 2 15 7 1 6 9 27 18 47 10 21 17 51 17 68 0 16 5 30 10 30 6 0
10 22 10 50 0 78 32 146 109 233 91 103 105 133 97 212 -3 34 -3 65 1 68 18
19 46 4 73 -39z m1863 23 c3 -8 1 -20 -3 -27 -5 -7 -4 -25 2 -39 11 -29 13
-144 3 -161 -9 -15 -25 -12 -25 5 0 8 -4 15 -9 15 -6 0 -12 15 -14 33 -3 28
-4 27 -5 -10 -1 -23 -7 -45 -13 -49 -6 -3 -9 -19 -5 -35 7 -35 -2 -61 -18 -52
-6 3 -8 3 -4 -2 11 -11 -10 -45 -28 -45 -8 0 -13 -4 -10 -9 9 -13 -83 -6 -97
9 -10 10 -9 11 3 8 21 -7 56 12 40 22 -8 5 -4 9 13 14 37 9 65 101 71 234 1
12 4 22 9 22 4 0 7 7 7 15 0 20 44 65 63 65 8 0 17 -6 20 -13z m-753 -440 c0
-2 -10 -12 -22 -23 l-23 -19 19 23 c18 21 26 27 26 19z m-1227 -114 c-7 -2
-19 -2 -25 0 -7 3 -2 5 12 5 14 0 19 -2 13 -5z m460 0 c-13 -2 -35 -2 -50 0
-16 2 -5 4 22 4 28 0 40 -2 28 -4z m370 0 c-45 -2 -122 -2 -170 0 -48 1 -11 3
82 3 94 0 133 -2 88 -3z m985 0 c-27 -2 -69 -2 -95 0 -27 2 -5 3 47 3 52 0 74
-1 48 -3z m195 0 c-7 -2 -19 -2 -25 0 -7 3 -2 5 12 5 14 0 19 -2 13 -5z m210
0 c-13 -2 -35 -2 -50 0 -16 2 -5 4 22 4 28 0 40 -2 28 -4z m390 0 c-7 -2 -21
-2 -30 0 -10 3 -4 5 12 5 17 0 24 -2 18 -5z m1102 -23 c3 -6 -1 -7 -9 -4 -18
7 -21 14 -7 14 6 0 13 -4 16 -10z m-2055 -44 c0 -2 -7 -6 -15 -10 -8 -3 -15
-1 -15 4 0 6 7 10 15 10 8 0 15 -2 15 -4z m-387 -13 c-23 -2 -64 -2 -90 0 -26
2 -7 3 42 3 50 0 71 -1 48 -3z m220 0 c-29 -2 -77 -2 -105 0 -29 2 -6 3 52 3
58 0 81 -1 53 -3z m280 0 c-13 -2 -33 -2 -45 0 -13 2 -3 4 22 4 25 0 35 -2 23
-4z m210 0 c-35 -2 -91 -2 -125 0 -35 2 -7 3 62 3 69 0 97 -1 63 -3z m270 0
c-13 -2 -33 -2 -45 0 -13 2 -3 4 22 4 25 0 35 -2 23 -4z m250 0 c-34 -2 -93
-2 -130 0 -37 2 -9 3 62 3 72 0 102 -1 68 -3z m858 -210 c16 -3 26 -10 22 -16
-3 -6 -1 -7 5 -3 6 4 20 1 31 -6 17 -10 27 -10 53 1 18 8 49 14 68 15 30 1 37
-4 53 -34 15 -30 17 -56 15 -181 -2 -103 -7 -151 -16 -162 -8 -9 -10 -22 -6
-28 4 -7 3 -9 -3 -6 -5 4 -16 -5 -23 -18 -16 -30 -30 -32 -30 -6 0 10 -9 21
-20 24 -13 3 -20 14 -21 29 0 22 -1 22 -10 3 -7 -15 -8 -13 -3 12 3 17 0 34
-5 38 -6 3 -11 13 -11 22 0 16 -43 73 -57 75 -21 2 -52 22 -47 29 6 10 5 10
-50 14 -33 2 -44 -3 -78 -37 -21 -21 -36 -43 -33 -47 7 -12 -5 -42 -14 -36
-12 7 -42 -100 -34 -120 4 -12 3 -16 -4 -12 -20 13 -31 -165 -14 -232 5 -20
15 -67 21 -106 11 -62 81 -235 96 -235 3 0 2 5 -1 11 -4 6 2 5 13 -2 12 -7 19
-16 17 -19 -2 -4 27 -7 65 -7 50 0 71 4 74 14 3 8 10 12 14 9 5 -3 9 0 10 7 2
25 64 183 77 196 19 20 68 1 76 -30 21 -72 -6 -329 -32 -313 -5 3 -6 -2 -3
-11 4 -8 1 -22 -6 -30 -10 -12 -21 -86 -21 -142 1 -13 10 -43 22 -67 17 -37
19 -50 10 -83 -10 -36 -13 -38 -49 -38 -21 0 -50 8 -66 18 -31 21 -81 119 -72
142 3 8 2 15 -2 15 -5 0 -21 18 -38 39 -16 22 -32 37 -36 34 -5 -2 -8 1 -8 7
0 6 -4 9 -9 5 -5 -3 -16 1 -24 9 -8 8 -17 13 -19 10 -3 -2 -17 2 -31 9 -15 8
-24 17 -20 21 4 4 0 4 -10 0 -11 -4 -19 0 -23 10 -3 9 -9 14 -14 11 -4 -2 -16
3 -26 11 -10 9 -12 12 -4 8 10 -5 9 -1 -4 14 -10 12 -23 19 -27 16 -5 -3 -9 0
-9 6 0 11 -12 28 -44 60 -11 11 -16 20 -11 20 4 0 1 8 -8 18 -8 9 -17 22 -18
27 -8 35 -12 45 -20 45 -5 0 -6 6 -3 14 3 7 -5 32 -16 54 -13 24 -19 49 -15
61 3 11 2 22 -4 25 -13 8 -23 136 -13 171 12 42 42 46 42 6 0 -16 7 -62 15
-101 8 -40 12 -77 9 -82 -5 -7 -2 -8 6 -3 10 6 11 2 7 -17 -4 -15 0 -33 9 -47
9 -12 14 -25 11 -28 -3 -3 3 -21 14 -40 11 -19 16 -39 13 -45 -4 -6 -3 -8 3
-5 13 8 26 -20 16 -36 -3 -7 -3 -9 2 -5 8 8 61 -52 57 -65 -1 -5 1 -6 6 -3 5
3 23 -8 40 -24 18 -16 32 -27 32 -24 0 10 124 -61 143 -81 10 -11 15 -13 11
-5 -4 8 7 2 24 -14 18 -16 41 -55 53 -85 25 -68 43 -97 69 -111 20 -11 20 -11
1 24 -11 19 -26 62 -33 96 -10 51 -10 63 1 70 8 4 12 17 8 29 -3 11 8 60 25
107 39 116 52 189 38 211 -11 17 -11 17 -6 0 10 -31 -33 -106 -75 -133 -45
-28 -150 -58 -158 -45 -3 4 -22 13 -41 20 -19 6 -42 17 -50 24 -28 23 -70 79
-65 87 3 4 -1 10 -9 13 -45 18 -92 345 -67 467 6 30 13 64 15 75 9 49 41 131
53 138 7 4 13 14 13 21 0 25 61 98 76 92 8 -3 13 -2 10 3 -7 11 47 31 85 31
43 0 162 -100 194 -163 14 -28 25 -49 26 -46 8 74 9 278 1 283 -6 3 -30 -4
-54 -16 -48 -25 -76 -25 -132 4 -29 15 -49 18 -75 14 -51 -10 -53 -10 -87 -29
-17 -9 -34 -14 -38 -12 -3 3 -4 2 -1 -2 6 -8 -14 -33 -27 -33 -5 0 -6 6 -2 13
4 6 4 9 0 5 -4 -3 -7 -9 -6 -13 0 -3 -7 -14 -18 -23 -10 -9 -11 -12 -3 -7 10
7 10 2 -3 -17 -18 -28 -33 -39 -21 -15 4 6 -1 3 -9 -8 -9 -11 -14 -25 -11 -33
2 -7 1 -11 -4 -8 -12 8 -42 -81 -34 -101 4 -10 2 -14 -4 -10 -15 9 -37 -85
-29 -121 5 -20 4 -23 -4 -12 -7 11 -10 4 -11 -30 -2 -67 -10 -85 -39 -85 -17
0 -26 6 -28 20 -2 12 0 16 5 8 4 -6 8 12 8 41 1 28 5 60 10 71 4 11 7 28 6 37
-6 45 61 234 79 223 5 -3 8 0 5 7 -7 19 33 80 47 72 6 -4 8 -3 5 3 -8 12 58
76 101 98 42 21 110 35 141 29 13 -3 36 -8 52 -11z m-2294 -30 c23 -26 25 -36
25 -143 1 -98 -2 -121 -19 -152 -20 -37 -21 -37 -38 -18 -9 10 -22 18 -29 17
-6 -1 -10 4 -8 11 1 6 -3 12 -9 12 -5 0 -7 4 -4 10 3 5 -1 21 -10 34 -9 14
-16 28 -14 33 1 4 -10 16 -24 27 -21 16 -43 20 -104 21 -90 0 -82 16 -84 -174
-1 -103 2 -135 12 -143 8 -5 38 -7 68 -5 44 3 59 9 78 31 13 15 23 24 23 20 0
-4 9 5 21 20 11 14 25 26 31 26 6 0 8 -3 5 -6 -4 -4 2 -15 14 -25 19 -16 20
-26 16 -171 -4 -149 -4 -153 -27 -165 -28 -14 -40 -9 -40 18 0 10 -7 19 -15
19 -8 0 -24 14 -37 30 -13 18 -28 28 -36 25 -8 -3 -20 -1 -26 4 -16 13 -69 9
-81 -7 -6 -7 -10 -83 -10 -178 0 -135 3 -166 15 -174 33 -21 154 -5 183 25 8
8 17 12 19 10 2 -2 12 10 22 27 13 22 15 29 5 24 -8 -4 -3 1 10 12 13 10 21
24 18 29 -4 6 9 28 27 49 28 31 38 37 51 29 23 -14 28 -180 7 -247 -8 -26 -12
-55 -8 -63 3 -9 2 -14 -3 -11 -5 3 -11 -3 -14 -14 -11 -42 -60 -50 -317 -50
-237 0 -272 4 -292 34 -14 21 -8 46 21 87 16 22 33 55 36 72 19 95 25 108 48
105 19 -3 22 -10 25 -60 2 -32 -1 -58 -6 -58 -5 0 -7 -11 -5 -24 3 -16 -5 -34
-27 -60 l-32 -36 240 0 c236 0 277 3 266 21 -3 5 0 9 6 9 7 0 9 8 5 20 -4 12
-2 20 5 20 7 0 9 22 6 68 -4 46 -3 58 3 37 8 -27 9 -25 8 18 0 26 -1 46 -2 45
-36 -58 -63 -108 -54 -103 6 4 3 -4 -6 -19 -18 -27 -31 -36 -20 -13 4 6 -1 3
-10 -8 -9 -11 -19 -19 -23 -19 -4 1 -17 -2 -30 -7 -13 -5 -33 -9 -45 -9 -12 0
-36 -4 -52 -8 -21 -6 -44 -3 -75 8 -61 21 -69 47 -69 238 -1 165 8 206 50 236
35 24 158 19 142 -7 -3 -6 -1 -7 6 -3 7 5 26 -3 46 -18 18 -14 36 -26 40 -26
3 0 5 41 4 90 -2 90 -11 112 -29 66 -5 -14 -17 -29 -27 -34 -19 -10 -122 -8
-173 3 -27 6 -32 11 -29 31 0 4 -5 10 -12 15 -9 5 -12 44 -12 151 2 152 14
207 52 228 32 17 141 12 187 -9 47 -21 94 -68 94 -93 0 -20 20 -35 21 -16 4
45 0 160 -5 166 -4 3 -119 8 -258 10 l-251 4 23 -38 c13 -22 30 -47 39 -58 14
-16 16 -60 16 -334 0 -174 -2 -337 -5 -362 -4 -40 -8 -45 -30 -45 l-25 0 3
340 c3 256 1 347 -9 370 -7 17 -12 33 -11 38 1 4 -2 7 -8 7 -5 0 -10 7 -10 16
0 8 -4 13 -9 10 -12 -8 -8 97 4 106 6 4 129 8 274 8 l263 0 25 -27z m443 12
c13 -16 22 -76 11 -72 -12 4 -53 -42 -47 -51 3 -6 0 -12 -6 -15 -10 -3 -12
-87 -10 -393 3 -415 6 -471 26 -455 12 10 38 0 37 -15 -2 -17 61 -14 102 6 23
10 39 19 35 20 -4 0 9 23 28 51 19 28 34 55 34 61 0 5 5 6 12 2 6 -4 8 -3 5 3
-8 13 20 53 38 53 30 0 42 -27 39 -92 -2 -34 -4 -87 -4 -117 -1 -32 -8 -60
-16 -69 -9 -8 -12 -22 -8 -34 4 -14 2 -18 -5 -14 -6 4 -12 2 -12 -3 -1 -6 -2
-15 -3 -20 0 -5 -5 -13 -9 -18 -9 -8 -14 -9 -43 -12 -8 0 -13 -5 -10 -10 8
-13 -37 0 -46 13 -6 8 -11 7 -16 -2 -11 -16 -389 -20 -420 -3 -10 6 -22 7 -26
4 -3 -3 -6 3 -7 15 -1 12 -2 30 -2 40 -1 19 47 85 55 76 12 -11 14 852 4 913
-5 25 -39 66 -49 57 -2 -2 -3 14 -2 37 1 23 9 45 16 50 8 5 75 9 150 9 111 0
139 -3 149 -15z m952 1 c10 -7 22 -25 28 -41 12 -32 11 -115 -2 -115 -5 0 -7
-19 -4 -42 5 -45 -3 -122 -12 -113 -3 3 -14 -2 -24 -12 -26 -23 -68 -4 -68 32
0 27 -4 34 -59 93 -19 20 -31 30 -27 22 5 -9 2 -8 -7 3 -15 18 -44 22 -65 8
-10 -6 -13 -92 -12 -413 0 -227 5 -419 10 -438 5 -19 24 -48 41 -66 30 -31 31
-32 12 -51 -10 -10 -17 -26 -15 -35 4 -20 -34 -27 -173 -29 -111 -2 -145 5
-145 30 0 9 -5 22 -10 27 -7 7 1 25 26 57 21 27 40 65 45 90 4 23 8 178 9 344
0 192 4 304 10 308 6 3 20 3 31 0 21 -7 21 -9 16 -339 -5 -350 -7 -373 -54
-424 -13 -14 -23 -28 -23 -31 0 -3 52 -5 115 -3 109 3 114 4 103 22 -7 10 -15
17 -19 14 -8 -5 -39 35 -39 50 0 5 7 1 16 -10 14 -18 14 -17 3 6 -7 14 -16 32
-19 40 -3 8 -5 203 -5 433 l0 419 33 29 c71 64 188 19 236 -91 l16 -35 -1 55
c0 30 2 73 6 95 10 66 3 70 -119 56 -124 -14 -261 -15 -331 -3 -27 4 -86 8
-130 8 l-80 -1 -3 -61 c-2 -34 1 -83 6 -110 10 -48 10 -49 11 -11 1 23 5 36
11 32 6 -3 10 0 10 7 0 26 64 76 112 88 42 11 52 10 85 -7 51 -26 64 -55 61
-133 -3 -59 -5 -65 -25 -68 -27 -4 -39 30 -30 84 4 24 2 32 -5 28 -7 -5 -9 -2
-5 8 14 38 -53 51 -101 21 -45 -30 -61 -55 -62 -99 0 -36 -4 -43 -29 -54 -17
-7 -35 -8 -43 -4 -7 5 -17 9 -23 9 -5 0 -10 5 -10 12 0 6 -3 15 -7 19 -9 9
-10 219 -2 252 4 12 11 22 16 22 5 0 16 7 24 15 13 13 65 15 347 15 257 -1
336 -4 349 -14z m412 -8 c13 -19 13 -25 0 -57 -8 -20 -15 -38 -15 -41 1 -3 -5
-5 -11 -5 -7 0 -12 -8 -12 -18 1 -9 -2 -15 -6 -12 -15 10 -18 -70 -14 -475 l5
-415 29 -43 c33 -47 38 -83 15 -102 -32 -26 -315 -30 -315 -4 0 3 6 2 13 -1 6
-4 4 0 -5 8 -25 20 -22 46 7 89 14 20 25 45 25 55 0 11 3 14 8 6 4 -6 6 194 5
445 l-3 456 -22 26 c-13 14 -23 27 -23 30 -1 3 -5 15 -9 28 -16 46 4 52 165
52 140 0 149 -1 163 -22z m-2548 2 c15 -6 33 -18 40 -28 15 -21 10 -112 -7
-122 -6 -5 -8 -13 -4 -20 6 -9 4 -11 -5 -5 -9 6 -10 2 -5 -15 5 -15 3 -20 -3
-16 -13 8 -26 -29 -16 -45 5 -8 3 -9 -6 -4 -8 5 -11 3 -8 -6 3 -8 -2 -20 -9
-27 -8 -8 -11 -23 -7 -34 4 -13 2 -18 -4 -14 -12 7 -24 -22 -15 -37 3 -7 3 -9
-2 -5 -9 8 -45 -54 -45 -77 0 -8 -4 -15 -9 -15 -9 0 -24 -43 -25 -71 -1 -8 -9
-23 -19 -33 -10 -10 -16 -25 -13 -32 3 -8 2 -14 -3 -14 -12 0 -73 -139 -66
-151 4 -5 -1 -12 -10 -15 -9 -4 -14 -13 -11 -21 4 -9 1 -11 -5 -7 -7 4 -10 1
-7 -7 3 -8 -4 -26 -14 -41 -11 -16 -17 -28 -13 -28 3 0 -3 -12 -12 -27 -10
-15 -17 -28 -15 -30 6 -8 1 -23 -14 -37 -14 -15 -13 -17 8 -24 13 -5 57 -6 99
-2 88 8 133 35 180 110 16 25 29 41 29 35 0 -5 9 9 19 31 22 49 34 58 62 49
20 -7 21 -11 14 -74 -4 -36 -8 -86 -10 -111 -4 -86 -5 -91 -16 -84 -7 4 -9 0
-5 -13 4 -14 -6 -32 -39 -65 -25 -26 -45 -45 -45 -43 0 3 -12 0 -27 -6 -34
-13 -423 -13 -436 0 -5 5 -7 17 -5 27 3 18 19 19 220 24 191 4 218 7 236 23
28 26 51 77 57 128 l5 44 -20 -33 c-13 -21 -25 -30 -33 -26 -6 4 -9 4 -5 -1
11 -12 -11 -35 -27 -29 -7 3 -16 0 -21 -7 -4 -8 -3 -10 4 -5 7 4 12 5 12 2 0
-3 -14 -13 -31 -22 -23 -11 -29 -12 -23 -2 6 10 4 10 -9 -1 -14 -11 -39 -12
-115 -8 -53 4 -103 7 -111 7 -8 0 -11 3 -8 7 4 3 0 11 -9 18 -14 10 -14 17 -3
56 7 24 12 47 11 52 -1 4 3 7 9 7 5 0 8 4 4 9 -3 5 -1 12 4 16 16 9 41 67 34
78 -3 6 -1 7 5 3 7 -4 12 -1 12 8 0 8 11 35 24 60 14 26 22 46 20 46 -5 0 13
37 37 80 5 8 16 31 25 51 25 60 52 104 61 102 4 -1 8 14 7 32 -1 19 4 39 12
46 8 6 14 16 14 21 0 6 6 24 14 41 27 61 69 182 73 214 3 18 9 30 14 27 14 -9
10 12 -5 25 -10 8 -69 10 -202 7 -108 -3 -176 -1 -159 3 24 7 18 9 -35 10 -36
0 -70 -3 -75 -7 -6 -4 -11 -50 -13 -102 -2 -91 -2 -94 12 -62 34 74 75 92 213
92 70 -1 113 -5 123 -13 15 -12 25 -71 10 -62 -7 4 -21 -25 -24 -51 -1 -6 -7
-19 -15 -28 -8 -9 -11 -19 -8 -23 4 -3 -3 -19 -14 -34 -11 -16 -17 -33 -14
-39 3 -5 2 -10 -3 -10 -12 0 -34 -49 -27 -61 4 -5 1 -9 -4 -9 -9 0 -39 -56
-45 -85 -1 -5 -8 -20 -14 -32 -7 -13 -10 -23 -6 -23 4 0 0 -8 -8 -17 -14 -15
-43 -75 -49 -101 -1 -4 -8 -16 -15 -27 -7 -11 -14 -29 -16 -40 -2 -11 -6 -22
-9 -25 -10 -8 -74 -139 -103 -210 -27 -67 -33 -105 -16 -115 6 -3 10 -15 10
-26 0 -28 -34 -24 -54 6 -18 27 -22 100 -6 110 6 4 8 10 5 15 -2 4 5 19 16 34
11 14 17 30 14 36 -3 5 -1 10 5 10 6 0 8 5 5 10 -3 6 -1 10 5 10 6 0 8 5 5 10
-3 6 -2 10 3 10 9 0 18 21 27 59 2 8 8 17 12 20 10 6 36 67 40 90 1 8 5 17 10
20 4 3 18 26 30 51 38 79 83 180 83 187 0 3 12 31 26 62 31 64 94 219 94 229
0 13 -154 7 -180 -8 -14 -7 -27 -14 -30 -14 -17 -2 -40 -34 -40 -57 0 -14 -9
-37 -20 -50 -18 -20 -24 -21 -40 -11 -31 19 -42 15 -29 -9 7 -14 17 -19 31
-16 15 4 18 3 10 -5 -5 -5 -19 -7 -30 -4 -30 10 -41 74 -33 203 5 99 9 114 30
137 l24 26 238 0 c140 0 249 -4 265 -10z m2671 -422 c-3 -8 -6 -5 -6 6 -1 11
2 17 5 13 3 -3 4 -12 1 -19z m603 8 c0 -2 -8 -10 -17 -17 -16 -13 -17 -12 -4
4 13 16 21 21 21 13z m-57 -43 c-7 -2 -19 -2 -25 0 -7 3 -2 5 12 5 14 0 19 -2
13 -5z m-546 -129 c-3 -3 -12 -4 -19 -1 -8 3 -5 6 6 6 11 1 17 -2 13 -5z
m-1870 -326 c-2 -13 -4 -3 -4 22 0 25 2 35 4 23 2 -13 2 -33 0 -45z m-607 22
c0 -5 -8 -10 -17 -10 -15 0 -16 2 -3 10 19 12 20 12 20 0z m133 3 c-7 -2 -19
-2 -25 0 -7 3 -2 5 12 5 14 0 19 -2 13 -5z m-303 -247 c0 -2 -8 -10 -17 -17
-16 -13 -17 -12 -4 4 13 16 21 21 21 13z m-520 -151 c0 -8 -5 -14 -11 -12 -18
4 -49 -65 -48 -108 0 -31 2 -36 9 -20 8 19 9 19 9 -2 1 -12 4 -30 7 -40 5 -15
4 -15 -5 -3 -7 9 -11 10 -11 3 0 -6 5 -15 11 -18 5 -4 15 -18 20 -32 11 -29
18 -27 24 7 7 37 53 107 85 130 40 28 92 43 101 29 10 -16 -1 -48 -14 -44 -13
5 -67 -39 -67 -54 0 -5 -5 -13 -12 -17 -7 -5 -8 -2 -3 7 5 8 5 11 1 7 -4 -3
-8 -10 -7 -15 0 -4 -7 -19 -15 -31 -9 -13 -17 -36 -19 -50 -2 -15 -11 -44 -20
-65 -12 -30 -21 -38 -38 -35 -12 1 -27 -1 -34 -5 -12 -8 -26 7 -29 33 -1 8
-13 54 -25 103 -21 78 -22 93 -11 144 6 31 22 67 34 80 24 26 68 31 68 8z
m1085 -110 c111 -39 173 -95 206 -186 18 -48 24 -57 32 -44 5 9 7 27 4 41 -2
13 0 21 6 17 5 -3 7 2 3 13 -4 13 8 33 39 67 40 42 49 47 89 47 53 0 88 -12
115 -39 37 -37 10 -70 -63 -75 -13 0 -22 -4 -20 -7 2 -4 -4 -13 -13 -20 -14
-12 -16 -12 -8 0 5 9 4 12 -3 7 -11 -7 -8 -77 4 -98 5 -7 9 -53 10 -103 2
-128 7 -155 34 -177 36 -29 45 -18 47 58 2 104 10 169 22 193 7 12 10 25 7 30
-11 17 72 81 104 81 26 0 29 -3 27 -30 -1 -16 -6 -30 -10 -30 -5 0 -6 -4 -2
-9 3 -5 2 -12 -3 -15 -16 -10 2 -102 33 -171 29 -66 37 -114 33 -215 -2 -64
-7 -105 -14 -107 -6 -2 -9 -14 -7 -27 3 -15 -2 -31 -14 -43 -11 -11 -18 -24
-16 -29 2 -5 -4 -19 -13 -29 -8 -11 -12 -13 -8 -5 4 9 3 12 -2 7 -5 -5 -9 -16
-9 -25 0 -9 -6 -16 -12 -15 -7 2 -13 -3 -13 -11 0 -8 -5 -18 -12 -22 -7 -5 -8
-3 -3 5 5 10 2 9 -13 0 -12 -7 -18 -18 -15 -24 4 -5 3 -7 -1 -3 -5 4 -25 -2
-44 -13 -71 -37 -69 -23 6 57 85 91 97 109 107 154 19 87 27 258 13 262 -5 2
-9 18 -11 36 -1 17 -5 32 -9 32 -4 0 -16 28 -27 63 -11 34 -20 55 -21 47 -1
-11 -4 -9 -11 5 -6 13 -8 -16 -6 -87 1 -58 -1 -104 -5 -102 -4 3 -5 -2 -2 -10
3 -9 -1 -23 -10 -32 -9 -8 -13 -20 -10 -26 4 -6 2 -8 -4 -4 -6 3 -13 2 -17 -4
-17 -28 -105 5 -105 40 0 6 -4 10 -10 10 -5 0 -6 7 -3 17 4 10 2 14 -4 10 -6
-4 -9 12 -7 46 3 38 1 45 -5 27 -6 -18 -10 5 -13 80 -6 126 -11 160 -28 170
-7 4 -10 15 -7 25 4 9 12 13 18 9 8 -4 9 -3 5 5 -5 7 5 24 25 43 18 17 25 28
15 25 -10 -4 -21 -7 -26 -7 -5 0 -12 -9 -15 -20 -4 -11 -10 -18 -15 -15 -5 3
-12 0 -16 -6 -4 -8 -3 -9 4 -5 7 4 12 2 12 -4 0 -6 -6 -13 -14 -16 -10 -4 -13
-17 -11 -40 2 -21 -1 -32 -7 -28 -6 4 -9 -9 -8 -32 4 -57 2 -64 -19 -64 -12 0
-29 15 -42 38 -13 20 -27 39 -31 40 -5 2 -5 8 -2 13 3 6 -2 19 -11 29 -9 10
-17 25 -19 33 -1 8 -16 27 -34 42 -18 15 -29 32 -25 37 3 6 1 8 -4 5 -6 -4
-18 2 -28 13 -10 11 -22 17 -26 14 -5 -3 -9 -1 -9 4 0 5 -20 17 -45 27 -34 12
-49 14 -59 6 -10 -8 -16 -8 -25 2 -6 8 -8 17 -4 20 3 4 1 7 -5 7 -7 0 -12 6
-12 13 0 13 89 15 125 2z m1599 -1 c37 -14 14 -32 -55 -44 -52 -9 -68 -15 -58
-22 10 -7 8 -8 -8 -5 -13 3 -23 2 -23 -1 0 -4 -17 -17 -38 -30 -21 -13 -46
-36 -57 -52 -11 -16 -23 -26 -27 -24 -5 3 -8 2 -7 -3 4 -24 -2 -43 -13 -37 -7
5 -8 3 -3 -6 5 -8 2 -17 -6 -24 -8 -6 -22 -23 -32 -38 -10 -16 -26 -28 -37
-28 -11 0 -20 -6 -20 -12 0 -7 -10 7 -21 32 -11 25 -18 55 -16 67 2 12 1 20
-3 18 -7 -4 -24 50 -22 66 1 4 -8 15 -20 25 -12 11 -18 13 -14 7 5 -9 -1 -11
-23 -7 l-31 6 34 -35 c26 -28 35 -48 40 -90 10 -74 5 -197 -7 -197 -5 0 -6 -7
-3 -16 8 -20 -3 -66 -14 -59 -5 3 -11 -4 -15 -15 -3 -11 -25 -36 -48 -55 -23
-20 -35 -35 -27 -33 8 2 18 8 22 13 5 6 8 5 8 -3 0 -19 -64 -46 -94 -38 -39
10 -48 35 -36 113 15 107 13 173 -7 196 -10 11 -12 17 -5 13 11 -7 12 -4 3 13
-7 11 -13 21 -14 21 -2 0 -4 -21 -5 -47 -1 -27 -4 -66 -7 -88 -3 -31 -2 -35 4
-15 6 16 9 19 10 8 1 -23 -10 -49 -19 -43 -4 2 -12 -8 -19 -23 -11 -25 -10
-26 4 -8 8 11 15 14 15 8 0 -7 -8 -20 -18 -30 -10 -10 -16 -24 -14 -32 3 -7 0
-10 -7 -6 -7 5 -9 1 -5 -8 3 -9 -2 -23 -11 -32 -11 -12 -15 -27 -11 -48 3 -17
6 -65 7 -106 1 -41 5 -77 8 -80 3 -3 15 -23 26 -44 11 -21 34 -48 51 -60 33
-21 59 -54 51 -63 -3 -2 -27 5 -54 18 -26 12 -51 22 -54 21 -4 -1 -15 9 -25
21 -13 14 -14 18 -4 12 9 -6 3 1 -13 15 -20 19 -26 31 -21 44 5 13 4 17 -4 12
-17 -10 -32 59 -31 144 1 56 3 69 10 50 8 -22 8 -21 5 9 -4 41 20 129 42 154
8 9 12 17 7 17 -4 0 0 12 10 26 12 18 18 50 19 100 1 40 -2 68 -6 61 -4 -7 -8
12 -8 41 0 51 1 52 30 52 37 0 110 -66 111 -101 0 -13 1 -76 1 -140 l0 -116
25 5 c13 2 22 6 19 9 -2 2 6 14 19 27 23 23 40 94 49 213 5 55 2 65 -24 105
-16 23 -42 51 -58 60 -16 10 -32 27 -35 39 -3 11 -3 18 0 15 3 -3 19 6 35 19
48 41 116 30 176 -28 32 -31 43 -54 20 -42 -7 4 -4 -1 6 -9 13 -11 20 -30 22
-58 2 -61 3 -65 13 -48 6 8 8 17 5 22 -9 14 47 110 85 147 39 39 94 69 146 82
39 9 99 11 119 3z m-1791 -47 c56 -28 148 -116 184 -177 24 -41 43 -39 44 5 1
19 3 40 4 45 1 6 3 12 4 15 0 3 11 -1 24 -10 20 -13 22 -21 17 -59 -6 -49 -36
-96 -62 -96 -9 0 -27 10 -39 23 -12 12 -18 15 -14 7 8 -13 7 -13 -8 -1 -10 7
-16 21 -15 30 2 8 -4 16 -12 16 -8 0 -14 8 -14 18 1 9 -2 14 -7 12 -4 -3 -18
8 -31 25 -12 17 -47 50 -77 72 -46 35 -62 42 -103 42 -26 0 -48 4 -48 8 0 5
-7 8 -15 8 -8 0 -15 -4 -15 -10 0 -5 -7 -10 -16 -10 -8 0 -13 4 -10 9 3 4 -6
6 -20 3 -24 -4 -23 -6 16 -23 60 -27 158 -99 165 -120 4 -11 10 -19 15 -19 5
0 14 -10 21 -21 9 -17 8 -20 -3 -14 -10 6 -11 5 0 -6 20 -22 15 -59 -9 -59
-11 0 -17 -4 -14 -10 10 -15 -2 -12 -20 6 -9 9 -29 17 -45 19 -16 1 -36 8 -44
14 -8 7 -36 14 -63 16 -26 2 -49 8 -51 14 -3 8 -16 9 -39 5 -21 -4 -34 -3 -30
3 7 11 -92 6 -156 -8 -58 -14 -144 -78 -162 -122 -32 -78 -29 -84 17 -35 49
53 81 68 141 68 85 0 170 -40 198 -93 13 -22 20 -109 9 -102 -3 2 -12 -6 -20
-18 -11 -19 -11 -21 1 -12 8 6 5 1 -6 -10 -18 -16 -21 -30 -18 -75 3 -49 7
-58 44 -92 47 -43 81 -43 51 1 -10 14 -19 45 -20 67 -1 34 5 49 31 78 27 31
42 39 95 48 53 10 71 9 120 -6 31 -10 81 -33 111 -53 29 -19 88 -53 130 -75
42 -22 85 -48 95 -58 19 -19 19 -19 -25 -6 -24 8 -53 18 -63 22 -13 5 -17 4
-12 -4 5 -8 2 -10 -8 -6 -9 3 -14 10 -11 14 6 10 -24 22 -36 15 -12 -8 -65 21
-73 40 -3 9 -11 15 -18 14 -20 -4 -58 11 -58 22 0 6 -4 7 -10 4 -5 -3 -23 1
-39 10 -39 20 -117 20 -125 0 -3 -8 -11 -12 -19 -9 -19 7 -44 -43 -29 -58 7
-7 12 -20 12 -30 0 -9 18 -32 40 -49 22 -18 40 -38 40 -46 0 -33 -113 -38
-179 -8 -21 9 -45 30 -55 46 -9 16 -21 29 -25 29 -9 0 -11 7 -16 87 -3 54 0
67 22 99 19 29 24 46 19 72 -6 42 -25 57 -94 78 -57 17 -95 13 -126 -14 -15
-13 -18 -14 -11 -2 4 8 -4 4 -18 -10 -30 -30 -43 -97 -23 -126 14 -22 15 -45
1 -42 -29 4 -45 11 -45 20 0 5 -4 7 -9 4 -4 -3 -13 6 -19 19 -7 14 -15 25 -20
25 -10 0 -10 4 -18 75 -4 35 0 62 12 90 10 22 18 43 18 47 1 4 10 14 21 23 11
9 14 14 8 10 -26 -13 -12 2 37 39 28 22 54 35 61 30 8 -4 9 -3 5 4 -4 7 14 17
51 28 94 27 303 1 404 -52 17 -8 29 -10 29 -4 0 5 -7 10 -15 10 -8 0 -15 5
-15 11 0 5 5 7 10 4 18 -11 11 1 -12 21 -22 19 -23 19 -8 -1 14 -20 14 -20 -7
-1 -13 10 -20 22 -18 26 3 4 -3 7 -13 6 -9 0 -16 4 -15 11 1 6 -4 14 -13 17
-9 3 -12 2 -8 -5 3 -6 -3 -5 -14 2 -12 7 -19 16 -16 20 2 4 -3 10 -12 13 -8 3
-13 2 -10 -3 3 -5 -15 -3 -42 5 -26 8 -48 19 -50 24 -2 6 -16 10 -32 10 -19 0
-29 6 -33 20 -4 15 3 22 37 34 65 24 75 25 192 22 98 -2 118 -5 167 -29z
m2240 12 c26 -7 48 -19 48 -26 5 -47 4 -48 -31 -50 -28 -2 -31 -1 -15 7 16 7
17 9 3 9 -9 1 -24 4 -34 8 -12 4 -15 3 -10 -5 4 -8 0 -12 -11 -12 -15 0 -16
-2 -3 -10 11 -8 7 -9 -14 -4 -20 5 -27 3 -22 -4 8 -13 -29 -26 -46 -16 -7 4
-10 4 -6 -1 4 -4 0 -14 -10 -21 -21 -17 -36 -18 -26 -2 4 7 3 8 -5 4 -6 -4 -8
-12 -5 -18 5 -7 1 -9 -8 -5 -9 3 -24 -3 -34 -14 -9 -10 -14 -19 -9 -19 4 0 2
-7 -5 -15 -7 -8 -17 -15 -22 -15 -6 0 -5 7 2 15 22 27 5 16 -26 -16 l-29 -30
26 10 c15 5 30 7 33 4 3 -3 12 0 20 6 30 25 144 52 241 58 101 5 185 -7 185
-28 0 -6 5 -7 10 -4 6 3 10 1 10 -4 0 -6 6 -11 14 -11 8 0 16 -7 20 -15 3 -8
17 -20 31 -25 14 -5 25 -14 25 -19 0 -6 10 -21 23 -35 21 -23 38 -73 52 -158
4 -29 1 -42 -13 -56 -10 -10 -17 -23 -15 -28 2 -6 -7 -19 -19 -31 -22 -19 -24
-20 -50 -4 -23 15 -25 18 -12 36 8 10 14 15 14 10 0 -5 7 1 16 13 8 12 13 26
9 31 -3 5 -1 12 5 16 17 11 11 41 -20 99 -16 31 -29 59 -30 61 0 3 -2 4 -4 3
-8 -5 -45 35 -41 43 3 4 0 11 -6 15 -8 5 -9 3 -4 -6 5 -8 3 -11 -6 -8 -8 3
-13 10 -12 16 1 5 -7 8 -19 4 -15 -4 -19 -2 -13 7 6 10 2 11 -15 6 -13 -4 -20
-3 -17 2 4 6 -29 8 -81 6 -126 -6 -144 -8 -175 -21 -16 -7 -33 -10 -38 -6 -5
3 -15 2 -21 -3 -20 -12 -49 -17 -107 -17 -70 -1 -85 17 -52 66 35 50 134 124
192 143 36 12 47 20 38 26 -19 12 -32 11 -24 -1 3 -5 -1 -10 -10 -10 -9 0 -13
5 -10 10 3 6 -5 10 -19 10 -13 0 -26 -4 -28 -10 -1 -5 -26 -11 -54 -12 -29 -2
-50 -6 -48 -9 4 -7 -45 -24 -58 -21 -5 1 -7 -4 -5 -10 1 -7 -6 -12 -15 -12
-10 1 -16 -1 -15 -5 1 -3 -31 -37 -71 -76 -75 -72 -112 -100 -97 -74 6 11 5
12 -6 2 -17 -17 -31 -16 -55 3 -10 8 -12 13 -4 9 10 -4 9 -2 -2 8 -40 32 -2
132 55 143 4 1 10 2 15 3 4 1 0 6 -8 11 -12 8 -10 10 8 10 13 0 21 4 18 9 -3
5 1 11 9 15 27 10 24 -10 -7 -43 -24 -25 -33 -30 -39 -19 -13 19 -11 0 2 -24
9 -16 8 -19 -2 -13 -9 6 -11 3 -6 -8 3 -9 1 -18 -6 -20 -8 -3 -7 -10 6 -23 16
-18 17 -18 18 1 1 11 1 24 0 29 -1 5 5 3 14 -4 14 -11 16 -11 13 0 -2 8 2 14
8 15 7 0 34 24 61 53 27 28 52 52 56 52 4 0 16 8 27 18 43 37 118 52 240 48
63 -2 136 -9 163 -17z m-499 -74 c-4 -8 -13 -15 -21 -15 -13 0 -13 3 -3 15 7
8 16 15 21 15 5 0 6 -7 3 -15z m296 -79 c0 -2 -8 -10 -17 -17 -16 -13 -17 -12
-4 4 13 16 21 21 21 13z m369 -162 c17 -4 28 -10 25 -15 -3 -5 1 -6 9 -3 10 3
26 -9 43 -33 16 -21 32 -41 37 -44 4 -3 5 -14 1 -24 -5 -11 -3 -16 2 -12 6 3
8 -9 6 -29 -5 -38 -20 -40 -38 -6 -6 12 -13 19 -17 16 -3 -3 -3 4 0 16 4 14
-2 28 -18 43 -33 30 -153 33 -180 3 -11 -11 -19 -17 -19 -13 0 4 -8 -1 -18
-10 -11 -10 -17 -21 -15 -25 2 -5 -1 -8 -6 -8 -16 0 -10 -52 8 -73 10 -12 16
-43 17 -95 2 -70 0 -79 -23 -99 -13 -13 -22 -27 -19 -31 2 -4 -5 -14 -17 -22
-19 -11 -21 -11 -12 1 6 8 2 6 -7 -4 -10 -11 -18 -16 -18 -12 0 3 -7 -1 -16
-9 -9 -9 -33 -16 -57 -16 -23 0 -51 -7 -61 -15 -14 -11 -23 -12 -33 -4 -16 14
-17 45 0 56 29 19 57 74 57 111 0 38 -3 41 -47 62 -49 23 -124 23 -131 1 -2
-6 -8 -9 -13 -6 -5 3 -19 0 -31 -7 -13 -7 -25 -13 -28 -13 -3 -1 -44 -20 -91
-43 -79 -38 -139 -53 -139 -34 0 4 20 18 45 31 25 13 76 44 112 68 132 87 260
98 338 29 34 -30 36 -34 38 -102 l2 -71 32 21 c18 12 38 31 44 43 7 12 15 20
20 18 4 -3 7 19 6 47 -2 41 -8 59 -25 76 -20 20 -22 30 -17 65 4 23 12 51 17
62 40 79 145 127 237 109z m-1969 -14 c0 -5 -2 -10 -4 -10 -3 0 -8 5 -11 10
-3 6 -1 10 4 10 6 0 11 -4 11 -10z m667 -27 c-3 -10 -5 -4 -5 12 0 17 2 24 5
18 2 -7 2 -21 0 -30z m-988 -23 c28 -13 48 -27 45 -31 -3 -5 1 -7 8 -4 22 9
167 -81 252 -156 127 -113 174 -167 196 -226 21 -57 27 -118 10 -108 -5 3 -7
0 -5 -7 3 -8 -2 -22 -11 -33 -8 -11 -12 -13 -8 -5 6 12 4 12 -12 -1 -10 -9
-30 -20 -44 -24 -33 -10 -90 -12 -90 -3 0 4 -6 5 -13 2 -7 -2 -21 4 -31 15
-10 11 -22 18 -26 16 -8 -5 -37 25 -32 32 6 9 1 24 -7 19 -5 -3 -11 1 -15 9
-3 8 -1 15 5 15 6 0 7 5 3 12 -4 6 8 0 27 -14 63 -48 155 -62 188 -29 22 22
20 54 -4 100 -19 37 -132 161 -139 154 -3 -4 -6 1 -6 10 0 9 -5 19 -12 23 -7
5 -8 3 -2 -7 4 -8 -11 1 -34 19 -23 19 -42 36 -42 39 0 4 10 -2 22 -13 12 -10
18 -14 14 -7 -3 7 -21 22 -38 35 -17 12 -28 15 -23 8 5 -8 -8 2 -29 23 -21 21
-44 36 -52 33 -7 -3 -16 0 -20 6 -5 7 -2 8 7 4 41 -21 -45 41 -103 75 -37 22
-68 41 -68 43 0 9 46 -3 89 -24z m1613 -7 c-6 -2 -9 -9 -6 -15 3 -5 0 -9 -7
-7 -33 4 -51 -2 -46 -14 6 -16 -39 -77 -56 -77 -7 0 -1 9 13 20 14 11 21 20
17 20 -14 0 -97 -72 -92 -80 3 -4 -3 -7 -13 -6 -10 0 -16 -5 -14 -14 2 -8 0
-12 -4 -8 -10 11 -35 -12 -27 -25 3 -6 1 -7 -5 -3 -22 13 -187 -150 -215 -214
-36 -80 -29 -110 28 -110 34 0 142 52 161 78 12 17 34 8 34 -13 0 -8 -25 -39
-55 -68 -45 -45 -59 -54 -82 -50 -20 3 -24 2 -14 -5 9 -7 1 -9 -28 -8 -23 0
-41 4 -41 9 0 4 -4 6 -9 2 -6 -3 -20 5 -32 17 -12 13 -18 17 -14 9 5 -10 4
-12 -4 -7 -6 4 -9 12 -6 17 4 5 0 18 -8 30 -16 22 -13 81 4 87 5 2 7 8 3 13
-17 27 190 239 324 331 46 32 180 98 197 97 6 0 4 -3 -3 -6z m-446 -143 c-14
-17 -26 -29 -26 -25 0 10 44 63 49 59 2 -2 -8 -17 -23 -34z m324 25 c0 -2 -10
-9 -22 -15 -22 -11 -22 -10 -4 4 21 17 26 19 26 11z m-1660 -325 c0 -5 -4 -10
-10 -10 -5 0 -10 5 -10 10 0 6 5 10 10 10 6 0 10 -4 10 -10z m1555 -359 c-3
-6 -13 -11 -21 -11 -8 0 -12 5 -9 10 4 6 11 8 16 5 5 -4 9 -1 9 6 0 7 3 10 6
6 3 -3 3 -10 -1 -16z m-25 -24 c14 4 20 0 20 -11 0 -10 9 -16 23 -17 17 -1 18
-2 4 -6 -20 -5 -50 -58 -52 -91 0 -13 -5 -26 -10 -30 -6 -4 -10 -11 -10 -17
-1 -31 -18 -74 -27 -69 -6 4 -8 -1 -3 -15 4 -13 2 -21 -5 -21 -6 0 -8 -4 -5
-10 3 -5 2 -10 -4 -10 -6 0 -7 -7 -4 -17 4 -10 2 -14 -4 -10 -7 5 -9 0 -6 -11
2 -11 -2 -25 -10 -33 -7 -8 -12 -20 -9 -28 2 -7 -5 -26 -17 -42 -12 -16 -20
-33 -17 -38 8 -12 -35 -141 -45 -135 -5 3 -6 -1 -3 -9 6 -16 -39 -160 -48
-152 -2 3 -5 -9 -5 -27 0 -18 -5 -34 -11 -36 -7 -2 -10 -8 -6 -13 7 -12 -15
-79 -26 -79 -5 0 -7 -6 -4 -14 3 -8 -3 -31 -14 -53 -11 -21 -17 -43 -15 -50 2
-6 0 -14 -6 -17 -6 -4 -7 -14 -4 -23 5 -12 3 -14 -6 -8 -10 6 -11 2 -6 -15 5
-14 3 -20 -3 -16 -6 4 -8 -2 -4 -16 4 -16 2 -19 -8 -13 -10 6 -12 3 -8 -13 4
-14 2 -20 -5 -15 -6 4 -8 -2 -4 -16 3 -13 3 -21 1 -18 -3 3 -17 -6 -31 -19
-14 -13 -33 -23 -42 -23 -13 1 -13 2 2 6 16 4 23 35 19 86 -1 9 3 17 8 17 5 0
7 7 4 15 -4 8 -1 15 6 15 6 0 8 4 5 10 -9 15 16 90 28 83 6 -3 7 -1 3 5 -8 14
65 253 76 246 4 -3 5 2 2 10 -3 8 0 25 7 38 7 13 13 30 14 39 3 41 69 227 78
222 6 -3 7 -1 3 5 -9 15 4 63 15 56 5 -3 7 1 4 8 -7 19 49 170 60 161 4 -4 5
-2 1 4 -4 7 -1 23 6 35 7 13 11 27 10 31 -1 4 6 22 15 40 9 18 16 36 15 40 -2
5 6 23 16 40 11 18 18 38 17 45 -2 7 -1 8 1 3 3 -5 14 -7 24 -4z m-1537 -24
c-7 -2 -21 -2 -30 0 -10 3 -4 5 12 5 17 0 24 -2 18 -5z m44 1 c-3 -3 -12 -4
-19 -1 -8 3 -5 6 6 6 11 1 17 -2 13 -5z m266 -1 c-7 -2 -19 -2 -25 0 -7 3 -2
5 12 5 14 0 19 -2 13 -5z m554 1 c-3 -3 -12 -4 -19 -1 -8 3 -5 6 6 6 11 1 17
-2 13 -5z m50 0 c-3 -3 -12 -4 -19 -1 -8 3 -5 6 6 6 11 1 17 -2 13 -5z m-704
-81 c-7 -2 -21 -2 -30 0 -10 3 -4 5 12 5 17 0 24 -2 18 -5z m141 -191 c28 -16
60 -44 70 -62 11 -19 15 -30 8 -26 -9 6 -10 2 -1 -18 7 -14 15 -23 19 -21 4 2
6 -26 4 -63 -3 -95 -3 -94 -14 -87 -5 3 -11 0 -12 -7 -4 -41 -18 -69 -29 -62
-5 3 -9 -2 -9 -11 0 -9 -4 -14 -9 -11 -8 5 -101 -61 -101 -72 0 -2 8 2 18 9 9
7 26 20 38 29 11 8 6 2 -12 -15 -18 -16 -47 -38 -66 -48 l-33 -19 25 21 c14
11 21 21 16 21 -4 0 -24 -17 -44 -37 -20 -21 -30 -30 -23 -20 25 33 -2 17 -43
-25 -22 -24 -36 -36 -31 -28 6 9 -3 1 -18 -17 -16 -18 -34 -30 -40 -26 -5 3
-7 1 -4 -4 8 -13 -27 -55 -37 -46 -4 4 -4 0 -1 -9 3 -8 -1 -22 -9 -31 -9 -9
-16 -25 -16 -36 0 -20 7 -20 204 -23 112 -2 202 1 199 6 -3 4 5 5 17 1 17 -6
21 -4 14 6 -6 12 -5 12 9 0 25 -20 21 -40 -13 -55 -17 -7 -28 -14 -26 -17 3
-3 -77 -4 -177 -3 -152 1 -165 0 -77 -6 l105 -7 -127 0 c-70 0 -125 4 -122 9
3 4 1 8 -4 8 -6 0 -8 10 -6 23 l5 22 -10 -22 c-12 -27 -28 -30 -35 -5 -12 41
-16 93 -6 87 9 -6 11 -1 14 38 1 6 9 21 18 31 10 10 15 23 12 28 -8 13 107
120 123 114 7 -3 12 0 10 6 -1 6 4 13 12 16 9 3 11 0 6 -8 -5 -9 -4 -11 4 -6
6 4 9 11 6 16 -8 12 23 33 37 24 7 -4 10 -3 5 1 -9 10 43 46 55 39 5 -3 7 -2
6 3 -2 4 21 30 50 58 58 53 82 91 82 127 0 19 2 20 10 8 7 -11 10 -7 10 18 0
20 -4 31 -10 27 -9 -6 -11 1 -14 45 -1 8 -6 15 -13 15 -15 0 -28 13 -28 28 0
7 -6 13 -12 13 -7 1 -20 2 -29 3 -8 0 -13 4 -11 9 3 4 -28 7 -68 7 -40 0 -71
-3 -69 -6 2 -4 -7 -10 -20 -13 -13 -3 -38 -19 -54 -35 -17 -15 -34 -26 -37
-22 -3 3 -3 -2 0 -11 3 -8 -1 -22 -9 -31 -10 -10 -14 -27 -11 -53 4 -32 3 -34
-4 -14 -8 23 -9 22 -10 -11 -1 -21 -8 -42 -18 -50 -11 -10 -14 -10 -9 -1 4 6
3 12 -2 12 -16 0 -22 71 -10 117 5 24 15 43 20 43 5 0 6 5 3 10 -11 18 42 77
92 101 97 47 184 47 267 1z m582 16 c19 -6 34 -16 34 -21 0 -4 5 -5 10 -2 6 3
13 -1 16 -9 3 -9 11 -16 18 -16 14 0 41 -44 50 -84 8 -33 -19 -96 -41 -96 -21
0 -35 39 -25 68 5 15 6 36 2 47 -8 21 -40 53 -40 40 0 -4 -7 -1 -16 6 -16 13
-187 21 -179 9 2 -3 -9 -14 -25 -25 -32 -22 -72 -86 -77 -125 -2 -14 -6 -63
-9 -110 -4 -70 -2 -82 8 -70 31 38 87 69 138 78 45 8 65 7 118 -10 103 -31
139 -86 149 -223 4 -60 2 -89 -6 -99 -7 -8 -10 -24 -6 -36 13 -40 -76 -157
-109 -144 -7 3 -18 -2 -25 -10 -6 -7 -21 -12 -31 -9 -11 3 -20 1 -20 -3 0 -5
-20 -9 -44 -9 -25 0 -39 3 -33 8 7 5 -2 5 -19 2 -22 -4 -36 -1 -47 10 -9 8
-20 14 -26 13 -5 -2 -17 6 -26 17 -9 11 -14 14 -10 8 10 -21 0 -15 -26 14 -13
15 -17 23 -9 18 9 -6 5 0 -9 12 -14 12 -22 25 -18 29 4 4 7 1 7 -6 0 -7 2 -11
5 -8 8 8 -6 39 -15 33 -5 -3 -10 12 -13 32 -10 73 -7 379 3 428 17 79 32 125
42 125 5 0 6 4 3 10 -11 17 88 106 131 118 45 13 120 8 170 -10z m1031 0 c18
-7 29 -16 26 -21 -3 -6 -1 -7 5 -3 17 11 72 -35 88 -73 29 -68 4 -152 -39
-135 -15 5 -17 14 -12 45 5 28 2 46 -11 69 -10 16 -22 30 -27 30 -4 0 -5 5 -1
12 4 6 3 8 -4 5 -14 -9 -43 3 -36 14 3 5 -1 9 -8 9 -7 0 -24 3 -38 5 -19 4
-21 4 -6 -3 13 -6 2 -8 -35 -9 -39 0 -47 2 -29 8 30 9 4 11 -28 2 -18 -4 -20
-8 -10 -14 10 -7 8 -9 -7 -10 -11 -1 -23 -1 -26 -1 -4 1 -15 -9 -25 -21 l-19
-22 24 20 c19 15 17 10 -9 -22 -18 -24 -37 -43 -41 -43 -5 0 -5 -7 -2 -17 4
-9 2 -14 -3 -11 -5 4 -10 -4 -11 -15 -1 -12 -4 -69 -8 -127 -6 -103 -6 -104
10 -73 23 44 121 93 184 93 63 0 115 -16 151 -47 53 -45 64 -77 64 -193 1
-127 -4 -181 -16 -174 -8 5 -12 -11 -8 -31 1 -5 -1 -7 -5 -3 -4 4 -17 -2 -29
-14 -39 -37 -106 -60 -176 -59 -96 0 -120 4 -130 21 -5 8 -10 11 -10 6 0 -17
-71 61 -75 83 -2 13 -9 29 -16 37 -6 8 -8 26 -5 41 4 16 3 23 -1 16 -4 -6 -8
51 -9 128 0 77 3 136 8 133 5 -3 8 27 6 68 -1 40 3 91 10 113 15 53 69 138 82
130 6 -4 9 -1 8 6 -4 14 51 49 95 60 37 9 108 3 154 -13z m-1912 -268 c-10
-11 -23 -20 -28 -20 -6 0 1 10 14 23 29 28 40 25 14 -3z m463 -435 c-3 -3 -9
2 -12 12 -6 14 -5 15 5 6 7 -7 10 -15 7 -18z"/>
<path d="M3786 6486 c-8 -43 4 -74 46 -111 61 -55 63 -56 64 -29 1 13 -2 21
-8 18 -5 -3 -9 0 -7 7 3 29 -2 41 -28 66 -16 15 -21 22 -13 18 13 -8 13 -6 1
8 -7 9 -17 14 -22 11 -5 -3 -6 1 -3 9 3 8 -2 19 -9 26 -12 9 -16 6 -21 -23z"/>
<path d="M5340 5831 c0 -6 4 -13 10 -16 6 -3 7 1 4 9 -7 18 -14 21 -14 7z"/>
<path d="M5360 5796 c0 -2 8 -10 18 -17 15 -13 16 -12 3 4 -13 16 -21 21 -21
13z"/>
<path d="M3290 5091 c0 -6 4 -11 8 -11 12 0 48 -69 61 -120 8 -32 11 -161 9
-450 -3 -382 -4 -407 -23 -445 -11 -22 -31 -45 -45 -52 -21 -11 7 -13 173 -13
169 0 201 -2 215 -16 14 -15 17 -15 27 0 7 9 19 16 27 16 20 0 35 18 44 55 4
17 9 34 12 39 3 5 6 25 8 45 1 20 5 52 9 71 l7 35 -26 -38 c-14 -21 -23 -43
-20 -49 4 -7 2 -8 -4 -4 -7 4 -12 1 -12 -6 -1 -18 -83 -81 -117 -90 -16 -4
-53 -5 -83 -2 -30 3 -60 6 -67 6 -7 1 -10 5 -7 10 3 5 11 5 17 1 7 -3 3 3 -7
15 -21 25 -36 31 -16 7 8 -9 9 -15 2 -15 -6 0 -14 5 -18 11 -4 6 -7 205 -9
443 -1 400 0 434 17 476 10 24 26 52 35 62 15 17 12 18 -78 18 -52 0 -104 3
-116 6 -14 4 -23 2 -23 -5z"/>
<path d="M4667 5078 c11 -13 25 -33 31 -44 14 -27 25 -872 13 -926 -5 -21 -22
-54 -39 -75 l-30 -38 115 3 115 3 -25 22 c-44 40 -47 65 -43 524 3 402 5 434
22 460 10 15 17 31 16 35 -1 4 7 12 18 18 11 6 20 17 20 25 0 12 -21 15 -117
15 l-116 0 20 -22z"/>
<path d="M2865 3700 c3 -5 8 -10 11 -10 2 0 4 5 4 10 0 6 -5 10 -11 10 -5 0
-7 -4 -4 -10z"/>
<path d="M3070 3606 c0 -2 8 -10 18 -17 15 -13 16 -12 3 4 -13 16 -21 21 -21
13z"/>
<path d="M3890 3142 c0 -16 29 -42 47 -42 9 0 14 1 12 3 -2 1 -16 13 -31 26
-16 14 -28 20 -28 13z"/>
<path d="M3731 2944 c0 -11 3 -14 6 -6 3 7 2 16 -1 19 -3 4 -6 -2 -5 -13z"/>
<path d="M2461 3626 c2 -2 18 -6 34 -10 22 -5 26 -4 15 4 -14 9 -59 15 -49 6z"/>
<path d="M4459 3463 c-13 -16 -12 -17 4 -4 16 13 21 21 13 21 -2 0 -10 -8 -17
-17z"/>
<path d="M3711 2024 c0 -11 3 -14 6 -6 3 7 2 16 -1 19 -3 4 -6 -2 -5 -13z"/>
<path d="M3499 1831 c10 -7 5 -11 -17 -16 -29 -6 -92 -64 -92 -85 0 -6 -8 -10
-19 -10 -16 0 -18 -7 -14 -67 10 -164 57 -223 178 -223 127 0 180 75 174 245
-3 74 -6 82 -35 112 -18 17 -30 33 -29 35 2 2 -16 4 -38 5 -23 2 -60 5 -82 8
-25 3 -35 1 -26 -4z"/>
<path d="M3694 1418 l-19 -23 23 19 c12 11 22 21 22 23 0 8 -8 2 -26 -19z"/>
<path d="M4416 2073 c-6 -14 -5 -15 5 -6 7 7 10 15 7 18 -3 3 -9 -2 -12 -12z"/>
<path d="M4537 1827 c3 -5 -3 -6 -15 -3 -14 5 -25 1 -35 -14 -7 -11 -16 -17
-20 -14 -3 3 -13 -5 -22 -19 -17 -27 -48 -40 -62 -26 -4 4 -8 -34 -8 -85 0
-52 3 -89 6 -84 6 9 17 -30 22 -74 1 -9 4 -15 8 -13 3 3 14 -4 24 -15 9 -10
39 -26 66 -35 75 -25 152 -5 202 54 13 16 27 28 29 25 3 -2 4 50 4 116 l-1
121 -32 28 c-18 16 -29 32 -25 36 4 5 0 6 -9 3 -9 -4 -43 -3 -77 1 -36 4 -59
3 -55 -2z"/>
</g>
</svg>
