<?xml version="1.0" standalone="no"?>
<!DOCTYPE svg PUBLIC "-//W3C//DTD SVG 20010904//EN"
 "http://www.w3.org/TR/2001/REC-SVG-20010904/DTD/svg10.dtd">
<svg version="1.0" xmlns="http://www.w3.org/2000/svg"
 width="1024.000000pt" height="1024.000000pt" viewBox="0 0 1024.000000 1024.000000"
 preserveAspectRatio="xMidYMid meet">

<g transform="translate(0.000000,1024.000000) scale(0.100000,-0.100000)"
fill="#000000" stroke="none">
<path d="M0 5120 l0 -5120 5120 0 5120 0 0 5120 0 5120 -5120 0 -5120 0 0
-5120z m4430 3751 c15 -29 12 -102 -6 -152 -20 -54 -22 -145 -4 -179 7 -14 44
-58 81 -98 94 -101 114 -145 114 -252 0 -84 -1 -87 -63 -215 -72 -151 -90
-225 -73 -307 23 -108 75 -154 164 -145 74 7 100 38 105 126 3 55 -1 83 -22
145 -24 67 -25 81 -15 119 6 23 32 71 57 107 39 55 46 72 45 108 -2 50 8 53
35 10 29 -48 35 -105 17 -163 -8 -27 -15 -67 -15 -89 0 -33 7 -45 53 -91 79
-77 102 -130 102 -235 0 -76 -4 -92 -32 -150 -19 -37 -73 -112 -128 -175 -53
-60 -109 -137 -126 -170 -28 -58 -30 -69 -39 -255 -11 -214 -11 -217 -75 -665
-24 -170 -49 -377 -56 -459 -13 -166 -7 -458 11 -521 39 -140 90 -205 159
-205 67 0 132 30 186 84 61 62 103 146 150 301 19 64 42 129 50 145 21 41 54
47 109 21 165 -80 293 -503 257 -848 -20 -189 -60 -302 -146 -408 -77 -94 -90
-128 -89 -225 0 -47 4 -129 9 -182 l8 -97 -31 -30 c-67 -67 -172 -22 -187 82
-4 25 -2 75 4 110 14 81 14 202 0 229 -17 32 -73 50 -119 38 -56 -15 -86 -56
-106 -147 -25 -115 -83 -164 -134 -113 -21 21 -23 29 -40 124 -12 71 -32 96
-75 96 -91 0 -116 -140 -70 -400 29 -167 14 -268 -50 -318 -59 -47 -149 -14
-175 62 -17 53 -14 151 10 291 25 149 24 269 -5 326 -9 19 -43 61 -76 94 -71
74 -86 108 -99 229 -12 121 0 286 45 591 66 449 85 677 85 1020 0 433 -36 582
-194 800 -121 166 -164 319 -134 473 17 85 59 164 90 170 14 3 15 -2 7 -35
-15 -66 -11 -151 10 -192 25 -49 60 -71 112 -71 100 0 159 149 112 285 -12 36
-38 72 -99 135 -88 91 -114 136 -114 195 0 51 21 94 75 155 68 77 89 128 81
201 -7 63 -3 68 33 43 52 -37 64 -121 31 -226 -24 -76 -25 -97 -4 -126 11 -16
25 -22 51 -22 77 0 128 106 121 254 -3 78 -6 89 -70 217 -116 234 -116 317 4
491 26 37 49 76 53 87 8 26 21 27 35 2z m1639 -695 c93 -62 132 -120 139 -202
4 -50 0 -63 -47 -158 -42 -85 -51 -113 -51 -156 0 -64 8 -79 86 -162 101 -107
114 -150 94 -292 -10 -68 -10 -90 0 -101 28 -34 106 -3 138 54 34 61 30 125
-15 208 -86 160 -87 164 -87 243 -1 87 22 145 79 200 l35 34 -7 -34 c-12 -53
-8 -143 7 -181 8 -19 50 -88 95 -154 57 -84 88 -142 104 -193 49 -151 8 -288
-129 -435 -97 -105 -160 -210 -160 -269 0 -11 14 -33 31 -50 28 -28 34 -30 81
-25 70 9 152 51 190 98 38 47 43 44 89 -53 44 -95 47 -166 21 -380 -12 -89
-24 -216 -27 -281 -7 -133 -22 -184 -67 -222 -60 -50 -138 -20 -173 67 -9 23
-23 96 -31 162 -17 133 -28 168 -69 209 -73 72 -150 -14 -187 -210 -17 -89
-17 -465 0 -603 7 -58 27 -172 43 -255 92 -466 100 -665 33 -816 -33 -73 -76
-114 -150 -142 -74 -29 -83 -50 -83 -198 -1 -129 -16 -172 -67 -196 -34 -17
-37 -16 -72 2 -58 32 -63 51 -56 210 8 172 1 193 -81 256 -37 28 -67 62 -84
94 -25 47 -26 58 -25 190 1 130 5 158 53 380 92 421 121 656 121 971 0 353
-42 622 -109 693 -38 41 -83 41 -154 1 -97 -54 -183 -37 -246 50 -49 67 -66
132 -65 240 1 121 21 175 119 319 106 156 119 224 55 286 -17 16 -30 33 -30
38 0 16 89 -1 147 -28 44 -20 57 -32 73 -67 26 -58 25 -105 -5 -153 -46 -76
-25 -159 54 -212 55 -37 132 -24 200 34 56 48 84 110 84 192 1 82 -19 128
-102 236 -93 121 -111 208 -62 303 10 21 51 73 91 117 80 88 120 161 120 217
0 24 -14 65 -40 114 -22 43 -40 79 -40 80 0 11 76 -27 139 -70z m-2852 -445
c12 -18 25 -56 28 -85 7 -54 7 -55 -64 -248 -26 -71 -26 -104 -1 -145 34 -56
111 -54 174 5 l29 27 -7 -35 c-3 -19 -29 -67 -56 -108 -59 -88 -67 -123 -50
-227 7 -44 15 -116 17 -161 5 -79 4 -83 -36 -158 -54 -102 -57 -162 -11 -208
28 -28 35 -30 81 -26 86 9 119 59 119 185 0 43 -9 116 -20 163 -21 92 -25 140
-11 140 15 0 88 -120 131 -215 60 -134 64 -139 91 -152 13 -7 73 -16 133 -21
117 -10 142 -21 182 -80 61 -89 55 -384 -10 -509 -21 -42 -55 -73 -78 -73 -27
0 -60 41 -81 99 -36 104 -103 148 -205 138 -121 -13 -247 -108 -309 -235 -35
-69 -38 -83 -38 -157 0 -74 3 -85 28 -118 47 -62 134 -63 209 -2 97 78 117 89
143 77 45 -21 60 -66 60 -182 -1 -124 -21 -203 -64 -249 -45 -48 -76 -43 -136
24 -61 67 -94 77 -145 43 -66 -45 -110 -163 -110 -298 0 -97 20 -165 65 -217
106 -125 248 -80 405 129 34 44 79 116 100 159 77 151 134 188 170 107 33 -75
43 -170 37 -337 -10 -260 -61 -445 -169 -612 -83 -129 -88 -142 -88 -256 0
-80 -4 -104 -20 -131 -26 -42 -74 -45 -111 -6 -22 23 -24 36 -27 127 -3 87 -7
105 -25 125 -60 65 -160 -29 -187 -178 -18 -99 -41 -130 -95 -130 -48 0 -75
37 -75 103 0 38 -5 56 -22 74 -38 40 -121 22 -146 -32 -18 -38 -15 -144 8
-280 25 -153 25 -228 1 -282 -45 -97 -167 -97 -212 0 -25 56 -24 142 2 280 25
131 24 272 -4 327 -9 19 -37 60 -62 90 -25 30 -50 73 -56 95 -19 68 -3 206 60
520 87 433 104 557 104 760 1 183 -6 231 -55 384 l-30 95 21 150 c12 83 23
166 26 185 8 63 -16 184 -56 285 -65 160 -62 222 11 334 41 63 137 169 145
161 3 -3 -3 -39 -12 -81 -19 -90 -12 -141 22 -164 32 -21 65 -13 110 27 37 32
65 104 65 164 0 52 -28 130 -65 182 -88 123 -95 136 -95 177 1 62 28 112 123
220 96 109 113 148 103 229 -8 57 6 60 41 8z m4586 -389 c-7 -102 -1 -116 83
-227 75 -99 98 -154 98 -240 1 -97 -23 -143 -132 -259 -50 -53 -102 -119 -116
-148 -47 -95 -29 -223 40 -277 25 -20 38 -22 92 -19 54 3 67 8 94 35 28 28 31
39 40 129 5 54 16 112 23 129 l13 30 1 -30 c2 -50 28 -135 54 -174 23 -34 42
-47 203 -140 104 -59 185 -131 257 -227 207 -275 292 -703 171 -861 -38 -50
-78 -57 -140 -22 -57 32 -87 35 -124 14 -41 -24 -69 -18 -110 23 -48 48 -59
88 -70 260 -10 155 -26 217 -71 285 -32 49 -90 87 -131 87 -51 0 -120 -65
-153 -143 -68 -163 -79 -454 -26 -697 74 -336 236 -554 412 -555 100 0 169 68
203 199 26 101 80 131 153 86 85 -52 166 -284 179 -515 12 -199 -22 -309 -136
-445 -35 -41 -72 -95 -83 -120 -29 -62 -34 -199 -13 -311 21 -113 21 -230 -1
-276 -20 -43 -66 -73 -112 -73 -63 0 -121 85 -121 178 0 18 7 68 17 110 9 42
17 122 17 177 1 86 -2 106 -22 142 -38 72 -113 95 -151 47 -15 -20 -21 -41
-21 -81 0 -29 -6 -68 -14 -87 -30 -71 -106 -97 -161 -54 -45 35 -55 74 -55
215 0 70 -5 145 -11 166 -7 25 -38 68 -90 125 -149 162 -254 347 -333 591 -98
300 -130 520 -123 831 5 237 20 343 82 591 45 177 55 260 45 347 -12 92 -29
141 -113 317 -60 126 -72 159 -75 213 -5 71 13 130 59 198 33 48 114 134 127
134 5 0 -2 -22 -15 -49 -30 -60 -41 -149 -23 -191 38 -92 144 -91 214 3 34 46
29 141 -11 244 -44 111 -45 192 -5 278 25 51 76 125 87 125 2 0 1 -40 -2 -88z
m-5564 -422 c-11 -30 -19 -75 -19 -113 0 -56 6 -74 50 -161 32 -63 50 -111 50
-134 0 -21 -20 -81 -50 -148 -58 -131 -65 -184 -26 -209 20 -13 32 -14 63 -6
56 15 97 64 133 158 34 90 60 124 60 79 0 -42 24 -88 75 -146 69 -78 85 -118
85 -222 0 -257 -97 -465 -556 -1193 -240 -381 -282 -484 -218 -534 32 -25 67
-26 131 -5 132 45 250 159 399 384 129 197 159 218 188 138 24 -68 27 -126 16
-269 -28 -354 -89 -546 -220 -694 -90 -101 -101 -128 -109 -259 -4 -61 -13
-121 -19 -133 -26 -47 -76 -64 -125 -42 -42 19 -51 47 -53 157 -1 114 -14 142
-65 142 -43 0 -82 -41 -126 -132 -22 -46 -47 -89 -56 -96 -9 -7 -32 -12 -53
-10 -32 3 -43 10 -67 45 -47 71 -108 68 -151 -7 -28 -47 -27 -157 2 -264 38
-141 22 -260 -39 -291 -63 -33 -130 -9 -166 58 -21 40 -21 140 1 222 20 81 30
185 19 214 -5 13 -34 40 -63 60 -80 54 -105 108 -104 226 2 106 27 199 110
404 110 272 281 577 560 1004 80 122 166 264 191 314 79 159 69 239 -31 237
-54 -1 -117 -35 -184 -98 -92 -86 -146 -180 -194 -334 -39 -128 -78 -182 -133
-182 -64 0 -105 58 -105 150 0 28 12 103 26 168 19 87 28 165 34 302 12 256
24 290 160 455 94 115 110 145 110 214 0 27 4 52 9 55 19 12 45 -36 49 -93 4
-50 -1 -69 -32 -141 -43 -97 -54 -157 -36 -200 23 -55 98 -52 132 5 9 17 24
72 32 124 18 108 37 145 125 245 76 86 90 126 72 204 -38 165 -22 238 71 338
33 35 62 64 63 64 2 0 -5 -23 -16 -50z m4846 -429 c107 -48 190 -222 214 -451
11 -102 3 -219 -25 -370 -9 -49 -18 -165 -21 -275 -6 -231 6 -326 77 -630 69
-295 82 -389 78 -565 -4 -179 -22 -228 -111 -304 -93 -79 -102 -131 -67 -396
15 -112 5 -167 -40 -212 -51 -51 -116 -31 -151 46 -23 52 -24 141 -3 277 19
121 15 201 -12 255 -12 22 -52 64 -92 97 -151 123 -160 220 -67 731 24 133 48
291 54 351 21 211 24 497 7 793 -22 387 -21 545 3 598 33 73 80 90 156 55z
m-4155 -3542 c55 -25 96 -62 121 -111 10 -21 19 -40 19 -43 0 -3 -24 -5 -54
-5 -48 0 -58 4 -88 34 -77 77 -212 50 -254 -51 -18 -42 -18 -124 0 -166 43
-104 190 -127 265 -42 27 31 36 35 81 35 61 0 63 -9 18 -76 -49 -73 -120 -108
-218 -109 -126 0 -212 50 -256 152 -25 58 -24 187 2 243 62 134 233 199 364
139z m1325 -3 c95 -45 151 -122 161 -224 13 -118 -50 -233 -154 -283 -71 -35
-178 -33 -254 4 -99 48 -148 134 -148 256 0 112 59 205 160 250 65 30 169 28
235 -3z m3205 -5 c25 -13 56 -33 68 -45 22 -19 52 -67 52 -81 0 -3 -29 -5 -64
-5 -44 0 -65 4 -69 13 -9 23 -72 47 -125 47 -95 0 -162 -78 -162 -191 0 -62
22 -105 73 -143 38 -28 139 -29 180 -2 27 18 57 63 57 86 0 6 -29 10 -75 10
l-75 0 0 45 0 45 141 0 141 0 -7 -52 c-15 -111 -73 -195 -162 -234 -55 -25
-187 -24 -233 0 -62 33 -96 65 -123 115 -87 158 -8 356 163 412 47 16 171 4
220 -20z m-4040 -201 l0 -220 125 0 125 0 0 -50 0 -50 -180 0 -180 0 0 270 0
270 55 0 55 0 0 -220z m1624 173 l-1 -48 -82 -3 -81 -3 0 -219 0 -220 -55 0
-55 0 0 220 0 220 -80 0 -80 0 0 50 0 50 218 0 217 0 -1 -47z m336 -58 l0
-105 120 0 120 0 0 105 0 105 55 0 55 0 0 -270 0 -270 -55 0 -55 0 0 115 0
115 -120 0 -120 0 0 -115 0 -115 -55 0 -55 0 0 270 0 270 55 0 55 0 0 -105z
m720 -165 l1 -270 -61 0 -60 0 0 270 0 270 59 0 59 0 2 -270z m481 100 c59
-91 108 -171 108 -177 1 -7 4 -13 9 -13 4 0 6 81 4 180 l-3 180 61 0 60 0 0
-270 0 -270 -62 0 -63 0 -115 179 -115 178 -3 -178 -2 -179 -55 0 -55 0 0 270
0 271 62 -3 62 -3 107 -165z m-2147 -685 c80 -21 136 -62 171 -126 24 -44 28
-64 28 -123 0 -85 -21 -134 -82 -189 -56 -50 -120 -67 -258 -67 l-113 0 0 260
0 260 98 0 c55 0 123 -7 156 -15z m702 -13 c53 -27 74 -61 81 -126 7 -66 -17
-121 -64 -148 -18 -11 -31 -23 -29 -26 2 -4 30 -47 61 -97 l56 -90 -52 -3
c-28 -2 -57 -1 -64 2 -7 2 -33 40 -58 84 -39 68 -51 80 -77 84 -16 3 -32 2
-35 0 -3 -3 -5 -43 -5 -89 l0 -83 -50 0 -50 0 0 261 0 261 123 -4 c99 -4 130
-8 163 -26z m404 -232 l0 -260 -54 0 -54 0 3 258 c2 141 3 258 4 260 1 1 24 2
51 2 l50 0 0 -260z m462 250 c132 -37 171 -199 72 -292 -39 -36 -74 -48 -145
-48 l-59 0 0 -85 0 -85 -55 0 -55 0 0 260 0 260 103 0 c56 0 119 -5 139 -10z
m-2197 -195 c32 -31 34 -91 4 -129 -16 -21 -29 -26 -64 -26 -35 0 -48 5 -64
26 -29 36 -28 100 1 131 30 32 90 32 123 -2z"/>
<path d="M4080 2863 c-96 -39 -139 -166 -87 -258 44 -78 125 -110 203 -80 68
26 98 72 102 159 3 61 1 76 -20 105 -36 53 -71 74 -130 77 -29 2 -60 1 -68 -3z"/>
<path d="M4290 1857 l0 -164 62 4 c123 9 168 51 168 158 0 106 -63 164 -177
165 l-53 0 0 -163z"/>
<path d="M4956 2023 c-3 -3 -6 -39 -6 -80 l0 -73 55 0 c46 0 60 4 80 25 49 48
20 124 -47 126 -18 0 -42 2 -54 4 -12 3 -24 2 -28 -2z"/>
<path d="M5870 1944 l0 -87 58 7 c40 4 62 12 75 27 19 23 22 70 7 99 -12 22
-60 40 -106 40 l-34 0 0 -86z"/>
</g>
</svg>
