<?xml version="1.0" standalone="no"?>
<!DOCTYPE svg PUBLIC "-//W3C//DTD SVG 20010904//EN"
 "http://www.w3.org/TR/2001/REC-SVG-20010904/DTD/svg10.dtd">
<svg version="1.0" xmlns="http://www.w3.org/2000/svg"
 width="1066.000000pt" height="1600.000000pt" viewBox="0 0 1066.000000 1600.000000"
 preserveAspectRatio="xMidYMid meet">

<g transform="translate(0.000000,1600.000000) scale(0.100000,-0.100000)"
fill="#000000" stroke="none">
<path d="M3430 15961 c0 -22 -7 -75 -15 -118 -18 -94 -19 -134 -3 -130 6 1 14
-9 18 -23 12 -50 20 10 20 161 0 93 -4 149 -10 149 -5 0 -10 -18 -10 -39z"/>
<path d="M2340 15828 c0 -7 -11 -25 -25 -40 -22 -24 -25 -36 -25 -98 0 -45 4
-69 10 -65 6 3 10 -2 10 -13 0 -31 32 -114 51 -133 13 -13 16 -29 13 -61 l-3
-43 9 47 c12 56 54 109 64 82 4 -9 0 -27 -8 -40 -9 -12 -18 -37 -21 -55 -3
-18 -8 -35 -10 -39 -2 -4 2 -7 10 -7 8 0 15 4 15 9 0 5 5 6 11 2 8 -5 6 -10
-6 -16 -12 -7 -15 -18 -11 -36 5 -26 5 -26 -6 -4 -13 27 -24 28 -37 4 -11 -20
-4 -65 9 -57 10 6 22 -38 12 -45 -11 -7 -40 -80 -47 -118 -4 -18 -11 -29 -17
-26 -6 4 -9 -24 -8 -77 0 -46 -1 -102 -4 -124 -3 -22 -3 -31 0 -20 3 11 7 27
10 35 3 8 5 17 4 19 -1 2 5 8 14 13 20 11 21 28 1 28 -10 0 -15 10 -15 33 0
23 3 28 10 17 8 -12 10 -12 16 3 3 9 15 17 27 17 19 0 19 1 4 18 -10 10 -17
24 -17 31 0 7 -4 9 -10 6 -6 -4 -7 6 -3 27 9 51 22 80 32 74 5 -3 16 15 26 40
13 34 20 42 29 34 7 -5 15 -8 18 -5 3 3 11 -3 19 -12 13 -16 12 -17 -3 -4 -21
16 -21 19 -4 -47 8 -29 14 -55 14 -58 0 -3 3 -8 6 -11 3 -4 6 5 6 19 0 18 12
33 43 56 69 49 87 50 130 5 20 -20 37 -33 37 -27 0 15 -67 74 -84 74 -16 0
-68 79 -60 92 9 15 34 8 34 -9 1 -17 1 -17 11 0 13 22 31 22 59 -3 l24 -21 24
38 24 38 -6 -32 -5 -31 39 41 c21 23 42 39 46 35 4 -5 0 -16 -8 -25 -8 -10
-18 -28 -21 -40 -5 -21 -4 -21 18 -7 20 13 23 13 28 -1 4 -8 3 -15 -2 -15 -7
0 -35 -51 -31 -58 1 -2 -6 -14 -15 -28 -9 -14 -14 -28 -11 -32 3 -3 6 0 6 6 0
7 16 18 36 27 19 8 33 19 30 24 -3 5 1 11 9 15 18 7 18 5 2 -26 -7 -14 -18
-23 -24 -21 -6 2 -14 -5 -18 -16 -3 -11 -14 -23 -24 -26 -21 -6 -34 -42 -19
-51 5 -3 7 -13 3 -23 -4 -11 -3 -13 4 -6 6 6 11 25 13 42 2 26 5 30 19 22 29
-15 39 -10 40 19 2 24 2 24 6 4 4 -19 7 -21 19 -11 17 14 18 8 3 -25 -9 -20
-9 -29 1 -42 12 -14 11 -15 -6 -12 -17 3 -19 -3 -19 -62 0 -36 -4 -72 -8 -80
-5 -8 2 -3 15 11 30 34 64 43 64 18 0 -13 -5 -17 -17 -14 -15 5 -17 0 -14 -32
5 -40 -12 -96 -25 -88 -4 3 -10 -4 -13 -15 -3 -11 -1 -20 4 -20 5 0 9 -8 9
-17 0 -10 5 -25 10 -33 9 -13 11 -13 20 0 7 11 8 3 4 -27 -6 -38 -4 -43 13
-43 16 0 19 -5 15 -26 -3 -17 -9 -23 -19 -19 -11 4 -13 1 -9 -11 3 -8 6 -18 6
-20 0 -3 5 -2 12 2 6 4 8 3 5 -3 -4 -6 3 -19 15 -29 12 -11 18 -14 15 -8 -10
16 25 28 35 12 4 -7 8 -17 8 -23 0 -5 9 -21 20 -35 l20 -25 -10 34 c-5 19 -18
44 -28 55 -29 32 -75 152 -69 177 3 12 1 31 -4 41 -19 36 -2 29 19 -7 31 -52
58 -47 66 11 5 39 3 50 -16 69 -24 25 -38 24 -38 -3 0 -11 3 -13 8 -5 5 8 11
3 19 -13 6 -13 7 -26 2 -29 -7 -5 -17 7 -48 60 -11 18 -11 18 -6 -5 5 -21 4
-22 -5 -7 -6 9 -8 27 -5 38 5 14 3 19 -3 15 -6 -3 -13 -2 -16 3 -4 5 1 8 10 7
9 -1 22 -13 30 -27 15 -27 16 -26 18 14 1 15 -2 27 -8 27 -5 0 -6 3 -3 7 4 3
16 -2 27 -12 11 -10 20 -13 20 -7 0 9 7 8 26 0 20 -9 30 -9 45 0 35 22 41 8
10 -25 -10 -11 -26 -34 -35 -51 -16 -30 -15 -32 1 -32 19 0 93 -55 93 -69 0
-10 -82 29 -92 43 -4 6 -8 1 -8 -12 0 -15 9 -26 28 -33 30 -12 72 -47 72 -62
0 -6 -10 -2 -22 9 -19 17 -21 17 -15 2 5 -15 3 -16 -19 -6 -33 15 -52 -8 -26
-30 12 -10 13 -12 2 -7 -8 4 -6 -1 5 -11 20 -16 20 -16 -3 -11 -19 4 -21 3
-11 -9 6 -8 8 -14 4 -14 -4 0 5 -14 19 -31 16 -19 25 -41 24 -57 -1 -15 6 -42
16 -60 18 -35 15 -52 -11 -52 -10 0 -13 -6 -9 -16 3 -9 6 -20 6 -25 0 -5 7 -9
16 -9 14 0 14 -2 -1 -16 -10 -10 -14 -25 -11 -38 3 -12 6 -29 6 -39 0 -10 3
-16 8 -14 4 3 5 -16 3 -41 -3 -46 -23 -78 -40 -67 -14 8 -22 -10 -15 -30 5
-13 8 -14 15 -3 7 10 9 8 9 -6 0 -10 -8 -24 -17 -31 -15 -11 -15 -15 -4 -29 7
-9 18 -13 25 -9 7 4 6 1 -1 -7 -10 -11 -16 -11 -31 3 -25 23 -30 21 -24 -8 2
-14 8 -22 13 -19 5 3 9 0 9 -6 0 -7 6 -8 19 -1 18 10 31 6 31 -11 0 -4 -6 -8
-14 -8 -33 0 -48 -31 -42 -84 6 -49 5 -50 -8 -21 -12 27 -13 22 -10 -60 1 -54
9 -108 19 -135 26 -71 26 -77 1 -73 -48 9 -95 -93 -79 -171 l8 -41 5 65 c4 49
9 65 20 65 9 0 14 8 13 20 -1 11 0 14 3 7 3 -6 11 -9 16 -6 6 4 8 2 4 -4 -3
-5 -3 -12 1 -15 5 -2 2 -2 -4 -1 -7 2 -13 -1 -13 -7 0 -6 -7 -9 -15 -5 -8 3
-15 1 -15 -3 0 -5 7 -11 15 -15 17 -6 20 -26 4 -26 -5 0 -7 5 -4 10 3 6 2 10
-3 10 -15 0 -10 -79 5 -84 7 -3 13 -11 13 -17 0 -9 -4 -9 -14 0 -10 8 -16 9
-21 1 -8 -12 4 -98 17 -124 6 -10 11 -46 12 -80 1 -33 5 -67 9 -73 4 -7 6 -39
3 -71 -2 -32 -1 -74 4 -93 8 -32 8 -31 8 16 -1 89 21 387 37 500 8 61 22 169
31 240 14 103 21 133 36 143 15 11 18 24 16 70 -1 31 1 82 5 112 l7 55 -20
-70 -19 -70 4 135 c14 527 36 851 64 985 35 160 48 245 40 250 -4 3 -10 1 -14
-5 -4 -6 -11 -8 -16 -4 -5 3 -7 10 -4 15 4 5 -1 9 -9 9 -8 0 -17 -4 -21 -10
-3 -5 -13 -6 -21 -3 -14 5 -12 8 7 19 13 7 21 13 18 14 -10 0 -341 127 -392
150 -56 25 -147 98 -237 189 -79 81 -230 166 -230 129z m690 -454 c0 -8 -19
-13 -24 -6 -3 5 1 9 9 9 8 0 15 -2 15 -3z m74 -27 c14 -8 22 -18 18 -22 -4 -5
1 -5 10 -2 12 4 15 2 11 -9 -4 -10 0 -12 11 -8 19 7 20 0 5 -27 -10 -19 -12
-19 -35 -4 -36 23 -105 10 -146 -27 -8 -7 -24 -19 -36 -26 -18 -10 -22 -10
-22 2 0 7 7 19 15 26 8 7 15 19 15 26 0 17 61 44 75 33 6 -5 19 4 30 22 11 16
21 29 21 29 1 0 13 -6 28 -13z m-562 -72 c3 -14 1 -25 -3 -25 -5 0 -9 4 -9 9
0 5 -3 16 -6 25 -3 9 -2 16 4 16 5 0 12 -11 14 -25z m626 -100 c-3 -3 -9 2
-12 12 -6 14 -5 15 5 6 7 -7 10 -15 7 -18z m-123 -5 c3 -5 1 -10 -4 -10 -6 0
-11 5 -11 10 0 6 2 10 4 10 3 0 8 -4 11 -10z m-71 -22 c-2 -4 0 -9 6 -13 13
-8 13 -25 1 -25 -5 0 -16 7 -24 15 -19 18 -31 7 -14 -13 10 -13 9 -15 -6 -9
-10 4 -26 7 -35 7 -13 0 -12 4 6 23 18 19 77 33 66 15z m161 -16 c-3 -3 -11 0
-18 7 -9 10 -8 11 6 5 10 -3 15 -9 12 -12z m-234 -80 c-7 -2 -18 1 -23 6 -8 8
-4 9 13 5 13 -4 18 -8 10 -11z m186 -10 c-3 -4 3 -23 12 -43 17 -35 17 -36 -1
-31 -10 2 -25 13 -32 24 -12 17 -12 23 2 39 16 19 27 26 19 11z m-107 -62 c13
-8 13 -10 -2 -10 -9 0 -20 5 -23 10 -8 13 5 13 25 0z m13 -187 c11 -13 16 -23
10 -23 -15 0 -40 31 -47 60 -6 23 -6 23 5 5 6 -11 21 -30 32 -42z m167 35 c0
-6 -6 -5 -15 2 -8 7 -15 14 -15 16 0 2 7 1 15 -2 8 -4 15 -11 15 -16z m-36 -3
c11 -8 15 -15 10 -15 -6 0 -19 7 -30 15 -10 8 -14 14 -9 14 6 0 19 -6 29 -14z
m44 -116 c-3 -8 -7 -3 -11 10 -4 17 -3 21 5 13 5 -5 8 -16 6 -23z m-78 -99 c0
-5 -2 -10 -4 -10 -3 0 -8 5 -11 10 -3 6 -1 10 4 10 6 0 11 -4 11 -10z m51 -52
c11 -21 11 -22 -4 -9 -10 7 -17 17 -17 22 0 15 9 10 21 -13z m-20 -475 c-8
-15 -10 -15 -11 -2 0 17 10 32 18 25 2 -3 -1 -13 -7 -23z m10 -123 c-8 -39 -9
-41 -11 -15 -2 30 -2 30 -10 5 -8 -24 -8 -24 -9 -2 -1 12 6 25 14 28 8 4 16
20 16 38 1 18 3 23 5 11 3 -11 0 -40 -5 -65z"/>
<path d="M8060 15501 c0 -7 -4 -10 -8 -7 -26 16 -862 -302 -883 -335 -8 -14 1
-50 11 -44 4 3 8 -1 7 -8 0 -6 1 -21 2 -32 1 -17 3 -18 12 -5 8 11 9 2 4 -35
-4 -35 -3 -46 4 -35 8 11 9 4 4 -24 -5 -31 -3 -37 7 -31 10 6 12 4 7 -9 -8
-20 11 -155 23 -171 4 -5 10 -19 13 -30 3 -13 5 -9 6 13 0 17 6 32 11 32 6 0
10 -4 10 -10 0 -5 7 -10 16 -10 11 0 15 6 11 20 -3 13 2 25 12 33 25 17 37 57
20 68 -8 5 -9 9 -3 9 11 0 12 75 1 86 -4 4 -7 1 -7 -7 0 -8 -6 -4 -16 9 -9 13
-13 31 -9 45 4 16 4 18 -3 8 -15 -21 -33 -3 -26 26 5 18 3 24 -5 19 -7 -5 -11
2 -11 18 0 16 -6 26 -15 26 -8 0 -15 4 -15 10 0 5 7 6 17 3 11 -4 14 -3 9 5
-4 7 -2 12 4 12 6 0 15 11 22 25 6 13 15 22 20 19 5 -3 8 -2 7 3 -3 20 2 27
11 13 8 -13 10 -13 10 2 0 12 6 15 22 10 13 -3 19 -1 15 5 -5 7 1 9 14 6 11
-3 37 3 57 14 52 29 118 49 257 78 148 31 180 31 250 1 30 -14 57 -21 60 -16
3 5 1 11 -4 14 -8 6 6 63 19 76 3 3 5 12 5 20 0 8 6 14 13 12 8 -1 11 2 7 8
-3 6 -11 7 -18 3 -6 -3 -1 8 12 26 13 18 20 35 17 38 -3 4 -6 1 -6 -6z m-800
-413 c0 -19 -2 -20 -10 -8 -13 19 -13 30 0 30 6 0 10 -10 10 -22z"/>
<path d="M8030 15370 c0 -11 5 -20 10 -20 6 0 10 9 10 20 0 11 -4 20 -10 20
-5 0 -10 -9 -10 -20z"/>
<path d="M2575 15184 c-36 -39 -31 -51 7 -19 31 26 33 27 38 8 4 -17 9 -19 28
-12 25 10 29 34 6 43 -31 12 -55 6 -79 -20z"/>
<path d="M2640 15149 c-20 -8 -22 -12 -10 -19 8 -5 23 -10 32 -10 9 0 20 -9
23 -21 8 -24 28 -20 34 7 3 17 2 17 -15 4 -16 -14 -17 -13 -11 4 4 10 2 25 -4
32 -13 16 -15 16 -49 3z"/>
<path d="M2439 15128 c-1 -7 -1 -17 0 -22 1 -5 -6 -5 -16 -2 -9 4 -14 4 -10 0
4 -4 0 -16 -10 -26 -15 -17 -15 -18 13 -19 16 0 39 -2 52 -3 26 -3 26 -3 5 37
-9 18 -16 35 -15 40 1 4 -2 7 -8 7 -5 0 -11 -6 -11 -12z m12 -55 c13 -16 12
-17 -3 -4 -17 13 -22 21 -14 21 2 0 10 -8 17 -17z"/>
<path d="M2810 15132 c0 -5 7 -9 15 -9 8 0 12 4 9 9 -3 4 -9 8 -15 8 -5 0 -9
-4 -9 -8z"/>
<path d="M7281 15124 c0 -11 3 -14 6 -6 3 7 2 16 -1 19 -3 4 -6 -2 -5 -13z"/>
<path d="M2597 15113 c-14 -13 -7 -23 16 -23 13 0 28 -5 35 -12 6 -6 15 -8 19
-5 4 4 0 14 -8 21 -18 17 -53 28 -62 19z"/>
<path d="M2730 15100 c0 -13 5 -18 14 -14 8 3 12 12 9 20 -8 21 -23 17 -23 -6z"/>
<path d="M2541 15093 c-6 -10 -11 -12 -11 -5 0 6 -4 12 -10 12 -5 0 -7 -8 -4
-17 3 -10 8 -25 11 -33 3 -10 9 -3 19 19 16 37 12 54 -5 24z"/>
<path d="M2595 15060 c-4 -6 5 -10 20 -10 15 0 24 4 20 10 -3 6 -12 10 -20 10
-8 0 -17 -4 -20 -10z"/>
<path d="M2743 15036 c3 -19 2 -50 -3 -69 -6 -28 -4 -39 9 -52 19 -16 41 -20
41 -6 0 5 -9 11 -21 14 -19 5 -20 10 -13 76 5 54 4 71 -6 71 -9 0 -11 -10 -7
-34z"/>
<path d="M7483 15035 c-13 -13 -23 -29 -23 -35 0 -5 -4 -10 -10 -10 -5 0 -10
-4 -10 -8 0 -12 74 -1 82 12 12 17 9 38 -4 30 -8 -5 -9 0 -6 14 8 28 -1 27
-29 -3z"/>
<path d="M2598 15033 c-10 -2 -18 -8 -18 -13 0 -4 9 -6 20 -3 11 3 20 9 20 14
0 5 -1 8 -2 8 -2 -1 -11 -3 -20 -6z"/>
<path d="M2698 15005 c2 -14 6 -25 8 -25 2 0 4 11 4 25 0 14 -4 25 -9 25 -4 0
-6 -11 -3 -25z"/>
<path d="M2629 15013 c-16 -2 -29 -12 -32 -24 -6 -24 7 -33 22 -15 9 11 9 15
-1 19 -7 3 2 6 20 6 17 1 32 6 32 11 0 6 -3 9 -7 9 -5 -1 -20 -4 -34 -6z"/>
<path d="M7364 14978 c1 -31 5 -48 14 -48 14 0 16 31 3 46 -5 5 -11 18 -14 29
-2 11 -4 -1 -3 -27z"/>
<path d="M7545 14971 c-3 -5 -1 -12 5 -16 5 -3 10 1 10 9 0 18 -6 21 -15 7z"/>
<path d="M2397 14963 c-12 -11 -8 -23 8 -23 8 0 15 7 15 15 0 16 -12 20 -23 8z"/>
<path d="M2655 14950 c10 -11 20 -20 23 -20 3 0 -3 9 -13 20 -10 11 -20 20
-23 20 -3 0 3 -9 13 -20z"/>
<path d="M7483 14963 c9 -2 17 -11 17 -19 0 -8 5 -14 10 -14 6 0 10 9 10 20 0
15 -6 20 -27 19 -17 -1 -21 -3 -10 -6z"/>
<path d="M2996 14911 c10 -19 24 -36 29 -38 16 -5 15 34 -1 48 -8 6 -14 8 -14
4 0 -4 -8 -1 -17 6 -14 12 -14 9 3 -20z"/>
<path d="M2520 14918 l25 -11 -24 -6 c-14 -4 -27 -13 -29 -21 -4 -12 -2 -13 9
-2 7 6 21 12 31 12 10 0 18 4 18 8 0 14 -23 32 -39 31 -9 0 -5 -5 9 -11z"/>
<path d="M7366 14892 c-3 -5 1 -15 8 -21 11 -10 14 -9 12 3 -3 21 -13 29 -20
18z"/>
<path d="M2744 14866 c3 -19 43 -86 51 -86 5 0 -2 37 -9 48 -4 7 -2 12 6 12 9
0 9 3 -2 10 -8 5 -11 10 -6 10 11 0 -25 29 -37 30 -4 0 -5 -11 -3 -24z"/>
<path d="M2410 14852 c-20 -7 -30 -22 -30 -49 0 -20 -31 -49 -41 -38 -3 2 -5
-60 -5 -138 0 -91 3 -145 10 -149 8 -6 6 -12 -4 -19 -13 -9 -12 -10 3 -5 18 6
19 5 22 -36 1 -15 -2 -25 -7 -22 -5 3 -7 13 -3 21 4 13 3 14 -9 4 -8 -7 -16
-35 -18 -65 l-3 -54 30 21 30 20 -27 -29 c-34 -36 -36 -54 -5 -54 20 0 20 -2
-8 -20 -26 -17 -27 -25 -2 -21 4 1 3 -7 -3 -18 -14 -28 -13 -34 8 -27 11 4 9
0 -5 -10 -21 -15 -34 -52 -15 -40 29 18 44 -51 27 -118 -7 -24 -5 -28 7 -24
13 5 13 -1 2 -49 -16 -71 -9 -113 18 -108 15 3 19 0 16 -13 -6 -22 18 -48 26
-29 4 7 4 0 1 -15 -3 -16 0 -28 8 -31 9 -4 9 -7 0 -14 -10 -7 -11 -31 -3 -53
6 -15 4 -36 -4 -47 -8 -13 2 -17 34 -14 13 1 13 0 -1 -11 -17 -14 -14 -38 8
-51 7 -5 11 -12 8 -17 -3 -4 2 -11 10 -14 13 -5 14 -2 4 15 -9 19 -8 20 10 14
18 -5 21 -2 21 19 0 14 5 26 11 26 5 0 8 4 4 10 -3 5 -13 6 -23 3 -9 -4 -3 5
14 20 21 18 31 35 31 56 0 20 -4 28 -14 24 -15 -6 -17 -19 -3 -28 12 -8 13
-25 1 -25 -5 0 -14 21 -20 48 -7 26 -18 56 -26 68 -9 14 -10 25 -4 35 8 11 9
10 7 -5 -2 -10 3 -21 11 -24 8 -3 11 0 7 6 -3 6 -2 13 4 17 12 7 14 26 3 24
-25 -4 -36 2 -26 12 8 8 16 8 30 -2 23 -18 23 -40 0 -57 -20 -15 -14 -32 11
-32 12 0 13 3 5 8 -9 6 -7 12 7 22 26 19 25 29 -5 65 l-26 29 36 33 c20 18 38
33 41 33 13 0 63 67 58 80 -3 8 -2 11 2 7 8 -8 44 57 44 80 0 21 -56 114 -64
106 -4 -4 -4 0 -1 9 4 9 -4 27 -20 44 -15 16 -24 23 -20 16 4 -7 9 -29 11 -50
2 -20 12 -43 22 -50 9 -7 18 -17 18 -22 1 -6 2 -11 3 -12 1 -2 4 -19 5 -38 l3
-35 -13 33 c-17 40 -22 41 -16 2 7 -47 -5 -36 -28 28 -11 31 -29 69 -40 83
-18 26 -18 27 1 48 14 14 18 28 13 46 -4 15 -2 25 5 25 6 0 11 5 11 11 0 7 -7
8 -17 4 -10 -4 -27 -10 -38 -12 l-20 -5 20 15 c11 9 34 17 50 17 17 0 37 5 45
10 11 7 1 10 -35 11 -45 1 -47 2 -20 10 24 7 21 7 -17 4 -44 -4 -74 8 -46 18
9 3 8 7 -4 12 -14 5 -15 11 -6 31 6 13 14 24 18 24 4 0 7 14 7 30 0 17 -1 30
-2 30 -8 0 -85 -82 -85 -91 0 -10 -3 -10 -12 -1 -7 7 -8 15 -1 24 5 7 8 26 7
42 -2 15 -1 26 2 23 10 -10 63 54 69 83 9 40 -5 55 -52 58 -34 2 -36 1 -20
-12 17 -13 17 -14 0 -20 -13 -6 -14 -9 -4 -15 9 -6 8 -9 -6 -13 -16 -4 -20 1
-21 33 -2 20 2 40 8 44 5 3 10 11 10 16 0 6 -4 7 -10 4 -5 -3 -10 3 -10 14 0
12 5 21 10 21 6 0 10 -5 10 -11 0 -8 5 -8 15 1 22 18 19 43 -4 37 -15 -4 -18
-1 -13 12 5 14 4 14 -14 1 -13 -10 -12 -7 4 12 26 28 27 58 2 50z m-30 -127
c-7 -8 -17 -12 -22 -9 -6 4 -5 10 3 15 22 14 33 10 19 -6z m-5 -62 c-8 -16
-12 -35 -9 -45 6 -21 -12 -33 -20 -12 -7 18 19 84 33 84 5 0 3 -12 -4 -27z
m-3 -95 c-7 -7 -12 -8 -12 -2 0 14 12 26 19 19 2 -3 -1 -11 -7 -17z m22 -277
c-10 -10 -21 -16 -24 -14 -3 3 4 11 14 19 28 20 33 17 10 -5z m193 -188 c-3
-10 -5 -4 -5 12 0 17 2 24 5 18 2 -7 2 -21 0 -30z m-36 8 c6 10 8 7 7 -11 -1
-14 2 -35 6 -47 5 -14 3 -23 -3 -23 -6 0 -11 10 -11 23 0 12 -7 31 -15 41 -8
11 -15 25 -15 30 0 6 5 3 11 -8 9 -15 13 -16 20 -5z m-66 -391 c3 -5 -1 -10
-10 -10 -9 0 -13 5 -10 10 3 6 8 10 10 10 2 0 7 -4 10 -10z m20 -70 c-19 -21
-7 -28 13 -8 7 7 12 8 12 2 0 -5 -9 -15 -21 -22 -17 -11 -18 -16 -8 -28 15
-18 6 -29 -17 -20 -11 4 -14 12 -9 24 4 9 7 24 8 32 0 19 16 40 30 40 5 0 2
-9 -8 -20z"/>
<path d="M2816 14815 c-9 -26 -7 -32 5 -12 6 10 9 21 6 23 -2 3 -7 -2 -11 -11z"/>
<path d="M2836 14784 c-8 -21 -8 -24 3 -24 12 0 22 28 12 35 -5 3 -12 -2 -15
-11z"/>
<path d="M7325 14790 c3 -5 8 -10 11 -10 2 0 4 5 4 10 0 6 -5 10 -11 10 -5 0
-7 -4 -4 -10z"/>
<path d="M2951 14763 c14 -32 63 -112 67 -109 2 3 -3 15 -12 28 -9 12 -16 32
-16 43 0 11 -9 26 -21 33 -12 8 -20 10 -18 5z"/>
<path d="M2520 14740 c0 -5 -6 -7 -12 -5 -18 7 -73 -31 -59 -39 6 -4 11 -4 11
1 0 4 4 3 8 -3 4 -7 18 -8 38 -2 26 6 32 13 30 33 -1 23 -16 37 -16 15z"/>
<path d="M3017 14743 c-4 -3 -7 -16 -6 -27 0 -19 1 -19 10 3 10 24 8 36 -4 24z"/>
<path d="M2316 14705 c-3 -9 -6 -31 -5 -48 1 -28 2 -26 10 12 9 46 6 65 -5 36z"/>
<path d="M7271 14684 c0 -11 3 -14 6 -6 3 7 2 16 -1 19 -3 4 -6 -2 -5 -13z"/>
<path d="M2590 14665 c0 -3 9 -22 20 -42 11 -21 20 -50 20 -65 0 -15 4 -29 9
-32 5 -4 7 4 4 16 -5 22 -5 22 9 4 11 -14 17 -16 23 -7 4 8 -3 23 -17 39 -14
15 -31 42 -38 60 -10 27 -30 44 -30 27z"/>
<path d="M7251 14644 c0 -11 3 -14 6 -6 3 7 2 16 -1 19 -3 4 -6 -2 -5 -13z"/>
<path d="M7290 14630 c13 -23 20 -26 20 -6 0 8 -7 16 -15 20 -13 4 -14 2 -5
-14z"/>
<path d="M2885 14630 c-8 -13 3 -30 18 -30 8 0 7 3 -2 9 -7 5 -10 14 -7 20 4
6 5 11 2 11 -3 0 -8 -4 -11 -10z"/>
<path d="M2772 14570 c0 -14 2 -19 5 -12 2 6 2 18 0 25 -3 6 -5 1 -5 -13z"/>
<path d="M7262 14570 c0 -14 2 -19 5 -12 2 6 2 18 0 25 -3 6 -5 1 -5 -13z"/>
<path d="M2596 14573 c-12 -13 -5 -39 20 -68 17 -20 22 -23 15 -8 -6 12 -11
33 -11 47 0 25 -12 41 -24 29z"/>
<path d="M2986 14534 c-4 -11 -15 -15 -36 -12 -24 4 -27 2 -18 -9 6 -7 19 -11
29 -8 12 4 19 1 20 -7 0 -7 5 0 10 16 9 32 6 48 -5 20z"/>
<path d="M2586 14485 c-3 -9 -2 -13 4 -10 6 3 10 -3 10 -14 0 -11 5 -23 10
-26 15 -10 12 41 -4 54 -11 9 -15 8 -20 -4z"/>
<path d="M2740 14491 c0 -5 7 -11 14 -14 10 -4 13 -1 9 9 -6 15 -23 19 -23 5z"/>
<path d="M7272 14470 c0 -14 2 -19 5 -12 2 6 2 18 0 25 -3 6 -5 1 -5 -13z"/>
<path d="M2935 14468 c19 -11 18 -12 -10 -25 -23 -11 -25 -13 -6 -9 27 6 75
-10 67 -23 -3 -4 -18 -6 -33 -4 l-28 5 22 -16 c12 -9 26 -15 30 -14 4 2 10 -1
13 -6 3 -6 -8 -10 -25 -10 -32 -1 -42 -19 -13 -21 23 -2 37 -16 21 -22 -10 -4
-9 -10 2 -26 20 -29 19 -40 -4 -27 -26 14 -31 13 -31 -6 0 -11 6 -13 19 -9 27
8 48 -35 49 -97 1 -39 -1 -46 -14 -41 -12 4 -15 15 -11 39 3 19 1 36 -4 40 -6
4 -6 11 2 20 9 11 8 15 -5 20 -24 9 -32 -4 -18 -26 8 -13 10 -35 6 -60 -4 -26
-2 -45 6 -55 7 -8 8 -15 3 -15 -19 0 -35 -90 -30 -175 5 -81 17 -132 17 -70 0
15 9 43 21 61 15 25 18 42 13 69 -3 19 -3 55 0 80 6 36 12 46 31 51 23 6 26
18 12 41 -10 16 -37 117 -32 121 5 6 65 -41 65 -50 0 -18 16 -7 17 12 1 12 -4
20 -14 20 -10 0 -13 6 -9 16 3 9 6 22 6 30 0 9 4 13 9 9 5 -3 13 0 17 6 5 8 3
9 -6 4 -10 -6 -12 -4 -7 8 4 10 1 17 -6 17 -7 0 -14 -12 -15 -27 -3 -43 -12
-40 -12 5 0 22 5 44 12 48 7 4 8 3 4 -4 -5 -8 0 -12 12 -12 30 0 31 20 7 75
-22 48 -23 49 -20 15 1 -19 -4 -40 -11 -48 -8 -7 -14 -28 -14 -45 0 -41 -14
-62 -34 -54 -18 7 -21 34 -7 70 11 27 -5 97 -21 97 -5 0 -16 7 -24 15 -9 8
-21 15 -27 15 -7 0 -3 -6 8 -12z"/>
<path d="M2742 14450 c0 -14 2 -19 5 -12 2 6 2 18 0 25 -3 6 -5 1 -5 -13z"/>
<path d="M2570 14451 c0 -5 5 -13 10 -16 6 -3 10 -2 10 4 0 5 -4 13 -10 16 -5
3 -10 2 -10 -4z"/>
<path d="M2711 14360 c-1 -35 -4 -42 -12 -30 -8 11 -9 -1 -5 -45 l5 -60 -17
37 c-9 21 -21 38 -25 38 -14 0 4 -63 30 -105 22 -36 24 -37 20 -13 -2 15 0 25
4 22 15 -9 21 41 9 71 -9 24 -9 28 1 18 7 -7 17 -13 22 -13 4 0 5 6 0 13 -4 6
-13 35 -19 62 l-12 50 -1 -45z"/>
<path d="M2741 14374 c0 -11 3 -14 6 -6 3 7 2 16 -1 19 -3 4 -6 -2 -5 -13z"/>
<path d="M2312 14340 c0 -14 2 -19 5 -12 2 6 2 18 0 25 -3 6 -5 1 -5 -13z"/>
<path d="M3006 14332 c-3 -6 -1 -14 5 -17 15 -10 25 3 12 16 -7 7 -13 7 -17 1z"/>
<path d="M3040 14160 c0 -19 3 -21 12 -12 9 9 9 15 0 24 -9 9 -12 7 -12 -12z"/>
<path d="M3191 14124 c0 -11 3 -14 6 -6 3 7 2 16 -1 19 -3 4 -6 -2 -5 -13z"/>
<path d="M3005 14049 c-4 -11 -4 -47 0 -79 4 -38 3 -60 -4 -64 -6 -4 -11 -22
-10 -39 1 -35 26 -112 29 -87 2 18 6 36 15 72 6 24 5 26 -16 21 -22 -6 -22 -6
-6 18 12 16 15 34 11 58 -5 24 -3 32 5 27 7 -5 11 2 11 19 0 17 -4 24 -11 19
-8 -5 -10 3 -7 25 5 35 -7 42 -17 10z"/>
<path d="M2535 13860 c3 -5 8 -10 11 -10 2 0 4 5 4 10 0 6 -5 10 -11 10 -5 0
-7 -4 -4 -10z"/>
<path d="M5930 13840 c-51 -14 -380 -20 -505 -9 -130 12 -146 9 -151 -26 -1
-8 2 -15 8 -15 6 0 5 -6 -2 -15 -11 -13 -8 -14 21 -10 l34 5 -30 -14 c-16 -8
-34 -11 -40 -7 -21 15 -40 6 -40 -19 0 -23 -4 -25 -60 -31 -55 -6 -196 4 -238
17 -27 8 -413 17 -577 13 -252 -6 -302 -4 -425 14 -66 10 -180 21 -254 24
-124 6 -135 5 -149 -13 -12 -16 -14 -16 -9 -2 6 18 2 20 -104 33 -36 4 -49 2
-62 -13 -15 -17 -15 -18 16 -15 18 1 47 6 66 9 l34 7 -7 -115 c-5 -76 -3 -130
4 -160 10 -38 9 -51 -4 -76 -19 -37 -20 -46 -4 -36 7 4 8 3 4 -5 -4 -6 -11 -9
-16 -6 -12 7 -44 -100 -70 -235 -12 -58 -28 -132 -37 -165 -9 -36 -16 -105
-17 -172 -1 -83 -4 -114 -14 -118 -7 -3 -11 -9 -8 -14 4 -5 -6 -65 -20 -134
l-26 -124 50 -74 c64 -96 90 -149 139 -284 l40 -110 -2 -180 c-1 -99 2 -202 8
-228 6 -33 5 -52 -3 -61 -8 -11 -8 -15 2 -19 9 -4 7 -6 -4 -6 -9 -1 -20 4 -24
11 -5 8 -11 6 -20 -7 -12 -17 -14 -16 -24 10 -6 15 -13 32 -16 37 -8 13 69 -2
79 -16 5 -7 7 -3 5 9 -3 18 -11 20 -67 19 -52 0 -60 2 -46 12 17 13 4 30 -15
19 -5 -3 -10 -3 -10 0 0 3 15 13 33 21 29 14 30 15 5 9 -25 -5 -28 -2 -28 19
0 14 8 30 18 35 15 9 13 10 -8 8 -22 -2 -25 2 -23 26 1 15 -2 25 -7 22 -6 -3
-7 1 -4 9 3 9 1 16 -5 16 -7 0 -11 6 -10 13 1 6 1 25 0 41 -1 23 -4 26 -15 17
-11 -10 -14 -9 -12 2 1 8 8 22 15 31 7 8 10 20 6 26 -3 5 -2 10 4 10 7 0 7 8
0 27 -7 19 -7 28 3 34 7 4 10 11 6 14 -3 3 -12 -1 -20 -9 -12 -11 -18 -12 -27
-3 -9 9 -11 7 -6 -8 4 -11 -8 4 -27 33 -45 72 -68 67 -68 -14 0 -21 -4 -33
-10 -29 -7 4 -7 -2 -1 -17 9 -21 24 -80 22 -85 -1 -2 -4 -3 -8 -3 -8 0 -10 5
-12 40 -1 25 -22 34 -56 26 -16 -4 -22 -11 -19 -20 3 -8 12 -12 20 -9 10 3 12
0 9 -10 -4 -8 1 -22 10 -31 21 -20 13 -81 -12 -94 -13 -8 -13 -11 -2 -22 16
-14 14 -174 -1 -165 -5 3 7 -31 26 -76 20 -44 41 -106 48 -137 6 -33 32 -91
59 -137 26 -44 47 -88 47 -97 0 -10 18 -35 41 -55 54 -49 99 -128 99 -175 0
-21 -5 -38 -11 -38 -5 0 -8 -4 -4 -9 3 -6 -4 -8 -16 -6 -17 4 -19 2 -9 -10 10
-12 9 -15 -4 -15 -9 0 -16 -3 -17 -7 -5 -48 -19 -69 -19 -28 0 20 -12 41 -37
67 -25 26 -32 38 -21 38 8 0 21 7 28 15 10 12 10 15 -1 15 -11 0 -11 2 -1 8 9
6 1 18 -28 44 -22 20 -40 43 -40 51 0 9 -15 31 -32 50 -18 19 -43 52 -55 73
-12 21 -26 38 -32 37 -6 -2 -8 4 -5 12 4 8 1 15 -6 15 -6 0 -9 4 -6 8 3 5 -4
14 -14 22 -10 8 -17 17 -14 21 2 4 -3 14 -11 22 -11 12 -12 17 -2 20 9 4 9 7
0 14 -7 5 -10 21 -8 35 4 20 0 30 -15 38 -12 6 -19 17 -17 23 2 6 -2 23 -9 36
-7 14 -11 28 -8 33 3 4 1 8 -5 8 -6 0 -8 6 -5 14 3 8 -1 30 -9 48 -9 18 -18
43 -22 56 -3 12 -11 22 -17 22 -6 0 -5 7 3 17 10 11 10 14 2 9 -8 -4 -13 -1
-13 8 0 9 -4 16 -10 16 -5 0 -10 8 -11 18 0 11 -2 13 -6 4 -6 -15 -49 46 -45
62 2 5 -4 6 -13 3 -10 -5 -15 0 -15 13 0 25 -5 25 -32 0 -26 -24 -38 -25 -38
-6 0 8 -17 20 -37 28 -42 14 -54 16 -50 7 1 -3 -4 -13 -11 -22 -7 -8 -9 -18
-4 -21 14 -8 2 -56 -13 -56 -8 0 -15 10 -17 23 -2 12 -9 21 -16 20 -6 -2 -12
3 -12 10 0 6 -9 -1 -20 -18 -24 -36 -25 -68 -4 -89 8 -9 12 -16 8 -16 -4 0 7
-13 24 -29 16 -16 33 -40 37 -53 4 -13 16 -34 26 -47 10 -13 16 -27 13 -32 -3
-5 0 -9 6 -9 6 0 8 -4 5 -10 -3 -5 6 -34 20 -63 14 -30 25 -59 25 -64 0 -6 7
-14 16 -17 9 -3 14 -12 11 -19 -3 -7 1 -21 9 -32 23 -31 16 -40 -11 -11 -27
29 -45 34 -45 10 0 -8 4 -13 8 -10 10 6 22 -3 42 -28 14 -18 13 -19 -2 -13
-12 4 -15 2 -12 -8 3 -7 12 -16 20 -19 8 -3 11 -13 8 -23 -4 -13 -3 -15 4 -5
7 11 11 10 16 -4 3 -9 9 -14 12 -11 3 3 -2 19 -11 37 -9 18 -14 34 -11 37 2 3
14 -18 26 -46 12 -28 29 -56 37 -62 11 -10 11 -14 1 -20 -11 -7 -11 -9 0 -9 8
0 10 -5 6 -12 -6 -10 -4 -10 7 0 7 6 19 12 26 12 7 0 12 -6 10 -12 -1 -7 3
-13 8 -12 6 0 26 -15 45 -34 19 -19 30 -32 25 -29 -6 3 -16 -3 -23 -13 -10
-16 -5 -24 36 -59 26 -23 51 -41 56 -41 10 0 -20 38 -47 58 -9 7 -15 18 -11
23 3 5 15 -2 26 -16 11 -14 24 -22 30 -19 6 4 8 2 5 -3 -4 -6 3 -24 15 -39 30
-39 48 -57 48 -48 0 4 9 -5 21 -20 11 -14 25 -26 31 -26 7 0 6 5 -2 15 -10 12
-8 13 17 5 80 -24 122 -43 117 -51 -3 -5 0 -9 7 -9 7 0 4 -7 -7 -16 -17 -14
-17 -15 -1 -10 10 3 16 2 13 -3 -11 -17 -74 -10 -92 10 -9 10 -22 19 -29 19
-6 0 -24 14 -41 31 -16 17 -44 39 -62 51 -17 11 -29 25 -26 30 4 6 2 8 -3 5
-6 -4 -16 0 -23 8 -29 35 -37 17 -42 -89 -4 -79 -9 -108 -21 -121 -9 -9 -17
-28 -17 -43 0 -14 -11 -62 -24 -106 -40 -133 -64 -474 -35 -492 8 -4 -1 -14
-23 -25 -31 -16 -37 -26 -51 -82 -23 -91 -65 -424 -68 -537 -2 -58 -10 -118
-21 -155 -61 -194 -84 -565 -50 -802 11 -78 18 -152 15 -164 -4 -14 0 -26 10
-34 11 -8 16 -29 17 -71 1 -82 -9 -256 -15 -262 -3 -3 -5 -26 -5 -51 0 -50
-40 -438 -66 -643 -9 -69 -14 -136 -11 -147 3 -13 -1 -24 -10 -30 -22 -12 -9
-42 14 -35 15 5 15 4 3 -4 -8 -6 -17 -9 -21 -6 -13 8 -18 -11 -23 -94 -4 -61
-2 -81 7 -79 7 1 10 -5 8 -13 -31 -136 -43 -729 -28 -1435 8 -401 20 -601 42
-710 7 -38 16 -91 20 -117 3 -26 15 -58 26 -71 10 -14 19 -29 19 -34 0 -4 -5
-1 -11 7 -19 28 2 -69 28 -129 44 -99 101 -152 205 -190 26 -10 27 -11 14 -43
-14 -31 -39 -77 -113 -199 -18 -30 -31 -59 -29 -66 3 -6 0 -13 -6 -15 -5 -2
-12 -43 -15 -90 -5 -75 -2 -96 17 -148 19 -51 25 -58 37 -48 13 10 14 7 12
-19 -3 -23 3 -40 21 -60 13 -15 23 -30 21 -32 -4 -6 22 -20 30 -15 4 2 3 21
-1 41 -12 49 -5 54 10 8 6 -19 17 -34 23 -33 7 1 24 -6 38 -15 48 -32 92 -37
329 -37 384 1 719 33 785 76 22 15 60 9 49 -7 -3 -5 0 -9 7 -9 7 0 5 -9 -7
-22 l-19 -22 29 22 c21 16 32 20 40 12 8 -8 2 -20 -21 -41 -18 -16 -33 -37
-33 -47 0 -11 -9 -45 -20 -77 -11 -32 -20 -59 -20 -61 0 -7 72 20 187 71 121
54 169 82 158 93 -2 2 2 16 9 31 7 14 11 32 8 40 -3 8 0 11 6 7 6 -4 16 3 22
14 6 11 7 20 3 20 -3 0 5 12 20 28 14 15 57 88 95 162 81 157 157 302 200 380
65 116 93 306 55 370 -9 15 -37 38 -62 50 -25 13 -58 34 -73 48 l-27 25 39 44
c55 63 78 131 82 242 2 50 6 91 11 91 4 0 7 -14 7 -32 0 -17 3 -28 8 -24 4 4
9 62 12 129 6 132 5 127 160 533 61 161 89 275 96 404 7 136 -13 404 -47 620
-15 99 -12 190 7 212 24 26 30 159 10 234 -11 44 -14 82 -9 143 4 61 3 85 -6
91 -7 4 -15 27 -18 51 -3 31 -2 40 6 29 5 -8 7 -18 5 -22 -3 -4 -1 -16 4 -25
7 -11 12 86 15 288 6 362 11 476 27 669 7 80 14 168 15 195 2 28 12 163 24
300 64 778 71 906 75 1380 1 143 8 269 20 360 10 77 21 167 24 200 l7 60 41 3
41 3 6 -73 c3 -40 11 -120 17 -178 10 -101 29 -341 50 -630 5 -74 14 -175 20
-225 5 -49 12 -130 15 -180 8 -121 22 -265 40 -410 8 -66 19 -167 26 -225 30
-285 63 -515 134 -915 8 -49 20 -128 26 -175 6 -46 13 -87 17 -90 7 -5 8 -10
11 -255 2 -157 2 -161 -27 -233 -26 -61 -29 -82 -25 -128 5 -46 10 -56 32 -67
14 -7 26 -19 26 -27 0 -8 -4 -204 -8 -435 -10 -468 -13 -425 65 -810 44 -217
45 -248 23 -405 -9 -58 -20 -166 -26 -240 -5 -74 -12 -157 -15 -184 -14 -116
42 -302 120 -399 91 -113 91 -113 73 -166 -9 -25 -22 -93 -28 -152 -11 -98
-11 -110 9 -176 24 -79 82 -165 171 -254 40 -39 87 -71 162 -109 103 -52 107
-55 116 -95 11 -46 -1 -103 -22 -112 -21 -8 -19 -26 3 -19 14 5 14 4 -2 -9
-11 -8 -14 -15 -7 -15 17 0 3 -19 -23 -31 l-21 -10 22 5 c12 2 23 0 25 -5 3
-10 18 -14 132 -35 101 -19 169 -40 226 -69 97 -52 151 -75 208 -89 206 -54
631 -43 821 21 47 15 111 57 111 73 0 4 -21 2 -47 -6 -191 -59 -826 -84 -970
-40 -85 27 -106 51 -143 168 -19 60 -33 126 -34 158 l-1 55 50 -3 c28 -1 130
-13 228 -27 98 -14 217 -25 265 -25 164 1 512 43 560 69 10 5 24 17 31 25 20
24 15 126 -7 148 -8 8 -9 4 -5 -13 6 -22 4 -22 -34 11 -23 19 -42 39 -42 44
-1 5 6 3 14 -4 21 -17 29 -6 15 20 -19 36 -5 33 21 -4 13 -19 36 -52 51 -73
15 -21 31 -54 34 -73 7 -33 6 -34 -12 -20 -18 14 -18 14 -5 -2 7 -10 17 -15
22 -12 5 3 9 -2 9 -10 0 -8 5 -18 12 -22 7 -4 8 -3 4 4 -4 7 -2 12 5 12 6 0 9
-8 6 -19 -2 -10 -1 -25 4 -32 6 -10 9 -8 9 8 0 12 4 24 10 28 5 3 7 12 4 19
-3 7 1 20 9 27 7 8 14 16 15 19 0 3 6 19 12 35 47 121 58 155 52 155 -4 0 -2
4 4 8 24 15 83 150 93 212 13 76 14 163 4 157 -5 -3 -9 18 -10 47 -4 85 -22
134 -62 166 -36 30 -167 80 -209 80 -13 0 -21 4 -18 9 3 4 -72 41 -167 81 -95
40 -174 74 -176 76 -2 2 13 26 33 53 37 52 136 223 206 356 40 77 95 224 86
232 -3 3 -8 -6 -11 -20 -4 -15 -12 -24 -19 -21 -9 3 -12 -5 -11 -26 1 -16 0
-28 -3 -25 -3 3 -12 -1 -21 -7 -13 -10 -14 -10 -3 2 14 17 16 34 2 25 -6 -3
-1 10 11 29 12 20 26 36 32 36 9 0 9 2 1 8 -7 4 -8 15 -3 27 4 11 8 14 8 8 1
-7 6 -13 13 -13 6 0 8 3 5 7 -4 3 1 16 10 27 17 20 17 20 -1 6 -19 -15 -19
-14 -2 18 9 17 14 32 10 32 -4 0 0 8 7 17 12 14 12 16 0 8 -11 -6 -12 -5 -5 6
5 8 9 21 9 29 0 8 4 21 9 28 5 8 10 28 12 45 1 18 8 77 13 131 6 55 9 101 8
103 -2 2 -9 -16 -16 -39 -7 -24 -17 -57 -22 -74 -5 -17 -9 -38 -9 -46 0 -20
-28 -50 -40 -43 -4 3 -5 -5 -2 -17 5 -20 7 -20 10 -5 4 17 5 17 19 -3 8 -12
12 -24 9 -27 -3 -4 -6 -1 -6 7 0 10 -3 10 -15 0 -11 -9 -15 -9 -15 -1 0 7 -4
9 -10 6 -6 -4 -7 1 -3 12 6 15 4 16 -9 6 -8 -7 -18 -10 -22 -6 -4 4 -4 0 0
-10 4 -11 0 -19 -10 -23 -9 -3 -14 -9 -12 -13 12 -19 -174 -295 -189 -280 -2
3 11 20 29 40 19 19 48 61 66 92 17 31 36 59 41 62 4 3 6 13 3 23 -5 13 -4 14
4 4 7 -11 10 -10 16 3 8 23 8 27 -3 20 -5 -3 -13 0 -17 7 -11 17 -12 48 -2 42
4 -3 8 -1 8 4 0 5 10 8 23 7 18 -2 23 3 25 22 1 13 -2 21 -8 18 -6 -4 -7 2 -1
16 4 13 14 25 22 27 11 4 12 2 2 -9 -17 -17 -16 -26 0 -26 9 0 13 10 11 26 -1
13 6 37 17 52 10 15 19 37 19 48 0 12 5 21 11 21 5 0 8 4 5 9 -4 5 -2 11 2 13
11 4 62 133 69 172 2 17 6 60 8 96 3 36 9 66 15 68 5 2 10 15 10 28 0 14 -4
22 -10 19 -6 -3 -10 -3 -11 2 0 4 -2 18 -3 31 -2 13 3 22 11 22 7 0 13 -8 14
-17 0 -12 2 -13 6 -5 3 7 -1 19 -7 28 -11 12 -10 13 4 8 12 -5 16 0 16 20 0
14 -4 26 -10 26 -5 0 -9 11 -8 24 1 14 6 22 10 20 4 -3 8 0 8 5 0 6 -4 11 -10
11 -5 0 -10 4 -10 8 0 5 7 9 15 9 11 0 15 -13 16 -51 l2 -51 7 45 c4 25 8 86
9 135 1 50 4 105 8 124 5 27 3 32 -8 26 -12 -7 -12 -6 -1 7 10 12 11 54 6 182
l-7 167 -31 -5 c-17 -3 -9 2 17 10 37 12 46 18 38 28 -6 7 -7 17 -3 21 4 5 -2
5 -13 1 -16 -6 -18 -5 -8 5 11 10 8 16 -15 26 -15 7 -20 12 -12 9 21 -5 35 13
37 51 3 35 -14 54 -28 32 -7 -12 -11 -11 -26 4 -16 16 -16 17 4 17 13 0 23 8
27 23 9 35 7 40 -11 21 -16 -15 -17 -15 -24 2 -8 24 -2 34 22 34 20 0 27 34 9
45 -7 4 -7 12 0 25 10 18 4 159 -7 190 -3 8 -5 26 -4 39 3 30 -54 445 -66 481
-3 8 -6 29 -7 45 -1 17 -8 75 -16 129 -11 77 -11 101 -2 104 7 2 12 15 12 28
0 22 -14 30 -43 25 -5 -1 -6 3 -2 9 4 6 15 8 25 5 13 -4 19 1 24 21 5 17 3 30
-4 34 -8 5 -7 9 4 13 21 8 21 37 0 52 -14 10 -14 13 -2 26 23 23 41 132 42
252 1 262 -4 400 -15 413 -8 10 -9 18 0 27 8 11 6 18 -9 32 -18 16 -19 20 -5
27 13 8 14 27 11 119 -3 60 -7 113 -10 118 -6 8 -15 60 -20 105 -1 12 -6 27
-10 34 -4 7 -5 16 -1 21 3 6 -3 15 -14 20 -12 7 -17 18 -14 30 3 10 0 22 -6
25 -6 4 -11 12 -11 17 0 6 5 7 10 4 16 -10 12 1 -6 15 -8 8 -14 9 -13 4 1 -5
0 -22 -1 -39 l-2 -30 -8 35 c-5 21 -5 40 1 47 7 8 7 18 0 31 -7 13 -7 22 1 30
8 8 7 13 -5 18 -9 3 -17 11 -17 17 0 6 -8 19 -17 30 -10 11 -13 17 -7 14 7 -4
15 0 18 9 3 8 2 12 -4 9 -6 -3 -10 1 -10 9 0 9 -4 16 -8 16 -5 0 -9 15 -10 33
-1 29 0 30 10 12 7 -11 18 -27 27 -35 13 -13 14 -13 7 5 -5 11 -16 41 -25 67
l-16 48 -50 1 c-27 1 -63 0 -79 -1 -18 -1 -26 2 -22 9 4 7 40 11 88 11 69 0
79 2 74 16 -3 9 -6 18 -6 20 0 3 -4 3 -8 0 -5 -3 -9 1 -9 9 0 8 3 15 7 15 4 0
5 14 2 30 -2 17 -8 30 -13 30 -5 0 -9 7 -9 15 0 8 -6 15 -12 16 -7 0 -2 4 10
10 21 8 23 13 17 52 -11 70 -45 195 -70 264 -14 36 -25 78 -25 94 0 16 -9 38
-21 50 -15 15 -20 30 -17 55 2 19 0 34 -5 34 -5 0 -7 6 -4 13 6 16 -57 14
-105 -3 -23 -9 -41 -10 -52 -3 -14 8 -13 12 13 38 22 20 34 25 43 18 35 -28
158 -9 158 24 0 7 10 13 23 14 21 0 21 1 2 9 -18 8 -17 9 8 9 24 1 26 4 18 19
-7 14 -5 21 10 30 14 9 19 9 19 0 0 -6 3 -8 6 -5 4 4 1 13 -6 22 -10 12 -10
15 1 15 8 0 20 9 27 20 7 12 17 18 23 14 8 -4 7 -9 -2 -15 -8 -5 -9 -9 -4 -9
6 1 19 8 30 17 16 13 17 15 3 10 -10 -4 -18 -3 -18 2 0 5 11 11 25 13 16 3 22
1 18 -6 -4 -7 -1 -7 7 1 7 6 20 9 29 5 13 -5 14 -3 4 10 -16 19 -5 32 14 16
11 -9 17 -9 24 3 7 12 9 12 9 -1 1 -12 3 -11 11 3 5 9 7 23 3 30 -6 9 -5 9 7
0 14 -11 16 -8 16 23 0 34 -1 35 -14 18 -12 -16 -15 -17 -23 -4 -11 18 5 30
43 30 15 0 27 4 27 9 0 5 -17 5 -41 0 -43 -10 -71 -3 -48 12 8 5 9 9 4 9 -10
0 -10 33 -4 143 1 15 5 27 9 27 8 0 23 39 21 53 -1 4 3 7 9 7 5 0 7 6 4 13 -2
7 9 33 27 56 24 33 32 55 33 92 1 44 0 47 -15 33 -31 -28 -77 -128 -123 -266
-53 -160 -68 -192 -100 -213 -13 -9 -52 -49 -87 -90 -65 -77 -76 -85 -76 -60
0 8 4 12 9 9 8 -5 10 -1 12 34 0 9 13 25 28 34 16 10 28 23 28 28 0 6 -5 8
-12 4 -7 -5 -8 -3 -3 5 5 9 10 10 18 2 16 -16 32 -13 18 3 -9 11 -7 13 11 12
14 -1 22 4 20 12 -1 8 1 11 6 8 5 -3 18 2 30 10 25 17 29 56 7 74 -8 7 -12 17
-8 23 4 6 0 8 -10 4 -10 -3 -17 -2 -17 3 0 19 -18 10 -23 -11 -7 -24 -22 -19
-30 11 -3 13 -1 18 5 13 7 -4 8 -1 3 8 -7 11 -6 12 7 2 8 -7 17 -10 20 -8 3 3
18 1 33 -5 21 -8 30 -8 36 1 12 20 -1 37 -32 44 -16 4 -29 11 -29 17 0 5 -6 8
-12 5 -7 -2 -12 -9 -11 -16 2 -6 -7 -17 -20 -25 -30 -20 -42 -23 -44 -12 -1 5
-7 13 -15 17 -10 7 -9 9 5 9 12 0 16 4 11 13 -5 8 -2 8 9 -2 15 -12 17 -11 17
3 0 9 -7 19 -15 22 -21 9 -15 72 7 80 10 3 17 8 16 12 -1 4 9 23 22 44 24 35
25 36 53 21 16 -8 31 -12 35 -9 3 3 -1 6 -9 6 -9 0 -5 7 10 19 l23 18 -23 -3
c-13 -1 -28 -3 -34 -3 -5 -1 -3 -6 5 -12 13 -9 13 -10 0 -6 -9 2 -14 13 -12
27 2 13 -1 20 -6 16 -6 -4 -14 -1 -18 5 -4 8 -3 9 4 5 7 -4 12 -3 12 3 0 5 -5
13 -10 16 -6 3 -8 24 -5 46 3 22 1 39 -5 39 -10 0 -7 56 4 67 3 3 1 12 -5 19
-6 8 -9 20 -6 28 3 8 1 17 -6 20 -7 2 -2 5 9 5 26 1 48 26 39 42 -4 6 -2 15 5
19 10 6 5 16 -18 40 -18 17 -32 36 -32 41 0 5 -4 9 -8 9 -5 0 -15 11 -22 25
-7 13 -16 23 -19 23 -19 -5 -51 16 -51 33 0 11 -4 18 -9 15 -5 -3 -8 2 -7 12
0 10 -7 18 -21 20 -19 3 -23 -4 -34 -55 -7 -32 -13 -73 -12 -92 l1 -35 -15 25
c-9 14 -12 17 -9 5 4 -10 1 -25 -6 -33 -7 -8 -11 -28 -10 -44 1 -16 -2 -29 -7
-29 -10 0 -9 -25 2 -36 12 -12 8 -26 -5 -18 -10 5 -10 4 -1 -6 7 -8 8 -22 3
-41 -5 -16 -6 -29 -2 -29 4 0 1 -4 -6 -9 -10 -6 -14 -37 -14 -109 0 -66 -4
-99 -10 -95 -7 3 -9 -8 -6 -30 2 -20 0 -33 -4 -31 -4 3 -8 0 -8 -7 0 -30 -61
-135 -88 -151 -27 -16 -120 -42 -108 -31 3 3 -6 20 -19 38 -14 17 -25 43 -25
56 0 19 2 21 10 9 8 -13 10 -13 10 1 0 9 7 20 16 23 8 3 12 10 9 16 -4 6 6 10
24 10 16 0 37 3 47 7 13 5 15 3 9 -7 -6 -9 -4 -11 5 -5 10 6 10 11 -3 20 -20
14 -22 35 -4 36 6 0 3 4 -8 9 -18 8 -17 9 8 9 33 1 36 18 5 24 -13 2 -3 5 22
6 54 1 74 16 59 43 -5 10 -15 18 -22 18 -7 0 -22 7 -33 16 -10 8 -13 13 -6 9
20 -10 14 5 -14 30 -27 26 -18 33 17 15 10 -6 19 -8 19 -6 0 3 -14 13 -31 21
-31 16 -33 25 -7 29 24 3 37 16 32 31 -4 8 -10 13 -14 10 -5 -3 -7 7 -5 22 2
17 -4 32 -14 40 -11 8 -12 12 -3 13 9 0 10 5 2 19 -15 28 -12 40 8 36 9 -1 22
2 29 7 7 5 14 5 18 -2 3 -5 10 -10 15 -10 6 0 3 8 -5 18 -8 9 -14 20 -13 23 2
3 -3 13 -11 23 -8 9 -11 19 -7 23 3 3 6 0 6 -8 0 -11 2 -11 10 1 14 21 12 30
-5 30 -8 0 -15 5 -15 11 0 6 -7 9 -15 5 -9 -3 -15 0 -15 9 0 8 -6 14 -12 13
-19 -4 -12 36 17 101 50 117 77 187 81 215 4 28 3 29 -10 11 -13 -18 -15 -17
-25 20 -6 22 -11 48 -11 57 0 9 -5 40 -11 68 -8 36 -15 50 -27 49 -11 0 -12
-2 -4 -6 6 -2 12 -14 11 -26 0 -21 -1 -21 -9 -2 -5 12 -7 -5 -3 -45 3 -36 3
-63 0 -60 -3 3 -8 35 -12 72 -6 57 -4 69 9 74 9 3 16 15 16 26 0 10 -4 16 -10
13 -6 -3 -7 1 -4 10 4 8 3 32 -1 53 -4 20 -10 31 -12 24 -3 -6 -9 -10 -14 -7
-5 4 -6 -1 -3 -9 3 -9 10 -16 15 -16 5 0 9 -8 9 -17 0 -16 -2 -16 -11 -3 -7
11 -9 4 -5 -27 3 -26 1 -43 -5 -43 -6 0 -9 8 -8 18 5 28 -11 73 -22 66 -8 -4
-9 1 -4 16 6 17 4 21 -6 14 -12 -6 -12 -5 0 9 9 12 10 17 2 17 -7 0 -10 4 -7
9 3 5 0 14 -8 20 -10 9 -15 8 -20 -4 -8 -22 -33 -18 -39 7 -8 30 10 50 33 38
11 -6 21 -5 27 1 6 6 19 12 29 13 13 2 18 10 16 27 -1 13 -3 36 -4 51 -1 24
-4 26 -22 16 -33 -18 -266 1 -266 21 0 4 35 1 78 -6 78 -14 168 -11 185 6 12
12 -10 182 -25 196 -7 7 -9 7 -5 0 3 -6 2 -26 -3 -45 l-8 -35 -2 35 c-2 37
-28 116 -29 88 -1 -19 -26 -18 -44 2 -10 12 -9 12 4 2 13 -10 18 -10 22 0 7
21 -18 39 -34 25 -11 -10 -11 -9 -1 4 6 9 8 20 4 24 -4 5 -1 4 7 0 11 -6 13
-4 8 7 -3 9 0 21 6 27 9 9 8 11 -5 6 -11 -5 -18 -2 -18 6 0 7 -3 9 -6 6 -4 -3
-16 -2 -26 4 -15 8 -17 14 -9 22 6 6 11 16 11 21 0 6 -5 4 -11 -4 -9 -13 -10
-13 -6 0 2 8 13 14 23 12 18 -2 18 -2 0 13 -11 8 -14 15 -7 15 7 0 9 5 6 10
-3 6 -1 10 4 10 7 0 6 11 -2 32 -8 21 -20 33 -32 33 -10 0 -20 7 -22 15 -4 13
-3 13 6 0 9 -13 12 -13 23 -1 10 10 10 12 1 7 -7 -4 -13 -2 -13 3 0 6 -7 11
-15 11 -8 0 -15 7 -15 16 0 9 5 12 12 8 7 -4 8 -3 4 5 -4 6 -11 9 -16 6 -4 -3
-11 2 -14 11 -3 8 -2 13 2 11 4 -3 12 0 18 7 12 13 -17 71 -31 58 -4 -4 -2 3
4 16 7 12 17 20 23 16 7 -4 8 2 3 17 -4 13 -12 26 -16 27 -5 2 -9 8 -9 13 0
19 28 -4 55 -46 15 -25 30 -45 32 -45 2 0 -13 32 -32 70 -19 39 -33 70 -30 70
2 0 12 -15 21 -32 16 -30 18 -31 25 -13 14 37 9 91 -16 163 -14 39 -25 79 -25
87 0 15 2 15 22 1 32 -23 48 -20 46 8 -2 21 -8 24 -60 30 -32 3 -91 20 -131
37 -80 35 -161 41 -314 26 -52 -6 -94 -5 -115 1 -39 12 -491 22 -528 12z
m1064 -198 c17 -79 13 -133 -6 -98 -5 9 -12 29 -14 44 -3 15 -14 47 -25 72
-17 38 -18 48 -7 68 11 21 14 22 24 8 6 -9 19 -51 28 -94z m-1734 88 c0 -5 -4
-10 -9 -10 -6 0 -13 5 -16 10 -3 6 1 10 9 10 9 0 16 -4 16 -10z m184 -41 c14
-7 28 -18 31 -27 4 -12 3 -12 -9 -3 -10 8 -16 9 -21 1 -3 -5 -2 -10 3 -10 10
0 42 -65 42 -86 0 -8 -5 -12 -10 -9 -6 4 -7 11 -4 17 4 7 2 8 -4 4 -8 -5 -12
2 -12 18 0 14 -9 35 -19 45 -18 18 -18 20 -3 26 14 5 13 9 -8 20 -30 17 -21
19 14 4z m-56 -56 c-6 -7 -14 -11 -18 -8 -14 9 -20 -26 -8 -48 7 -12 11 -26 9
-32 -1 -5 3 -5 10 2 10 10 15 9 25 -5 11 -16 13 -16 32 1 17 16 20 16 32 2 32
-39 -79 -80 -116 -43 -13 13 -13 15 3 15 10 0 21 -5 25 -11 5 -7 8 -4 8 8 0
13 -5 17 -20 13 -31 -8 -51 18 -43 56 3 18 10 34 15 35 5 2 3 11 -4 20 -11 13
-11 14 1 7 11 -6 13 -4 8 7 -3 9 0 21 6 27 16 16 50 -28 35 -46z m-1887 -16
c-13 -13 -15 11 -4 40 7 16 8 15 11 -6 2 -13 -1 -28 -7 -34z m2439 28 c14 -19
14 -19 -2 -6 -10 7 -18 18 -18 24 0 6 1 8 3 6 1 -2 9 -13 17 -24z m48 -20 c-3
-3 -9 2 -12 12 -6 14 -5 15 5 6 7 -7 10 -15 7 -18z m-556 -10 c-2 -12 1 -15
10 -9 8 5 6 -2 -4 -18 -12 -19 -14 -28 -6 -30 7 -3 5 -7 -6 -11 -9 -4 -15 -3
-12 2 3 5 -1 11 -9 15 -23 8 -19 47 6 53 16 5 18 8 7 15 -10 8 -10 9 2 5 8 -2
14 -12 12 -22z m-775 -65 c0 -21 -3 -38 -6 -35 -5 3 -7 61 -2 73 5 11 8 -4 8
-38z m1303 -15 c0 -5 -5 -3 -10 5 -5 8 -10 20 -10 25 0 6 5 3 10 -5 5 -8 10
-19 10 -25z m-1435 -6 c-3 -12 -7 -24 -10 -27 -3 -3 -3 5 -1 19 6 30 5 29 10
29 3 0 3 -10 1 -21z m79 -7 c3 -5 -1 -9 -9 -9 -8 0 -12 4 -9 9 3 4 7 8 9 8 2
0 6 -4 9 -8z m631 -2 c3 -5 1 -10 -4 -10 -6 0 -11 5 -11 10 0 6 2 10 4 10 3 0
8 -4 11 -10z m-650 -29 c3 -5 2 -12 -3 -15 -5 -3 -9 1 -9 9 0 17 3 19 12 6z
m71 -16 c1 -8 -3 -18 -8 -22 -6 -3 -8 -1 -4 5 3 6 2 13 -4 17 -6 4 -8 11 -4
16 7 12 17 4 20 -16z m2060 -20 c-13 -14 -15 -13 -13 4 0 11 5 17 9 15 4 -3 9
3 9 13 1 17 2 17 6 1 2 -10 -2 -25 -11 -33z m-2199 3 c-3 -7 -5 -2 -5 12 0 14
2 19 5 13 2 -7 2 -19 0 -25z m2151 -8 c-1 -22 -5 -29 -15 -26 -9 4 -11 1 -7
-5 4 -7 1 -10 -7 -7 -23 8 -23 38 0 38 12 0 21 6 21 15 0 8 2 15 4 15 3 0 4
-14 4 -30z m-131 -12 c-3 -7 -5 -2 -5 12 0 14 2 19 5 13 2 -7 2 -19 0 -25z
m43 22 c0 -5 -2 -10 -4 -10 -3 0 -8 5 -11 10 -3 6 -1 10 4 10 6 0 11 -4 11
-10z m-1995 -19 c3 -5 2 -12 -3 -15 -5 -3 -9 1 -9 9 0 17 3 19 12 6z m2172 -5
c-3 -7 -1 -18 5 -24 7 -7 6 -10 -6 -8 -9 1 -16 6 -15 12 3 16 11 34 16 34 3 0
3 -6 0 -14z m-1951 -14 c-16 -2 -32 0 -37 5 -5 5 7 7 29 4 34 -5 35 -6 8 -9z
m1161 -14 c-3 -7 -5 -2 -5 12 0 14 2 19 5 13 2 -7 2 -19 0 -25z m849 20 c4 -7
4 -10 -1 -6 -4 4 -15 2 -24 -5 -14 -11 -14 -10 -2 6 16 20 18 21 27 5z m-341
-8 c3 -5 1 -10 -4 -10 -6 0 -11 5 -11 10 0 6 2 10 4 10 3 0 8 -4 11 -10z m382
-27 c-3 -10 -5 -4 -5 12 0 17 2 24 5 18 2 -7 2 -21 0 -30z m-1152 17 c-3 -5
-12 -10 -18 -10 -7 0 -6 4 3 10 19 12 23 12 15 0z m875 -21 c0 -5 -7 -6 -15
-3 -8 4 -15 13 -15 21 0 13 3 13 15 3 8 -7 15 -16 15 -21z m-1933 -11 c-3 -8
-6 -5 -6 6 -1 11 2 17 5 13 3 -3 4 -12 1 -19z m189 10 c3 -4 -1 -5 -10 -4 -8
1 -18 5 -22 8 -3 4 1 5 10 4 8 -1 18 -5 22 -8z m424 2 c0 -5 -5 -10 -11 -10
-5 0 -7 5 -4 10 3 6 8 10 11 10 2 0 4 -4 4 -10z m-1487 -7 c-7 -2 -19 -2 -25
0 -7 3 -2 5 12 5 14 0 19 -2 13 -5z m50 0 c-7 -2 -19 -2 -25 0 -7 3 -2 5 12 5
14 0 19 -2 13 -5z m122 -13 c3 -5 1 -10 -4 -10 -6 0 -11 5 -11 10 0 6 2 10 4
10 3 0 8 -4 11 -10z m2570 0 c3 -5 1 -10 -4 -10 -6 0 -11 5 -11 10 0 6 2 10 4
10 3 0 8 -4 11 -10z m285 -10 c0 -5 -2 -10 -4 -10 -3 0 -8 5 -11 10 -3 6 -1
10 4 10 6 0 11 -4 11 -10z m68 -15 c-3 -3 -9 2 -12 12 -6 14 -5 15 5 6 7 -7
10 -15 7 -18z m123 4 c8 -16 8 -20 -1 -17 -6 2 -11 7 -10 12 1 5 -4 13 -12 17
-9 6 -9 9 -1 9 7 0 17 -10 24 -21z m-1691 1 c0 -5 -10 -10 -22 -10 -19 0 -20
2 -8 10 19 13 30 13 30 0z m37 4 c-3 -3 -12 -4 -19 -1 -8 3 -5 6 6 6 11 1 17
-2 13 -5z m1120 -1 c-4 -3 -1 -13 6 -22 11 -14 10 -14 -5 -2 -16 12 -16 31 -1
31 4 0 3 -3 0 -7z m373 -3 c0 -5 -5 -10 -11 -10 -5 0 -7 5 -4 10 3 6 8 10 11
10 2 0 4 -4 4 -10z m-449 -17 c13 -16 12 -17 -3 -4 -10 7 -18 15 -18 17 0 8 8
3 21 -13z m12 -266 c26 -36 79 -95 119 -132 57 -53 63 -61 27 -36 -80 56 -196
208 -257 336 -62 130 -53 132 11 3 30 -58 75 -135 100 -171z m-2470 248 c-3
-9 -8 -14 -10 -11 -3 3 -2 9 2 15 9 16 15 13 8 -4z m2781 -26 c-3 -6 -7 -9 -8
-7 -1 2 -8 12 -16 22 -14 18 -14 19 8 7 12 -7 20 -17 16 -22z m106 11 c6 -11
15 -18 19 -15 5 2 8 -3 7 -12 0 -10 4 -18 11 -18 17 0 26 -12 18 -25 -5 -8
-14 -2 -29 16 -11 15 -31 38 -43 51 -16 16 -18 23 -8 23 8 0 19 -9 25 -20z
m-205 0 c-3 -5 -12 -10 -18 -10 -7 0 -6 4 3 10 19 12 23 12 15 0z m60 -10 c10
-11 13 -20 7 -20 -6 0 -16 9 -22 20 -6 11 -9 20 -7 20 2 0 12 -9 22 -20z m105
-3 c11 -16 11 -18 -1 -15 -18 4 -29 19 -22 31 3 4 6 7 7 5 1 -2 8 -11 16 -21z
m-2986 5 c2 -4 -10 -8 -27 -9 -30 -1 -30 -1 -7 7 14 4 26 8 27 9 1 1 4 -3 7
-7z m2446 -24 c0 -12 -3 -18 -7 -14 -10 10 -11 46 -1 40 4 -3 8 -15 8 -26z
m-2320 12 c0 -5 -5 -10 -11 -10 -5 0 -7 5 -4 10 3 6 8 10 11 10 2 0 4 -4 4
-10z m2977 -12 c-3 -8 -6 -5 -6 6 -1 11 2 17 5 13 3 -3 4 -12 1 -19z m24 -1
c-10 -9 -11 -8 -5 6 3 10 9 15 12 12 3 -3 0 -11 -7 -18z m-958 -18 c-9 -9 -12
-7 -10 9 1 14 5 18 11 12 7 -7 6 -14 -1 -21z m687 21 c0 -5 -2 -10 -4 -10 -3
0 -8 5 -11 10 -3 6 -1 10 4 10 6 0 11 -4 11 -10z m99 -4 c10 -12 9 -14 -5 -12
-10 2 -20 8 -22 14 -5 17 13 15 27 -2z m-2506 -11 c-3 -9 -8 -14 -10 -11 -3 3
-2 9 2 15 9 16 15 13 8 -4z m1834 9 c-3 -3 -12 -4 -19 -1 -8 3 -5 6 6 6 11 1
17 -2 13 -5z m763 -66 c0 -4 -7 -4 -17 -1 -10 4 -14 2 -9 -5 13 -21 -16 -24
-30 -3 -18 25 -34 27 -34 5 0 -8 -4 -13 -9 -9 -19 11 -23 -17 -5 -32 13 -10
10 -10 -10 2 -21 12 -30 14 -36 6 -5 -9 -11 -7 -20 4 -7 9 -9 15 -4 13 5 -1
19 4 32 11 22 12 22 14 8 30 -20 22 -21 41 -1 41 13 0 19 -10 17 -30 0 -3 8
-7 19 -7 11 -1 17 3 13 9 -4 6 -1 9 7 6 8 -3 14 -11 14 -19 0 -18 37 -18 43 0
3 8 0 11 -6 7 -12 -7 -21 13 -14 33 3 9 11 2 23 -20 10 -19 18 -37 19 -41z
m155 62 c3 -5 1 -10 -4 -10 -6 0 -11 5 -11 10 0 6 2 10 4 10 3 0 8 -4 11 -10z
m-45 -12 c0 7 5 10 11 6 8 -4 7 -9 -2 -16 -10 -7 -11 -11 -3 -14 13 -5 7 -44
-7 -44 -5 0 -6 8 -2 18 6 15 3 14 -17 -3 -13 -11 -20 -14 -16 -7 6 11 -5 17
-26 13 -15 -2 -8 17 8 23 8 3 12 10 9 16 -3 5 -1 10 6 10 6 0 9 -8 6 -20 -3
-11 -2 -22 3 -25 11 -7 20 22 14 43 -5 14 -4 15 5 2 8 -11 11 -12 11 -2z
m-3037 -28 c-3 -11 -9 -20 -15 -20 -5 0 -4 9 2 20 6 11 12 20 14 20 2 0 2 -9
-1 -20z m2376 -35 c-3 -2 -16 10 -29 28 l-23 32 29 -27 c15 -15 26 -30 23 -33z
m401 29 c0 -8 -6 -11 -15 -8 -8 4 -15 1 -15 -5 0 -6 -7 -11 -15 -11 -21 0 -19
38 3 42 24 6 42 -2 42 -18z m308 -9 c-3 -3 -9 2 -12 12 -6 14 -5 15 5 6 7 -7
10 -15 7 -18z m-3242 -17 c4 -7 3 -8 -4 -4 -7 4 -12 2 -12 -3 0 -10 22 -16 43
-12 5 1 6 -3 3 -7 -8 -13 -56 -2 -56 12 0 12 9 26 16 26 2 0 6 -5 10 -12z
m2409 2 c3 -5 1 -10 -4 -10 -6 0 -11 5 -11 10 0 6 2 10 4 10 3 0 8 -4 11 -10z
m30 0 c3 -5 1 -10 -4 -10 -6 0 -11 5 -11 10 0 6 2 10 4 10 3 0 8 -4 11 -10z
m353 -25 c-3 -3 -9 2 -12 12 -6 14 -5 15 5 6 7 -7 10 -15 7 -18z m42 15 c0 -5
-2 -10 -4 -10 -3 0 -8 5 -11 10 -3 6 -1 10 4 10 6 0 11 -4 11 -10z m270 -63
c-34 -32 -40 -25 -10 13 11 14 20 34 20 45 1 17 3 17 11 -5 8 -21 5 -28 -21
-53z m187 54 c0 -11 -5 -17 -9 -15 -5 3 -6 9 -3 14 3 4 -1 11 -7 13 -8 4 -7 6
4 6 11 1 16 -6 15 -18z m-3330 -13 c-3 -8 -6 -5 -6 6 -1 11 2 17 5 13 3 -3 4
-12 1 -19z m3063 6 c0 -8 -4 -12 -10 -9 -5 3 -10 10 -10 16 0 5 5 9 10 9 6 0
10 -7 10 -16z m164 2 c20 5 30 1 45 -17 19 -23 19 -24 -1 -38 -18 -12 -19 -15
-4 -23 9 -5 16 -13 16 -18 0 -6 -9 -2 -20 7 -20 18 -29 50 -10 38 6 -3 10 3
10 15 0 25 -29 38 -41 19 -10 -16 -39 -3 -48 22 -3 12 -2 12 11 1 10 -8 26
-10 42 -6z m-94 -14 c0 -8 -6 -12 -15 -8 -13 5 -19 -5 -16 -26 0 -4 -6 -5 -14
-2 -8 4 -15 14 -15 23 0 14 2 14 10 1 8 -12 10 -11 10 7 0 16 6 21 20 20 11
-1 20 -8 20 -15z m-3175 -2 c-3 -5 -12 -10 -18 -10 -7 0 -6 4 3 10 19 12 23
12 15 0z m2975 0 c0 -5 -2 -10 -4 -10 -3 0 -8 5 -11 10 -3 6 -1 10 4 10 6 0
11 -4 11 -10z m-2765 -40 c-9 -41 -17 -33 -9 9 4 17 9 30 11 27 3 -2 2 -19 -2
-36z m2336 13 c13 -16 12 -17 -3 -4 -10 7 -18 15 -18 17 0 8 8 3 21 -13z
m-2436 -3 c-3 -5 -1 -10 5 -10 6 0 8 -5 4 -11 -4 -8 -9 -7 -15 2 -12 19 -11
29 2 29 5 0 7 -4 4 -10z m2539 -6 c3 -8 2 -12 -4 -9 -6 3 -10 10 -10 16 0 14
7 11 14 -7z m621 -4 c-3 -5 -10 -10 -16 -10 -5 0 -9 5 -9 10 0 6 7 10 16 10 8
0 12 -4 9 -10z m-60 -20 c-3 -5 -1 -10 4 -10 6 0 11 -5 11 -11 0 -8 -5 -8 -15
1 -13 11 -12 30 1 30 3 0 2 -4 -1 -10z m-3392 -25 c-3 -9 -8 -14 -10 -11 -3 3
-2 9 2 15 9 16 15 13 8 -4z m3553 -30 c-6 -13 -13 -20 -14 -15 -2 6 -7 8 -12
5 -4 -3 -14 3 -21 12 -13 15 -11 16 13 10 23 -6 26 -5 20 16 -5 19 -3 20 10 9
13 -10 14 -17 4 -37z m-3170 20 c-1 -8 -5 -17 -8 -21 -5 -4 -4 16 1 34 3 9 9
-1 7 -13z m1480 -17 c3 -4 -1 -5 -10 -4 -8 1 -18 5 -22 8 -3 4 1 5 10 4 8 -1
18 -5 22 -8z m9 -36 c-3 -3 -11 0 -18 7 -9 10 -8 11 6 5 10 -3 15 -9 12 -12z
m1688 -9 c-6 -16 -5 -17 12 -3 17 14 17 14 4 -8 -8 -12 -15 -18 -17 -12 -2 6
-8 8 -13 4 -13 -7 -7 19 6 28 14 11 15 10 8 -9z m-3276 -15 c-3 -8 -6 -5 -6 6
-1 11 2 17 5 13 3 -3 4 -12 1 -19z m286 -53 c-10 -13 -22 -25 -27 -25 -5 0 1
11 14 25 30 32 36 32 13 0z m3091 -7 c-2 -4 0 -9 6 -13 13 -8 13 -25 -1 -25
-5 0 -8 4 -4 9 9 16 -15 23 -33 10 -9 -7 -14 -9 -10 -5 4 5 4 14 -1 20 -6 8 0
11 19 11 15 0 26 -3 24 -7z m-410 -137 c-4 -4 -132 67 -138 78 -3 5 27 -10 68
-33 41 -22 72 -43 70 -45z m383 59 c-1 -11 -5 -20 -9 -20 -10 0 -10 4 -2 24 8
22 13 20 11 -4z m29 -7 c-10 -10 -19 5 -10 18 6 11 8 11 12 0 2 -7 1 -15 -2
-18z m41 -55 c-3 -7 -5 -2 -5 12 0 14 2 19 5 13 2 -7 2 -19 0 -25z m-3331 7
c-11 -8 -25 -15 -30 -15 -6 1 0 7 14 15 32 19 40 18 16 0z m-46 -15 c0 -5 -5
-10 -11 -10 -5 0 -7 5 -4 10 3 6 8 10 11 10 2 0 4 -4 4 -10z m-35 -10 c-3 -5
-14 -10 -23 -9 -14 0 -13 2 3 9 27 11 27 11 20 0z m-48 -16 c-3 -3 -12 -4 -19
-1 -8 3 -5 6 6 6 11 1 17 -2 13 -5z m-44 -11 c-7 -2 -19 -2 -25 0 -7 3 -2 5
12 5 14 0 19 -2 13 -5z m-60 -10 c-7 -2 -21 -2 -30 0 -10 3 -4 5 12 5 17 0 24
-2 18 -5z m-65 -10 c-10 -2 -26 -2 -35 0 -10 3 -2 5 17 5 19 0 27 -2 18 -5z
m-75 -10 c-7 -2 -21 -2 -30 0 -10 3 -4 5 12 5 17 0 24 -2 18 -5z m-120 -10
c-7 -2 -19 -2 -25 0 -7 3 -2 5 12 5 14 0 19 -2 13 -5z m3794 -65 c-3 -7 -5 -2
-5 12 0 14 2 19 5 13 2 -7 2 -19 0 -25z m20 0 c-3 -7 -5 -2 -5 12 0 14 2 19 5
13 2 -7 2 -19 0 -25z m52 10 c0 -13 -3 -17 -6 -9 -4 10 -7 10 -13 1 -5 -8 -9
-5 -13 9 -4 16 0 21 14 21 13 0 19 -7 18 -22z m-68 -231 c-10 -9 -11 -8 -5 6
3 10 9 15 12 12 3 -3 0 -11 -7 -18z m69 -16 c0 -11 5 -23 10 -26 15 -9 12 -25
-5 -25 -8 0 -15 6 -15 13 0 6 -3 22 -6 35 -4 13 -2 22 5 22 6 0 11 -9 11 -19z
m-33 -13 c-3 -8 -6 -5 -6 6 -1 11 2 17 5 13 3 -3 4 -12 1 -19z m-4 -52 c-3 -4
-9 -2 -14 5 -13 22 -11 31 5 17 8 -7 12 -17 9 -22z m56 -29 c0 -9 -2 -8 -6 1
-2 6 -10 9 -15 6 -7 -4 -8 -2 -4 5 9 13 26 5 25 -12z m-3762 -424 c-3 -10 -5
-2 -5 17 0 19 2 27 5 18 2 -10 2 -26 0 -35z m-194 -35 c5 -21 5 -21 -7 -6 -7
10 -17 14 -21 10 -5 -4 -5 -1 -1 6 11 19 23 14 29 -10z m4216 -25 c-2 -46 -2
-47 -8 -13 -4 19 -5 41 -3 48 8 24 12 11 11 -35z m191 -64 c0 -5 -12 -8 -26
-7 -21 2 -23 4 -10 14 9 6 12 15 8 20 -4 4 1 2 11 -5 9 -7 17 -17 17 -22z
m-228 -15 c-3 -18 -7 -22 -13 -13 -4 7 -3 19 3 26 15 18 16 17 10 -13z m218
-44 c-24 -15 -37 -11 -16 5 11 8 22 12 25 9 3 -3 -1 -9 -9 -14z m-74 -95 c17
-17 21 -201 5 -247 -7 -21 -9 -43 -5 -49 4 -8 3 -9 -4 -5 -11 7 -14 3 -16 -26
-1 -7 -4 -16 -9 -19 -4 -3 -9 -26 -11 -52 -2 -31 -12 -56 -29 -76 -14 -17 -27
-36 -30 -43 -8 -24 -15 -4 -27 77 -51 365 -52 377 -35 421 l16 42 67 -6 c36
-3 72 -10 78 -17z m-309 -51 c-3 -3 -12 -4 -19 -1 -8 3 -5 6 6 6 11 1 17 -2
13 -5z m-3924 -60 c-3 -9 -1 -19 6 -23 6 -4 -5 -8 -25 -8 -33 0 -35 2 -18 14
10 7 14 13 10 13 -4 0 -4 5 -1 10 10 17 35 12 28 -6z m-493 -59 c0 -5 -5 -3
-10 5 -5 8 -10 20 -10 25 0 6 5 3 10 -5 5 -8 10 -19 10 -25z m583 -20 c-2 -16
-4 -36 -5 -43 -2 -17 -85 -13 -100 6 -9 11 -7 12 15 7 16 -4 27 -3 27 3 0 6 8
13 18 15 9 3 -8 6 -38 7 -47 2 -51 3 -25 10 17 4 26 9 20 10 -15 4 47 18 70
16 16 -1 20 -7 18 -31z m3864 -12 c27 -18 27 -18 4 -21 -12 -2 -30 0 -39 4
-18 8 -28 11 -50 13 -7 0 -10 5 -7 11 3 6 -1 7 -9 4 -9 -4 -16 -1 -16 6 0 18
82 5 117 -17z m-3840 -35 c-3 -7 -5 -2 -5 12 0 14 2 19 5 13 2 -7 2 -19 0 -25z
m-583 6 c3 -8 2 -12 -4 -9 -6 3 -10 10 -10 16 0 14 7 11 14 -7z m596 -89 c0
-80 -21 -107 -85 -104 -48 3 -67 8 -60 19 3 4 -2 11 -11 14 -10 4 -13 2 -8 -7
5 -8 4 -9 -3 -2 -20 21 -45 104 -35 121 7 13 11 14 23 2 15 -14 52 -21 44 -8
-7 11 71 21 102 14 18 -5 24 -4 19 5 -4 6 -2 11 3 11 7 0 11 -26 11 -65z
m3743 -12 c-7 -2 -21 -2 -30 0 -10 3 -4 5 12 5 17 0 24 -2 18 -5z m446 -102
c10 -7 7 -9 -12 -8 -14 1 -23 5 -20 10 6 9 15 9 32 -2z m-994 -19 c-3 -3 -11
0 -18 7 -9 10 -8 11 6 5 10 -3 15 -9 12 -12z m890 -13 c4 -6 14 -8 24 -4 13 5
14 4 4 -6 -18 -18 -16 -34 2 -19 13 11 14 10 10 -1 -3 -8 -15 -20 -27 -28 -18
-11 -20 -11 -15 3 4 10 1 16 -7 16 -14 0 -28 35 -18 44 8 9 20 7 27 -5z
m-4561 -35 c5 -14 4 -15 -9 -4 -17 14 -19 20 -6 20 5 0 12 -7 15 -16z m4697
-21 c13 -16 12 -17 -3 -4 -17 13 -22 21 -14 21 2 0 10 -8 17 -17z m-4649 -28
c11 -24 21 -30 43 -25 5 1 7 -2 3 -6 -4 -4 2 -21 13 -38 15 -21 7 -16 -22 15
-62 66 -72 79 -59 79 6 0 16 -11 22 -25z m-169 -9 c3 -8 0 -17 -7 -19 -10 -4
-12 1 -9 14 6 23 9 24 16 5z m4617 1 c0 21 46 11 47 -10 2 -15 -1 -16 -13 -7
-11 10 -14 9 -14 -2 0 -8 5 -19 12 -26 9 -9 8 -12 -4 -12 -11 0 -15 -6 -11
-20 5 -18 -5 -25 -30 -21 -14 2 -34 -24 -29 -39 3 -8 2 -12 -2 -8 -4 3 -21 -8
-38 -24 -31 -31 -32 -31 -40 -9 -4 13 -13 19 -19 15 -16 -9 8 35 34 64 14 15
27 20 40 16 16 -5 19 -3 14 10 -4 9 -2 16 4 16 6 0 9 6 6 14 -3 8 1 17 9 20 8
3 14 13 14 23 0 15 2 16 10 3 6 -10 10 -11 10 -3z m334 -33 c3 -8 2 -12 -4 -9
-6 3 -10 10 -10 16 0 14 7 11 14 -7z m16 -49 c0 -7 -30 -13 -34 -7 -3 4 4 9
15 9 10 1 19 0 19 -2z m-4873 -59 c-3 -7 0 -20 6 -27 7 -7 2 -5 -10 5 -22 18
-22 36 -1 36 5 0 8 -6 5 -14z m217 -32 c3 -8 2 -12 -4 -9 -6 3 -10 10 -10 16
0 14 7 11 14 -7z m4184 -61 c-1 -15 -7 -31 -13 -36 -5 -4 9 -6 33 -5 32 1 53
10 82 35 21 18 42 33 46 33 14 0 -32 -43 -81 -75 -27 -18 -59 -41 -70 -52 -16
-15 -24 -17 -40 -9 -46 25 -47 26 -32 49 8 12 13 37 11 55 -2 26 3 35 24 46
32 17 43 5 40 -41z m-4133 35 c5 4 5 1 1 -6 -6 -10 -11 -10 -22 -1 -8 6 -14
14 -14 16 0 3 6 0 13 -6 8 -6 18 -7 22 -3z m3479 -236 c3 -5 -1 -9 -9 -9 -8 0
-12 4 -9 9 3 4 7 8 9 8 2 0 6 -4 9 -8z m-3271 -57 c-3 -9 -8 -14 -10 -11 -3 3
-2 9 2 15 9 16 15 13 8 -4z m3420 -23 c15 -16 15 -19 2 -19 -8 0 -13 3 -10 5
3 3 0 11 -6 19 -17 20 -5 16 14 -5z m52 -22 c10 -11 16 -20 13 -20 -3 0 -13 9
-23 20 -10 11 -16 20 -13 20 3 0 13 -9 23 -20z m-41 -18 c3 -5 -1 -9 -9 -9 -8
0 -12 4 -9 9 3 4 7 8 9 8 2 0 6 -4 9 -8z m140 -8 c11 -28 6 -34 -13 -17 -11 9
-18 20 -15 25 8 13 21 9 28 -8z m-128 -85 c1 -16 -3 -29 -8 -29 -6 0 -7 7 -4
16 3 8 2 12 -3 9 -5 -3 -13 0 -17 6 -4 8 -3 9 4 5 11 -7 17 7 12 29 -1 6 2 6
7 2 4 -5 8 -22 9 -38z m49 17 c0 -12 4 -28 9 -36 10 -13 9 -13 -6 -1 -10 7
-15 17 -12 23 3 5 1 15 -5 22 -8 9 -7 13 3 13 7 0 12 -10 11 -21z m-3525 -7
c-7 -11 -9 -23 -6 -26 3 -3 -2 -12 -10 -20 -8 -8 -12 -19 -9 -24 4 -5 2 -9 -3
-9 -5 0 -9 -10 -8 -22 1 -13 -4 -29 -11 -36 -7 -7 -13 -27 -13 -43 0 -16 -4
-29 -9 -29 -9 0 12 117 31 165 11 28 36 65 45 65 2 0 -1 -9 -7 -21z m3315 2
c3 -5 2 -12 -3 -15 -5 -3 -9 1 -9 9 0 17 3 19 12 6z m126 -28 c13 -16 12 -17
-3 -4 -17 13 -22 21 -14 21 2 0 10 -8 17 -17z m-3507 -12 c-10 -10 -21 -16
-24 -14 -3 3 4 11 14 19 28 20 33 17 10 -5z m3591 -10 c3 -5 2 -12 -3 -15 -5
-3 -9 1 -9 9 0 17 3 19 12 6z m124 -9 c8 -14 6 -19 -5 -19 -7 0 -12 3 -9 5 3
3 0 11 -6 19 -8 9 -8 13 -1 13 6 0 16 -8 21 -18z m-359 -16 c-7 -7 -13 -7 -20
0 -6 6 -3 10 10 10 13 0 16 -4 10 -10z m-3280 -16 c0 -11 -2 -20 -4 -20 -2 0
-6 9 -9 20 -3 11 -1 20 4 20 5 0 9 -9 9 -20z m3684 -89 c8 -43 -3 -35 -14 11
-20 79 -21 85 -6 53 7 -16 16 -45 20 -64z m-3681 46 c3 -8 2 -20 -3 -26 -5 -9
-7 -4 -7 13 0 29 2 32 10 13z m-6 -69 c-3 -8 -6 -5 -6 6 -1 11 2 17 5 13 3 -3
4 -12 1 -19z m3699 -54 c3 -16 2 -26 -1 -23 -3 4 -8 19 -11 35 -3 16 -2 26 1
23 3 -4 8 -19 11 -35z m-3781 6 c-3 -5 0 -10 7 -10 10 0 10 -2 -1 -9 -8 -5
-11 -20 -9 -37 3 -16 3 -23 1 -16 -3 7 -9 9 -15 6 -7 -4 -8 5 -3 27 8 37 13
49 21 49 3 0 2 -4 -1 -10z m80 -157 c-6 -264 -26 -454 -30 -280 0 34 4 68 9
76 9 11 8 13 -2 7 -11 -7 -12 -4 -3 13 7 11 9 21 6 21 -4 0 -4 4 0 10 3 5 7
71 9 147 4 153 4 153 10 153 3 0 3 -66 1 -147z m-105 47 c-10 -35 -4 -40 11
-7 9 21 9 21 4 -3 -2 -14 -5 -32 -5 -41 0 -20 -27 -20 -33 0 -3 15 18 81 27
81 3 0 1 -13 -4 -30z m3825 -32 c1 -12 6 -32 10 -43 6 -19 6 -20 -6 -1 -12 20
-24 84 -13 74 3 -4 7 -17 9 -30z m415 -28 c0 -5 -2 -10 -4 -10 -3 0 -8 5 -11
10 -3 6 -1 10 4 10 6 0 11 -4 11 -10z m61 -7 c13 -16 12 -17 -3 -4 -10 7 -18
15 -18 17 0 8 8 3 21 -13z m-285 -41 c-4 -3 -14 2 -24 12 -16 18 -16 18 6 6
13 -6 21 -14 18 -18z m-136 -28 c0 9 30 -13 30 -23 0 -3 -13 -6 -30 -6 -16 0
-29 2 -28 5 1 3 -4 15 -10 26 -16 30 -1 39 20 12 10 -13 18 -19 18 -14z m-153
-41 c-2 -16 -4 -5 -4 22 0 28 2 40 4 28 2 -13 2 -35 0 -50z m363 37 c0 -5 -13
-10 -29 -10 -16 0 -38 -3 -48 -7 -10 -3 -15 -3 -11 2 4 4 22 11 40 15 47 11
48 11 48 0z m150 -102 c5 -15 5 -28 0 -28 -10 0 -19 23 -35 90 -6 23 -5 23 11
-4 9 -16 20 -42 24 -58z m15 52 c3 -5 1 -10 -4 -10 -6 0 -11 5 -11 10 0 6 2
10 4 10 3 0 8 -4 11 -10z m-4199 -37 c-2 -9 -9 -19 -17 -21 -12 -3 -12 -2 0 6
9 7 10 12 2 16 -6 4 -9 12 -5 17 8 14 23 1 20 -18z m3689 -62 c2 -34 0 -61 -3
-61 -4 0 -8 23 -10 52 -1 29 -5 62 -8 73 -5 16 -4 17 6 8 7 -6 14 -39 15 -72z
m310 59 c3 -5 1 -10 -4 -10 -6 0 -11 5 -11 10 0 6 2 10 4 10 3 0 8 -4 11 -10z
m-245 -28 c0 -4 -9 -8 -20 -9 -22 -2 -27 13 -7 20 14 5 27 -1 27 -11z m433
-37 c4 -8 3 -16 -1 -19 -4 -3 -9 4 -9 15 -2 23 3 25 10 4z m-54 -100 c0 -5 -6
1 -13 14 -10 17 -15 20 -18 10 -3 -8 -9 -11 -13 -7 -4 4 -1 13 6 21 12 13 16
12 26 -7 7 -11 12 -25 12 -31z m75 -27 c-3 -5 -1 -14 5 -21 6 -8 6 -18 1 -27
-10 -16 -11 -14 -15 36 -1 17 -5 37 -9 45 -4 8 -1 5 8 -5 8 -10 13 -23 10 -28z
m-510 10 c1 -7 8 -31 16 -53 13 -38 20 -244 12 -370 -4 -52 20 -213 38 -261
11 -28 27 -223 18 -214 -3 3 -9 41 -12 85 -4 44 -13 107 -21 140 -29 129 -36
197 -39 390 -2 110 -6 209 -9 220 -13 46 -19 90 -13 83 4 -3 9 -12 10 -20z
m-3667 -18 c1 -11 -2 -20 -7 -20 -6 0 -7 17 -1 38 3 8 7 -1 8 -18z m3788 10
c3 -5 1 -10 -4 -10 -6 0 -11 5 -11 10 0 6 2 10 4 10 3 0 8 -4 11 -10z m333
-15 c15 -32 15 -35 2 -35 -5 0 -10 8 -10 18 0 10 -5 23 -12 30 -7 7 -8 12 -2
12 6 0 16 -11 22 -25z m-4131 -70 c-2 -25 -7 -49 -12 -53 -4 -4 -5 11 -1 33 3
22 5 46 6 53 0 6 3 12 6 12 3 0 4 -20 1 -45z m3741 38 c-10 -2 -18 -9 -18 -14
0 -16 31 -23 40 -9 7 11 12 11 23 1 17 -14 47 -100 47 -133 -2 -91 -6 -127
-14 -135 -5 -5 -6 -3 -2 5 4 7 1 24 -8 37 -14 22 -14 24 2 28 15 4 15 5 1 6
-9 0 -23 -7 -30 -16 -10 -11 -10 -14 -1 -9 18 11 15 -5 -5 -21 -11 -8 -12 -11
-3 -7 13 7 13 5 1 -9 -7 -9 -17 -14 -22 -11 -5 3 -9 -1 -10 -8 0 -9 -2 -10 -5
-1 -3 7 0 22 7 34 10 19 9 21 -5 16 -17 -7 -22 8 -6 18 6 4 8 11 4 16 -10 18
-26 197 -18 210 3 5 13 8 22 8 15 -1 15 -2 0 -6z m459 -100 c2 -21 1 -34 -3
-30 -4 4 -8 23 -9 42 -4 47 7 36 12 -12z m-317 -48 c-4 -5 -6 -20 -4 -33 3
-16 0 -21 -8 -16 -7 5 -8 3 -2 -7 12 -20 14 -38 3 -45 -14 -8 -11 -54 4 -54 8
0 22 -9 32 -20 17 -18 17 -20 2 -14 -9 3 -17 11 -17 16 0 6 -7 8 -15 5 -8 -4
-17 -2 -20 4 -4 5 -12 6 -18 2 -8 -4 -7 -1 1 9 8 10 10 27 7 45 -5 19 -4 24 3
14 6 -8 12 -9 16 -3 3 6 2 13 -3 16 -8 5 -8 29 -1 131 0 6 7 -1 15 -15 7 -14
10 -29 5 -35z m393 -15 c3 -39 2 -55 -3 -40 -8 25 -13 117 -6 109 2 -2 6 -33
9 -69z m-4278 51 c3 -5 2 -12 -3 -15 -5 -3 -9 1 -9 9 0 17 3 19 12 6z m961
-47 c1 -9 0 -13 -4 -10 -3 4 -7 14 -8 22 -1 9 0 13 4 10 3 -4 7 -14 8 -22z
m3442 -15 c-3 -8 -7 -3 -11 10 -4 17 -3 21 5 13 5 -5 8 -16 6 -23z m-198 12
c0 -6 -4 -12 -8 -15 -5 -3 -9 1 -9 9 0 8 4 15 9 15 4 0 8 -4 8 -9z m-3305 -80
c3 -5 2 -12 -3 -15 -5 -3 -9 1 -9 9 0 17 3 19 12 6z m3299 -12 c-3 -5 -10 -7
-15 -3 -5 3 -7 10 -3 15 3 5 10 7 15 3 5 -3 7 -10 3 -15z m114 -26 c12 -24 20
-43 18 -43 -8 0 -46 67 -46 80 0 17 2 14 28 -37z m-514 -8 c-4 -8 -11 -15 -16
-15 -6 0 -5 6 2 15 7 8 14 15 16 15 2 0 1 -7 -2 -15z m86 -60 c0 -17 -2 -17
-10 -5 -8 13 -10 12 -11 -5 -1 -17 -2 -17 -6 -2 -2 9 -11 17 -19 17 -8 0 -14
3 -14 8 0 4 14 7 30 7 23 0 30 -4 30 -20z m23 -20 c-3 -9 3 -27 13 -43 12 -18
13 -23 3 -15 -12 10 -17 8 -26 -7 -9 -14 -9 -21 1 -29 7 -6 15 -9 17 -6 3 2 5
-5 5 -16 0 -16 -2 -18 -11 -7 -5 8 -17 12 -26 10 -9 -1 -20 8 -27 25 -11 24
-11 26 1 11 8 -10 18 -18 22 -18 5 0 5 3 2 6 -3 4 0 16 8 26 8 13 11 33 8 56
-4 24 -3 33 5 28 6 -4 9 -13 5 -21z m-30 -42 c1 -5 -10 -8 -25 -8 -15 -1 -24
3 -21 7 2 5 13 6 24 3 13 -4 18 -2 16 7 -2 7 -2 10 0 6 3 -4 5 -11 6 -15z
m-80 -10 c-5 -12 -3 -14 7 -8 9 5 11 4 6 -3 -12 -20 -26 -13 -24 12 1 14 6 22
10 20 4 -3 4 -12 1 -21z m-46 -25 c-3 -7 -5 -2 -5 12 0 14 2 19 5 13 2 -7 2
-19 0 -25z m20 0 c-3 -8 -6 -5 -6 6 -1 11 2 17 5 13 3 -3 4 -12 1 -19z m-3810
-10 c-3 -8 -6 -5 -6 6 -1 11 2 17 5 13 3 -3 4 -12 1 -19z m3780 -29 c-3 -10
-1 -22 4 -25 5 -3 9 6 9 20 0 14 4 26 8 26 5 0 7 -13 4 -28 -3 -20 0 -29 11
-29 11 0 13 9 10 34 -3 21 0 33 7 33 7 0 9 -8 5 -19 -3 -11 -1 -22 5 -26 6 -3
8 -10 5 -14 -2 -5 7 -7 21 -5 14 1 23 0 20 -3 -3 -3 1 -15 9 -27 19 -26 21
-56 3 -37 -7 6 -14 16 -14 22 -1 5 -2 14 -3 19 0 6 -5 10 -10 10 -5 0 -5 -15
-1 -34 4 -19 5 -38 1 -42 -3 -4 -1 -4 5 -1 7 4 14 0 18 -8 3 -9 12 -12 21 -8
11 4 13 8 5 13 -8 5 -8 14 0 34 13 34 13 39 0 31 -5 -3 -7 0 -4 8 3 8 1 18 -5
22 -15 9 -14 22 3 22 7 0 13 -7 12 -16 0 -9 5 -15 12 -13 8 1 11 -2 7 -8 -3
-5 0 -10 7 -10 8 0 9 -3 3 -8 -5 -4 -12 -23 -13 -42 -2 -19 -8 -36 -12 -38 -5
-2 -5 -15 1 -28 5 -14 9 -37 9 -52 0 -28 32 -86 42 -76 3 3 9 -8 13 -25 4 -17
11 -31 16 -31 6 0 7 -5 4 -10 -3 -6 1 -13 10 -16 9 -4 27 -30 42 -58 14 -28
34 -61 46 -73 l20 -23 -21 0 c-12 0 -22 6 -22 13 0 8 -4 7 -10 -3 -7 -11 -10
-6 -10 20 0 25 -3 31 -9 21 -8 -12 -13 -12 -35 3 -26 16 -37 34 -13 20 6 -4 3
2 -7 14 -11 12 -25 22 -32 22 -17 0 -46 29 -39 40 3 5 -8 14 -25 22 -18 7 -28
18 -25 26 3 7 0 10 -5 7 -17 -11 -51 -14 -45 -5 3 5 0 12 -6 15 -5 4 -8 13 -5
21 3 7 2 15 -2 18 -5 3 -9 23 -10 45 -2 22 -9 65 -18 97 -10 39 -11 61 -4 68
6 6 5 15 -6 27 -18 20 -29 83 -13 73 6 -3 9 -15 6 -25z m228 11 c-3 -5 -1 -10
6 -10 7 0 10 -3 6 -6 -9 -9 -28 6 -22 17 4 5 8 9 11 9 3 0 2 -4 -1 -10z m-275
-25 c0 -14 -3 -25 -7 -25 -5 0 -8 11 -8 25 0 14 3 25 8 25 4 0 7 -11 7 -25z
m675 5 c3 -5 1 -10 -4 -10 -6 0 -11 5 -11 10 0 6 2 10 4 10 3 0 8 -4 11 -10z
m-96 -14 c9 -10 7 -17 -6 -27 -16 -12 -17 -12 -6 2 10 12 10 18 1 27 -7 7 -9
12 -6 12 3 0 11 -6 17 -14z m-4323 -38 c-4 -24 -9 -65 -12 -93 -9 -74 -10 -74
-17 -81 -3 -4 -4 4 -2 17 2 13 7 51 10 84 6 70 15 115 22 115 2 0 2 -19 -1
-42z m4229 -19 c1 -16 -1 -32 -4 -34 -3 -1 -7 15 -8 38 -2 22 0 37 4 33 4 -3
7 -20 8 -37z m255 37 c0 -3 -4 -8 -10 -11 -5 -3 -10 -1 -10 4 0 6 5 11 10 11
6 0 10 -2 10 -4z m-65 -34 c-3 -3 -11 0 -18 7 -9 10 -8 11 6 5 10 -3 15 -9 12
-12z m-415 -22 c0 -5 -6 -10 -12 -10 -9 0 -8 -4 2 -11 11 -8 12 -12 2 -16 -6
-2 -10 -9 -7 -13 3 -5 2 -11 -3 -14 -7 -4 -8 22 -3 67 1 11 21 8 21 -3z m-449
-57 c13 -16 12 -17 -3 -4 -10 7 -18 15 -18 17 0 8 8 3 21 -13z m220 -25 c0
-24 2 -67 4 -95 2 -32 -1 -53 -7 -53 -7 0 -7 -4 0 -13 11 -13 11 -41 0 -52 -3
-3 -5 7 -4 22 1 20 -3 27 -14 25 -12 -3 -12 -1 -3 9 6 6 9 18 6 27 -5 11 -3
13 6 7 10 -6 11 -2 5 16 -8 27 -13 117 -6 137 8 23 13 12 13 -30z m359 2 c0
-5 -4 -10 -10 -10 -5 0 -10 5 -10 10 0 6 5 10 10 10 6 0 10 -4 10 -10z m87
-52 c-3 -7 -5 -2 -5 12 0 14 2 19 5 13 2 -7 2 -19 0 -25z m-860 -13 c0 -8 -4
-12 -9 -9 -5 3 -6 10 -3 15 9 13 12 11 12 -6z m-3390 -42 c-3 -10 -5 -4 -5 12
0 17 2 24 5 18 2 -7 2 -21 0 -30z m4033 13 c0 -11 -19 -15 -25 -6 -3 5 1 10 9
10 9 0 16 -2 16 -4z m-4050 -96 l-11 -25 6 25 c2 14 5 34 6 45 2 19 2 19 6 0
2 -12 -1 -32 -7 -45z m-418 -147 c-3 -16 -7 -22 -10 -15 -4 13 4 42 11 42 2 0
2 -12 -1 -27z m4385 -5 c-4 -14 -2 -18 9 -14 9 3 14 -1 14 -11 0 -9 3 -14 6
-10 8 8 54 -34 48 -44 -3 -5 1 -6 9 -3 8 3 17 -2 21 -11 3 -9 11 -13 17 -9 8
4 9 3 5 -5 -4 -6 -12 -9 -17 -6 -5 4 -9 -5 -9 -18 0 -14 12 -35 30 -50 17 -15
30 -35 31 -45 0 -10 3 -12 6 -4 8 20 22 14 16 -8 -3 -11 -12 -20 -20 -20 -8 0
-28 -10 -45 -21 -28 -21 -30 -21 -46 -4 -13 13 -13 16 -2 9 13 -7 13 -6 0 11
-10 13 -12 19 -3 22 7 3 8 14 4 31 -6 20 -14 27 -32 27 -13 0 -28 3 -34 6 -17
9 -64 -6 -77 -25 -4 -6 -8 0 -8 13 0 30 -12 20 -15 -11 -2 -25 -23 -77 -26
-65 -5 23 -4 75 3 95 5 15 3 33 -7 52 -24 47 -17 48 12 2 15 -23 31 -42 36
-42 5 0 2 11 -7 25 -19 29 -21 44 -4 27 16 -16 45 -15 51 1 3 8 9 7 19 -6 7
-10 20 -19 28 -21 8 -1 25 -8 38 -14 26 -15 27 -14 6 26 -16 33 -38 45 -27 15
6 -15 5 -16 -8 -3 -9 8 -14 24 -11 37 3 13 -1 23 -7 23 -7 0 -10 4 -7 9 3 4
-3 16 -14 26 -15 13 -16 20 -7 30 16 17 30 7 24 -17z m-47 2 c0 -5 -5 -10 -11
-10 -5 0 -7 5 -4 10 3 6 8 10 11 10 2 0 4 -4 4 -10z m327 -22 c-3 -7 -5 -2 -5
12 0 14 2 19 5 13 2 -7 2 -19 0 -25z m-402 3 c3 -5 2 -12 -3 -15 -5 -3 -9 1
-9 9 0 17 3 19 12 6z m-40 -10 c3 -5 2 -12 -3 -15 -5 -3 -9 1 -9 9 0 17 3 19
12 6z m448 -34 c-4 -7 -7 -26 -8 -44 0 -17 -3 -34 -6 -38 -7 -7 -9 85 -2 98 2
4 9 5 14 1 5 -3 6 -11 2 -17z m-4691 -24 c-3 -16 -7 -22 -10 -15 -4 13 4 42
11 42 2 0 2 -12 -1 -27z m4558 -17 c0 -6 -5 -3 -11 7 -6 9 -14 15 -20 12 -5
-4 -9 2 -9 11 0 16 1 16 20 -1 11 -10 20 -23 20 -29z m176 20 c0 -14 -3 -23
-7 -20 -6 3 -6 22 0 42 3 10 7 -2 7 -22z m-513 3 c-6 -6 -10 -17 -9 -23 2 -6
1 -7 -2 -3 -2 5 -16 -2 -31 -15 -14 -13 -11 -6 8 15 19 20 37 37 40 37 3 0 0
-5 -6 -11z m-3149 -37 c3 -5 -1 -9 -9 -9 -8 0 -12 4 -9 9 3 4 7 8 9 8 2 0 6
-4 9 -8z m3603 -62 c-1 -12 -5 -16 -10 -11 -5 5 -6 14 -3 20 11 16 15 13 13
-9z m-4312 -30 c-3 -5 -8 -20 -10 -32 -3 -12 -9 -26 -14 -31 -6 -6 -5 8 1 32
6 22 15 41 20 41 5 0 6 -4 3 -10z m4086 -9 c3 -1 3 -20 0 -43 -6 -40 -8 -43
-37 -44 -17 -1 -42 -4 -57 -7 -16 -5 -27 -2 -30 6 -3 6 -5 0 -4 -14 1 -19 6
-25 18 -22 9 3 20 0 24 -7 5 -8 -2 -11 -21 -8 -26 3 -29 8 -32 41 -2 21 1 37
7 37 6 0 11 6 11 13 0 7 13 18 29 24 24 9 32 8 46 -6 15 -15 16 -14 10 11 -6
22 -4 26 12 23 10 -2 21 -4 24 -4z m243 -51 c5 -23 4 -30 -2 -20 -6 8 -13 31
-16 50 -5 23 -4 30 2 20 6 -8 13 -31 16 -50z m-44 20 c0 -5 -7 -7 -15 -4 -8 4
-12 10 -9 15 6 11 24 2 24 -11z m-66 -36 c3 -8 2 -12 -4 -9 -6 3 -10 10 -10
16 0 14 7 11 14 -7z m69 1 c-3 -9 -8 -14 -10 -11 -3 3 -2 9 2 15 9 16 15 13 8
-4z m-356 -10 c0 -8 -4 -12 -9 -9 -5 3 -6 10 -3 15 9 13 12 11 12 -6z m-3962
-15 c-6 -31 -21 -54 -29 -42 -3 6 1 18 10 26 8 9 13 16 9 16 -3 0 -3 5 0 10
10 16 14 12 10 -10z m4382 -6 c-3 -3 -12 -4 -19 -1 -8 3 -5 6 6 6 11 1 17 -2
13 -5z m-4550 -10 c-3 -3 -12 -4 -19 -1 -8 3 -5 6 6 6 11 1 17 -2 13 -5z m47
-3 c4 -5 -3 -7 -14 -4 -23 6 -26 13 -6 13 8 0 17 -4 20 -9z m4465 5 c-2 -2
-26 -6 -54 -10 -34 -4 -43 -3 -30 3 19 9 93 15 84 7z m-259 -26 c-20 -13 -40
-13 -40 0 0 6 12 10 28 10 21 0 24 -2 12 -10z m241 -20 c-2 -8 -3 -28 -3 -43
1 -22 -2 -26 -12 -18 -15 13 -49 4 -40 -10 3 -5 0 -9 -5 -9 -6 0 -11 5 -11 10
0 6 -3 9 -7 8 -5 -2 -8 2 -8 7 0 6 9 9 21 7 12 -1 21 3 21 11 0 9 -11 13 -31
11 -57 -4 -62 -5 -49 -11 16 -6 -8 -33 -29 -33 -8 0 -18 -4 -24 -10 -6 -6 -10
-3 -10 10 0 15 5 19 19 14 13 -4 17 -2 13 5 -4 6 -1 11 6 12 10 0 10 2 1 6
-15 5 -18 43 -3 43 5 0 14 -8 20 -17 10 -16 11 -16 6 -1 -4 14 3 17 42 20 77
5 87 3 83 -12z m-3596 -10 c10 -11 16 -20 13 -20 -3 0 -13 9 -23 20 -10 11
-16 20 -13 20 3 0 13 -9 23 -20z m3370 10 c3 -5 -1 -10 -10 -10 -9 0 -13 5
-10 10 3 6 8 10 10 10 2 0 7 -4 10 -10z m288 -2 c15 -11 13 -13 -18 -13 -34 0
-42 5 -28 18 10 11 27 8 46 -5z m102 2 c-4 -6 -13 -10 -21 -10 -8 0 -13 -4
-10 -9 8 -13 -31 -1 -43 13 -6 8 3 12 35 13 26 1 42 -2 39 -7z m-558 -26 c-3
-3 -12 -4 -19 -1 -8 3 -5 6 6 6 11 1 17 -2 13 -5z m38 -4 c3 -5 1 -10 -4 -10
-6 0 -11 5 -11 10 0 6 2 10 4 10 3 0 8 -4 11 -10z m405 2 c0 -4 -10 -9 -22 -9
-18 -2 -20 0 -8 7 18 12 30 13 30 2z m-257 -17 c-3 -9 -8 -14 -10 -11 -3 3 -2
9 2 15 9 16 15 13 8 -4z m-399 -173 c3 -5 -1 -9 -9 -9 -8 0 -12 4 -9 9 3 4 7
8 9 8 2 0 6 -4 9 -8z m61 -22 c10 -11 15 -20 11 -20 -4 0 -16 9 -28 20 -12 11
-17 20 -11 20 5 0 18 -9 28 -20z m85 -30 c0 -5 -5 -10 -11 -10 -5 0 -7 5 -4
10 3 6 8 10 11 10 2 0 4 -4 4 -10z m112 -59 c-9 -5 -6 -15 13 -35 19 -20 23
-31 16 -40 -6 -7 -7 -17 -3 -21 4 -5 1 -5 -6 -1 -10 6 -10 11 -1 22 9 11 8 14
-5 14 -10 0 -14 4 -11 10 3 5 -3 15 -14 22 -19 11 -19 14 -4 30 9 10 19 16 22
13 3 -4 0 -10 -7 -14z m94 -13 c4 -7 3 -8 -4 -4 -7 4 -12 2 -12 -5 0 -7 -3
-10 -6 -6 -6 5 3 27 11 27 2 0 7 -5 11 -12z m-133 -23 c6 -15 -10 -32 -20 -21
-4 3 -1 6 7 6 10 0 10 3 0 15 -7 9 -8 15 -2 15 5 0 12 -7 15 -15z m129 -19 c7
4 8 2 4 -4 -4 -7 -14 -12 -22 -12 -8 0 -14 -5 -14 -11 0 -5 5 -7 10 -4 6 3 10
4 10 1 0 -3 -9 -10 -19 -16 -14 -7 -19 -7 -17 3 3 20 31 58 34 47 2 -6 9 -7
14 -4z m-172 -6 c0 -5 -2 -10 -4 -10 -3 0 -8 5 -11 10 -3 6 -1 10 4 10 6 0 11
-4 11 -10z m-75 -20 c10 -11 16 -20 13 -20 -3 0 -13 9 -23 20 -10 11 -16 20
-13 20 3 0 13 -9 23 -20z m321 -12 c16 -18 20 -25 8 -15 -11 9 -25 17 -31 17
-5 0 -10 7 -10 15 0 19 -2 20 33 -17z m-166 12 c0 -5 -7 -7 -15 -4 -8 4 -15 8
-15 10 0 2 7 4 15 4 8 0 15 -4 15 -10z m-223 -7 c-4 -3 -1 -13 6 -22 11 -14
10 -14 -5 -2 -16 12 -16 31 -1 31 4 0 3 -3 0 -7z m188 -23 c3 -6 -1 -7 -9 -4
-18 7 -21 14 -7 14 6 0 13 -4 16 -10z m95 -20 c-6 -11 -13 -20 -16 -20 -2 0 0
9 6 20 6 11 13 20 16 20 2 0 0 -9 -6 -20z m-65 -21 c11 -16 1 -19 -13 -3 -7 8
-8 14 -3 14 5 0 13 -5 16 -11z m35 -4 c0 -8 -4 -15 -10 -15 -5 0 -10 7 -10 15
0 8 5 15 10 15 6 0 10 -7 10 -15z m-123 -12 c-4 -3 -1 -13 6 -21 11 -13 9 -14
-10 -1 -16 9 -19 16 -10 21 15 9 23 10 14 1z m491 -18 c-3 -3 -9 2 -12 12 -6
14 -5 15 5 6 7 -7 10 -15 7 -18z m-517 -12 c13 -16 12 -17 -3 -4 -10 7 -18 15
-18 17 0 8 8 3 21 -13z m179 0 c0 -6 -5 -15 -12 -19 -7 -4 -8 -3 -4 4 4 7 1
12 -8 12 -9 0 -16 4 -16 8 0 4 9 8 20 8 11 0 20 -6 20 -13z m434 1 c3 -8 2
-12 -4 -9 -6 3 -10 10 -10 16 0 14 7 11 14 -7z m-416 -24 c-13 -11 -17 -19
-10 -20 7 0 10 -5 6 -11 -4 -8 -9 -7 -14 2 -9 14 20 60 33 52 4 -2 -3 -13 -15
-23z m-88 16 c0 -2 -9 -6 -20 -9 -11 -3 -18 -1 -14 4 5 9 34 13 34 5z m-116
-14 c2 -4 -5 -9 -17 -9 -17 -2 -19 0 -7 7 18 12 18 12 24 2z m56 -6 c-7 -7
-13 -7 -20 0 -6 6 -3 10 10 10 13 0 16 -4 10 -10z m80 -17 c0 -5 -4 -9 -10 -9
-5 0 -10 7 -10 16 0 8 5 12 10 9 6 -3 10 -10 10 -16z m-223 -19 c-2 -23 -10
-17 -14 11 -2 11 1 18 6 14 6 -3 9 -14 8 -25z m168 20 c3 -5 1 -10 -4 -10 -6
0 -11 5 -11 10 0 6 2 10 4 10 3 0 8 -4 11 -10z m376 -7 c13 -16 12 -17 -3 -4
-10 7 -18 15 -18 17 0 8 8 3 21 -13z m-295 -39 c-9 -8 -16 -11 -16 -5 0 5 4
12 10 16 5 3 7 13 4 23 -5 15 -4 15 6 -1 9 -13 8 -21 -4 -33z m-151 -44 c3 -5
1 -10 -4 -10 -6 0 -11 5 -11 10 0 6 2 10 4 10 3 0 8 -4 11 -10z m-64 -27 c13
-16 12 -17 -3 -4 -10 7 -18 15 -18 17 0 8 8 3 21 -13z m210 -10 c-12 -20 -14
-14 -5 12 4 9 9 14 11 11 3 -2 0 -13 -6 -23z m-166 -3 c10 -11 16 -20 13 -20
-3 0 -13 9 -23 20 -10 11 -16 20 -13 20 3 0 13 -9 23 -20z m6 -57 c13 -17 13
-17 -6 -3 -11 8 -22 16 -24 17 -2 2 0 3 6 3 6 0 17 -8 24 -17z m132 -22 c-4
-3 -11 -10 -15 -15 -4 -4 -6 1 -5 12 1 12 6 18 15 15 7 -3 10 -9 5 -12z m557
-20 c0 -5 -9 -7 -20 -4 -11 3 -20 7 -20 9 0 2 9 4 20 4 11 0 20 -4 20 -9z
m-225 -31 c3 -5 1 -10 -4 -10 -6 0 -11 5 -11 10 0 6 2 10 4 10 3 0 8 -4 11
-10z m-290 -20 c3 -5 -1 -10 -10 -10 -9 0 -13 5 -10 10 3 6 8 10 10 10 2 0 7
-4 10 -10z m165 -20 c0 -5 -2 -10 -4 -10 -3 0 -8 5 -11 10 -3 6 -1 10 4 10 6
0 11 -4 11 -10z m-295 -28 c-3 -3 -11 0 -18 7 -9 10 -8 11 6 5 10 -3 15 -9 12
-12z m120 -21 c-2 -2 -11 3 -19 12 -8 8 -12 17 -9 21 3 3 12 -2 19 -12 7 -9
11 -19 9 -21z m205 14 c11 -13 10 -14 -4 -9 -9 3 -16 10 -16 15 0 13 6 11 20
-6z m-165 -5 c3 -5 1 -10 -4 -10 -6 0 -11 5 -11 10 0 6 2 10 4 10 3 0 8 -4 11
-10z m-139 -32 l19 -23 -25 20 c-14 11 -27 21 -29 22 -2 2 0 3 6 3 5 0 18 -10
29 -22z m49 2 c3 -5 1 -10 -4 -10 -6 0 -11 5 -11 10 0 6 2 10 4 10 3 0 8 -4
11 -10z m140 -20 l20 -25 -22 19 c-13 11 -23 24 -23 29 0 6 1 8 3 6 1 -2 11
-15 22 -29z m-80 10 c3 -5 1 -10 -4 -10 -6 0 -11 5 -11 10 0 6 2 10 4 10 3 0
8 -4 11 -10z m143 -15 c-3 -3 -9 2 -12 12 -6 14 -5 15 5 6 7 -7 10 -15 7 -18z
m-268 11 c0 -2 -7 -7 -16 -10 -8 -3 -12 -2 -9 4 6 10 25 14 25 6z m50 -26 c-8
-5 -19 -10 -25 -10 -5 0 -3 5 5 10 8 5 20 10 25 10 6 0 3 -5 -5 -10z m50 -20
c0 -5 -4 -10 -9 -10 -6 0 -13 5 -16 10 -3 6 1 10 9 10 9 0 16 -4 16 -10z m-40
-10 c0 -5 -2 -10 -4 -10 -3 0 -8 5 -11 10 -3 6 -1 10 4 10 6 0 11 -4 11 -10z
m198 -45 c-3 -3 -9 2 -12 12 -6 14 -5 15 5 6 7 -7 10 -15 7 -18z m-177 -2 c13
-16 12 -17 -3 -4 -10 7 -18 15 -18 17 0 8 8 3 21 -13z m44 -3 c10 -11 16 -20
13 -20 -3 0 -13 9 -23 20 -10 11 -16 20 -13 20 3 0 13 -9 23 -20z m585 -1 c0
-6 -4 -7 -10 -4 -5 3 -10 11 -10 16 0 6 5 7 10 4 6 -3 10 -11 10 -16z m-188
-11 c-6 -23 -9 -23 -22 1 -8 16 -7 20 9 18 12 -1 17 -7 13 -19z m243 12 c3 -5
1 -10 -4 -10 -6 0 -11 5 -11 10 0 6 2 10 4 10 3 0 8 -4 11 -10z m-445 -75 c0
5 -10 19 -22 32 -17 19 -19 26 -9 36 10 9 11 9 6 -3 -3 -9 3 -20 15 -28 22
-14 27 -3 8 18 -7 7 3 1 22 -13 22 -16 44 -24 55 -21 13 3 24 -2 33 -16 12
-20 12 -20 -10 -6 -19 12 -25 12 -35 1 -6 -7 -9 -16 -6 -19 4 -3 1 -6 -6 -6
-7 0 -10 -4 -6 -9 3 -5 1 -12 -5 -16 -5 -3 -10 -1 -10 5 0 7 -7 10 -17 6 -15
-5 -14 -3 2 10 20 16 20 16 -1 10 -16 -5 -30 5 -64 46 l-43 53 46 -45 c26 -24
47 -40 47 -35z m73 39 c-4 -11 -9 -12 -19 -3 -17 14 -9 30 11 23 7 -3 11 -12
8 -20z m96 4 c17 -17 23 -19 36 -8 8 7 15 9 15 4 0 -4 5 -3 11 3 6 6 18 9 26
6 10 -4 6 -9 -13 -19 -14 -8 -31 -11 -37 -7 -6 3 -7 1 -3 -5 4 -7 3 -12 -2
-12 -13 0 -62 40 -62 51 0 14 7 11 29 -13z m185 8 c-3 -9 -12 -12 -21 -9 -10
4 -14 2 -9 -5 3 -6 2 -13 -4 -17 -5 -3 -10 1 -10 9 0 8 8 20 18 25 24 14 32
13 26 -3z m-423 -22 c13 -14 17 -23 9 -19 -13 5 -46 45 -37 45 2 0 14 -11 28
-26z m489 5 c0 -6 -4 -7 -10 -4 -5 3 -10 11 -10 16 0 6 5 7 10 4 6 -3 10 -11
10 -16z m-2796 -28 c-4 -17 -9 -30 -11 -27 -3 2 -2 19 2 36 9 41 17 33 9 -9z
m2281 19 c3 -5 1 -10 -4 -10 -6 0 -11 5 -11 10 0 6 2 10 4 10 3 0 8 -4 11 -10z
m-10 -30 c26 -27 27 -50 2 -50 -8 0 -8 3 2 9 8 5 9 11 3 15 -5 3 -13 -2 -16
-11 -4 -9 -2 -20 5 -23 6 -4 0 -7 -15 -7 -14 0 -33 9 -43 21 -18 21 -18 21 3
4 25 -22 41 -24 24 -3 -11 13 -10 14 5 9 13 -5 16 -4 11 5 -5 7 -14 10 -21 7
-8 -3 -19 3 -27 11 -11 15 -11 16 6 9 19 -7 19 -6 3 12 -17 19 -17 20 7 20 14
0 36 -13 51 -28z m395 19 c0 -6 -6 -9 -12 -6 -7 2 -21 -2 -30 -10 -10 -9 -22
-12 -30 -7 -8 5 -3 12 17 20 37 16 55 17 55 3z m-338 -34 c2 3 5 -2 5 -10 0
-13 -3 -13 -21 -2 -11 8 -22 20 -24 28 -4 10 1 9 15 -4 11 -9 22 -15 25 -12z
m-220 5 c2 6 14 0 27 -13 l23 -25 -37 2 c-20 2 -44 11 -53 21 -16 18 -16 18 2
4 18 -13 19 -12 13 5 -6 15 -5 17 7 7 10 -8 15 -9 18 -1z m-147 -29 c2 -11 -1
-21 -6 -21 -6 0 -7 -5 -3 -12 4 -7 3 -8 -4 -4 -8 5 -9 13 -3 24 4 9 6 24 3 32
-2 8 -2 12 2 9 4 -4 8 -16 11 -28z m841 20 c-4 -5 0 -12 6 -15 7 -3 0 -4 -15
-1 -16 3 -26 2 -23 -3 3 -5 -9 -9 -26 -8 -48 2 -45 22 3 24 23 1 45 4 47 7 9
8 14 6 8 -4z m-800 -23 c19 -22 19 -22 0 -8 -18 14 -19 13 -13 -3 4 -10 3 -16
-2 -12 -8 4 -12 45 -5 45 0 0 9 -10 20 -22z m59 2 c10 -11 16 -20 13 -20 -3 0
-13 9 -23 20 -10 11 -16 20 -13 20 3 0 13 -9 23 -20z m600 0 c5 -8 11 -7 21 1
11 9 14 8 14 -6 0 -10 -3 -15 -7 -12 -3 4 -12 2 -19 -4 -9 -8 -15 -5 -24 10
-11 21 3 31 15 11z m-27 -20 c3 -17 -33 -21 -55 -7 -22 14 -14 23 19 22 21 0
34 -5 36 -15z m-98 -21 c0 -5 -7 -6 -15 -3 -8 4 -15 2 -15 -3 0 -11 -45 -11
-56 0 -14 14 -26 7 -14 -8 10 -12 9 -15 -6 -16 -11 0 -30 -2 -43 -5 -13 -2
-30 1 -38 7 -7 7 -16 9 -20 5 -3 -3 -1 -6 5 -6 7 0 12 -5 12 -11 0 -5 -4 -7
-10 -4 -18 11 -11 -1 12 -21 19 -15 20 -16 9 -1 -17 22 -3 22 29 0 24 -16 24
-16 11 0 -19 24 5 23 33 0 21 -18 21 -18 2 5 -11 12 -14 22 -9 22 6 0 16 -7
23 -15 7 -8 17 -15 22 -15 6 0 5 7 -2 15 -7 8 -8 15 -2 15 5 0 15 -7 22 -15
18 -21 35 -19 19 3 -10 13 -8 12 10 -3 16 -14 25 -16 28 -8 2 7 12 9 21 6 15
-6 16 -5 2 12 -14 18 -13 17 15 -1 28 -18 29 -18 22 0 -7 16 -5 17 9 6 12 -11
17 -11 23 -1 6 9 11 8 22 -5 12 -16 12 -17 -3 -11 -10 3 -18 3 -18 -2 0 -4
-13 -7 -30 -6 -16 1 -30 -1 -30 -5 0 -4 -14 -6 -30 -5 -24 1 -30 -2 -25 -13 4
-11 2 -12 -8 -4 -9 8 -24 9 -43 3 -16 -4 -34 -6 -41 -4 -6 2 -11 -2 -9 -9 3
-25 16 -36 36 -31 17 5 18 8 8 22 -10 13 -10 14 2 4 8 -7 21 -13 30 -13 13 0
13 2 0 11 -12 8 -12 10 -1 7 8 -2 16 -14 18 -26 3 -21 1 -22 -20 -11 -14 7
-10 0 12 -20 19 -17 37 -29 40 -26 2 3 -4 11 -14 19 -17 12 -17 13 3 18 15 4
31 -3 54 -24 18 -17 24 -25 14 -17 -14 10 -20 11 -23 2 -2 -7 -12 -9 -21 -6
-15 6 -15 5 -2 -13 11 -15 11 -16 0 -6 -8 6 -20 12 -28 12 -8 0 -10 -5 -6 -12
5 -8 1 -8 -10 1 -10 9 -20 11 -24 5 -4 -5 -18 -9 -32 -9 -14 1 -28 -3 -31 -7
-3 -5 -17 1 -31 12 -15 11 -30 20 -34 20 -4 0 1 -7 12 -15 18 -13 18 -14 1
-15 -11 0 -15 -4 -11 -12 4 -7 3 -8 -5 -4 -6 4 -9 12 -6 17 3 5 -1 6 -9 3 -9
-3 -13 -10 -10 -15 3 -5 -3 -6 -12 -2 -12 4 -15 3 -10 -5 11 -19 1 -14 -30 14
-16 15 -24 24 -17 20 15 -8 44 4 37 15 -3 5 0 9 7 9 7 0 5 8 -7 21 -10 11 -26
18 -36 16 -10 -3 -21 -1 -24 5 -3 5 -13 7 -22 3 -8 -3 -25 4 -39 16 -24 24
-33 50 -10 30 8 -6 17 -8 20 -4 4 3 18 -4 32 -17 14 -13 28 -21 31 -17 4 3 15
2 25 -4 13 -7 19 -6 19 1 0 6 5 8 10 5 6 -3 10 -1 10 5 0 7 -8 9 -21 5 -13 -4
-28 0 -42 12 -19 16 -20 16 -8 1 21 -28 -3 -21 -30 9 -20 22 -21 25 -5 19 16
-5 17 -4 7 8 -7 8 -18 13 -25 10 -7 -3 -19 3 -27 13 -13 16 -12 17 3 5 9 -8
21 -11 26 -8 5 3 21 -4 36 -15 14 -11 26 -15 26 -9 0 6 4 9 9 6 5 -4 16 -3 25
0 14 6 14 9 -5 25 -21 18 -54 16 -43 -3 4 -6 9 -6 14 2 5 8 10 8 14 2 13 -21
-28 -23 -48 -2 -17 17 -18 20 -3 14 9 -3 17 -2 17 3 0 5 15 10 33 11 17 1 70
9 116 18 65 13 88 14 103 5 15 -9 18 -8 18 5 0 14 3 14 15 4 8 -7 15 -16 15
-21z m40 0 c0 -5 -7 -6 -15 -3 -8 4 -15 13 -15 21 0 13 3 13 15 3 8 -7 15 -16
15 -21z m250 21 c0 -5 -2 -10 -4 -10 -3 0 -8 5 -11 10 -3 6 -1 10 4 10 6 0 11
-4 11 -10z m-20 -22 c20 -22 28 -44 11 -34 -5 4 -22 1 -37 -4 -21 -8 -31 -7
-45 6 -11 10 -19 22 -19 27 0 6 9 1 21 -12 12 -12 24 -20 27 -16 3 3 0 11 -6
17 -7 7 -12 16 -12 22 0 5 9 0 21 -13 12 -12 24 -20 27 -16 3 3 0 11 -6 17
-12 12 -16 28 -7 28 2 0 13 -10 25 -22z m-130 -28 c13 -11 21 -22 18 -25 -2
-3 -15 6 -28 20 -28 30 -22 33 10 5z m40 -5 c13 -14 21 -25 18 -25 -2 0 -15
11 -28 25 -13 14 -21 25 -18 25 2 0 15 -11 28 -25z m-579 -2 c8 -9 9 -14 3
-10 -7 4 -14 1 -17 -7 -3 -8 2 -13 16 -13 40 -1 47 -3 47 -15 0 -9 -3 -9 -11
-1 -6 6 -18 9 -26 6 -11 -4 -10 -10 7 -28 21 -22 37 -70 19 -60 -5 4 -7 10 -4
14 2 5 -5 17 -17 27 -17 15 -20 16 -16 3 6 -15 -7 -16 -64 -10 -5 1 -8 6 -8
12 0 8 6 7 18 -2 14 -11 15 -11 5 1 -24 27 -13 33 14 9 20 -17 23 -18 10 -3
-20 25 -23 41 -3 25 10 -9 15 -8 19 3 4 10 1 13 -7 10 -8 -3 -17 -1 -21 5 -3
6 -1 11 5 11 6 0 8 5 4 11 -4 8 -9 7 -15 -2 -4 -7 -6 -16 -3 -20 11 -19 -27
-15 -43 4 -18 22 -18 22 3 4 19 -16 22 -16 28 -2 3 9 2 13 -3 10 -5 -3 -13 0
-17 6 -4 8 -3 9 4 5 7 -4 12 -3 12 3 0 5 12 8 26 5 16 -3 23 -1 19 6 -10 16 1
12 16 -7z m399 -3 c0 -5 -2 -10 -4 -10 -3 0 -8 5 -11 10 -3 6 -1 10 4 10 6 0
11 -4 11 -10z m350 0 c0 -5 -4 -10 -10 -10 -5 0 -10 5 -10 10 0 6 5 10 10 10
6 0 10 -4 10 -10z m-901 -10 c12 6 26 0 51 -23 20 -18 29 -32 22 -35 -7 -2 -9
-9 -5 -15 3 -7 3 -9 -2 -5 -4 4 -14 0 -22 -10 -12 -16 -13 -16 -6 2 5 15 3 18
-10 13 -9 -3 -19 -2 -23 4 -3 6 -12 8 -19 5 -7 -2 -18 1 -24 7 -15 15 -14 -6
2 -22 10 -11 9 -12 -3 -5 -8 5 -18 9 -22 9 -3 0 -10 4 -15 9 -5 6 -2 6 6 1 11
-6 13 -4 8 7 -4 11 -1 15 11 13 9 -2 17 -4 17 -5 0 -1 10 -3 23 -4 16 -2 21 1
18 11 -3 8 -2 12 2 9 4 -2 14 -1 20 3 10 6 9 11 -3 21 -9 7 -15 8 -15 2 0 -6
-8 -9 -17 -7 -10 2 -21 4 -25 4 -5 1 -8 6 -8 13 0 9 3 9 12 0 7 -7 17 -8 27
-2z m-579 -6 c0 -8 -19 -13 -24 -6 -3 5 1 9 9 9 8 0 15 -2 15 -3z m1230 -34
c0 -5 -2 -10 -4 -10 -3 0 -8 5 -11 10 -3 6 -1 10 4 10 6 0 11 -4 11 -10z m42
-45 c7 2 24 -4 38 -15 14 -11 20 -20 14 -20 -6 0 -17 7 -24 15 -7 8 -17 15
-23 15 -5 0 -2 -9 8 -20 18 -20 18 -21 -1 -13 -10 4 -27 17 -37 30 -10 13 -23
23 -29 23 -7 0 -1 -11 12 -25 35 -37 12 -55 -26 -21 -17 15 -23 26 -15 26 11
0 11 3 1 15 -9 11 -9 15 -1 15 7 0 9 5 5 13 -5 6 8 0 28 -15 20 -16 43 -26 50
-23z m71 4 c-16 -5 -15 -7 2 -17 11 -6 16 -11 10 -11 -5 -1 -21 9 -35 20 -16
14 -19 19 -7 15 9 -3 17 -3 17 1 0 3 -8 12 -17 20 -10 8 -3 6 15 -4 26 -14 29
-19 15 -24z m47 11 c0 -5 -4 -10 -10 -10 -5 0 -10 5 -10 10 0 6 5 10 10 10 6
0 10 -4 10 -10z m-1499 -27 c13 -15 17 -22 8 -15 -9 6 -20 8 -25 4 -5 -4 -6
-3 -2 2 4 5 3 15 -3 23 -21 25 -3 13 22 -14z m46 13 c13 0 28 -6 35 -15 10
-13 10 -14 -2 -4 -8 8 -19 9 -30 3 -13 -7 -22 -4 -36 13 -11 12 -13 17 -4 11
8 -5 25 -9 37 -8z m76 -6 c10 -12 9 -12 -4 -2 -9 6 -18 9 -21 6 -3 -3 -9 -1
-12 4 -9 15 22 8 37 -8z m1157 12 c0 -4 -11 -8 -25 -8 -33 -2 -33 11 0 14 14
1 25 -2 25 -6z m270 -14 c-15 -6 -27 -5 -34 3 -8 9 -7 10 6 6 10 -3 20 -2 23
4 4 5 11 6 17 3 7 -5 2 -11 -12 -16z m-715 -28 c10 -11 16 -20 13 -20 -3 0
-13 9 -23 20 -10 11 -16 20 -13 20 3 0 13 -9 23 -20z m150 10 c3 -5 0 -10 -7
-11 -10 0 -10 -2 0 -6 6 -2 12 -9 12 -14 0 -4 -6 -6 -14 -3 -8 3 -14 14 -13
25 1 21 12 25 22 9z m-65 -28 c0 -5 -7 -9 -15 -9 -8 0 -12 4 -9 9 3 4 9 8 15
8 5 0 9 -4 9 -8z m-159 -19 c13 -16 12 -17 -3 -4 -10 7 -18 15 -18 17 0 8 8 3
21 -13z m-2144 -40 c-3 -10 -5 -2 -5 17 0 19 2 27 5 18 2 -10 2 -26 0 -35z
m2134 20 c13 -16 12 -17 -3 -4 -10 7 -18 15 -18 17 0 8 8 3 21 -13z m158 6
c-7 -4 -19 -4 -28 -1 -14 5 -14 4 -1 -14 14 -18 14 -18 -10 1 -14 11 -26 20
-28 21 -1 0 16 1 38 1 23 0 36 -3 29 -8z m-281 -24 c-3 -3 -9 2 -12 12 -6 14
-5 15 5 6 7 -7 10 -15 7 -18z m-4131 -31 c-3 -3 -12 -4 -19 -1 -8 3 -5 6 6 6
11 1 17 -2 13 -5z m53 -4 c18 -12 2 -12 -25 0 -13 6 -15 9 -5 9 8 0 22 -4 30
-9z m4444 -1 c3 -3 -11 -5 -31 -6 -19 0 -30 3 -24 6 13 8 48 8 55 0z m-294
-23 c0 -2 -7 -7 -16 -10 -8 -3 -12 -2 -9 4 6 10 25 14 25 6z m-100 -16 c0 -5
-2 -10 -4 -10 -3 0 -8 5 -11 10 -3 6 -1 10 4 10 6 0 11 -4 11 -10z m865 -140
c3 -5 1 -10 -4 -10 -6 0 -11 5 -11 10 0 6 2 10 4 10 3 0 8 -4 11 -10z m-390
-40 c3 -5 1 -10 -4 -10 -6 0 -11 5 -11 10 0 6 2 10 4 10 3 0 8 -4 11 -10z m35
-70 c0 -5 -2 -10 -4 -10 -3 0 -8 5 -11 10 -3 6 -1 10 4 10 6 0 11 -4 11 -10z
m355 -10 c3 -5 1 -10 -4 -10 -6 0 -11 5 -11 10 0 6 2 10 4 10 3 0 8 -4 11 -10z
m-30 -50 c3 -5 1 -10 -4 -10 -6 0 -11 5 -11 10 0 6 2 10 4 10 3 0 8 -4 11 -10z
m0 -30 c3 -5 1 -10 -4 -10 -6 0 -11 5 -11 10 0 6 2 10 4 10 3 0 8 -4 11 -10z
m-225 -10 c0 -5 -5 -10 -11 -10 -5 0 -7 5 -4 10 3 6 8 10 11 10 2 0 4 -4 4
-10z m100 -60 c0 -5 -2 -10 -4 -10 -3 0 -8 5 -11 10 -3 6 -1 10 4 10 6 0 11
-4 11 -10z m200 -165 c7 -9 8 -15 2 -15 -5 0 -12 7 -16 15 -3 8 -4 15 -2 15 2
0 9 -7 16 -15z m-19 -48 c-10 -9 -11 -8 -5 6 3 10 9 15 12 12 3 -3 0 -11 -7
-18z m35 -65 c-6 -5 -36 23 -36 34 0 4 9 -1 20 -11 11 -10 18 -20 16 -23z
m-117 -597 c5 2 6 -8 3 -23 l-6 -27 -6 25 c-6 27 -19 16 -15 -13 2 -9 -1 -15
-6 -11 -5 3 -9 1 -9 -4 0 -6 -8 -13 -17 -16 -15 -6 -15 -5 -2 11 9 10 22 34
30 53 9 25 15 30 17 17 2 -9 7 -15 11 -12z m-113 -41 c-3 -9 -6 -20 -6 -26 0
-6 -7 -8 -15 -4 -9 3 -15 0 -15 -8 0 -8 -7 -17 -16 -20 -10 -4 -5 8 13 34 28
40 50 54 39 24z m12 -114 c-7 -10 -14 -17 -17 -15 -4 4 18 35 25 35 2 0 -1 -9
-8 -20z m-2758 -57 c0 -5 -5 -15 -10 -23 -7 -12 -9 -10 -7 8 1 19 17 33 17 15z
m2590 -43 c-6 -11 -13 -20 -16 -20 -2 0 0 9 6 20 6 11 13 20 16 20 2 0 0 -9
-6 -20z m190 7 c0 -2 -10 -12 -22 -23 l-23 -19 19 23 c18 21 26 27 26 19z
m-180 -50 c0 -2 -10 -12 -22 -23 l-23 -19 19 23 c18 21 26 27 26 19z m70 -1
c0 -2 -8 -10 -17 -17 -16 -13 -17 -12 -4 4 13 16 21 21 21 13z m-2771 -141 c0
-5 -4 -3 -9 5 -5 8 -9 22 -9 30 0 16 17 -16 18 -35z m2481 11 c0 -2 -8 -10
-17 -17 -16 -13 -17 -12 -4 4 13 16 21 21 21 13z m-2473 -48 c-3 -8 -6 -5 -6
6 -1 11 2 17 5 13 3 -3 4 -12 1 -19z m2337 -457 c11 -12 44 -35 73 -52 29 -17
53 -33 53 -35 0 -14 -106 55 -152 98 -29 27 -39 41 -23 30 17 -11 39 -29 49
-41z m956 -387 c0 -8 -19 -13 -24 -6 -3 5 1 9 9 9 8 0 15 -2 15 -3z m-953
-239 c4 -4 2 -5 -4 -1 -7 4 -13 3 -13 -1 0 -5 6 -15 13 -22 9 -11 9 -12 0 -7
-7 4 -17 15 -23 26 -7 14 -6 18 5 16 8 -1 18 -6 22 -11z m94 -2 c13 -16 12
-17 -3 -4 -10 7 -18 15 -18 17 0 8 8 3 21 -13z m130 -57 c9 -14 8 -17 -2 -11
-9 6 -11 3 -6 -8 9 -25 4 -21 -23 16 -14 18 -16 26 -7 18 9 -7 17 -9 17 -4 0
12 -40 50 -47 45 -3 -2 -8 0 -11 4 -4 4 -1 4 6 0 7 -4 12 -2 12 6 0 13 41 -31
61 -66z m20 47 c13 -16 12 -17 -3 -4 -10 7 -18 15 -18 17 0 8 8 3 21 -13z
m-20 -10 c13 -16 12 -17 -3 -4 -10 7 -18 15 -18 17 0 8 8 3 21 -13z m-2661 4
c0 -2 -12 -14 -27 -28 l-28 -24 24 28 c23 25 31 32 31 24z m2778 -22 c-3 -3
-9 2 -12 12 -6 14 -5 15 5 6 7 -7 10 -15 7 -18z m60 0 c-3 -3 -9 2 -12 12 -6
14 -5 15 5 6 7 -7 10 -15 7 -18z m-371 -61 c-3 -3 -15 10 -27 28 l-23 33 28
-28 c15 -16 25 -31 22 -33z m84 39 c13 -16 12 -17 -3 -4 -13 9 -18 10 -18 2 0
-7 -5 -9 -11 -5 -8 4 -7 9 2 15 8 5 15 9 15 9 1 0 8 -8 15 -17z m154 -13 c16
-16 24 -30 18 -30 -7 0 -21 14 -33 30 -12 17 -20 30 -18 30 3 0 17 -13 33 -30z
m-392 3 c-3 -7 -9 -10 -14 -7 -14 8 -11 21 5 21 8 0 12 -6 9 -14z m463 5 c3
-4 -1 -5 -10 -4 -8 1 -18 5 -22 8 -3 4 1 5 10 4 8 -1 18 -5 22 -8z m118 -37
c14 -26 14 -27 -12 -27 -15 1 -34 5 -42 11 -8 5 -18 10 -22 11 -5 1 -11 2 -14
3 -3 0 -2 6 1 12 5 7 14 4 26 -7 11 -9 22 -14 26 -11 3 4 12 2 20 -4 18 -16
16 -3 -4 28 -10 15 -12 24 -5 19 6 -4 19 -20 26 -35z m16 19 c6 -11 8 -20 6
-20 -3 0 -10 9 -16 20 -6 11 -8 20 -6 20 3 0 10 -9 16 -20z m-135 -28 c-9 -2
-22 1 -29 8 -8 8 -6 9 8 4 15 -6 17 -4 11 7 -7 11 -5 11 10 -1 17 -14 17 -15
0 -18z m-560 7 c11 -16 1 -19 -13 -3 -7 8 -8 14 -3 14 5 0 13 -5 16 -11z m120
1 c3 -5 2 -10 -4 -10 -5 0 -13 5 -16 10 -3 6 -2 10 4 10 5 0 13 -4 16 -10z
m170 0 c3 -5 2 -10 -4 -10 -5 0 -13 5 -16 10 -3 6 -2 10 4 10 5 0 13 -4 16
-10z m30 0 c3 -5 1 -10 -4 -10 -6 0 -11 5 -11 10 0 6 2 10 4 10 3 0 8 -4 11
-10z m111 -3 c4 -4 -5 -7 -19 -7 -15 0 -27 4 -27 8 0 10 36 9 46 -1z m-2746
-21 c0 -2 -8 -10 -17 -17 -16 -13 -17 -12 -4 4 13 16 21 21 21 13z m3070 -21
c13 -14 21 -25 18 -25 -2 0 -15 11 -28 25 -13 14 -21 25 -18 25 2 0 15 -11 28
-25z m-830 -19 c0 -3 -4 -8 -10 -11 -5 -3 -10 -1 -10 4 0 6 5 11 10 11 6 0 10
-2 10 -4z m-3253 -61 c0 -8 -4 -12 -9 -9 -5 3 -6 10 -3 15 9 13 12 11 12 -6z
m-495 -17 c-7 -7 -12 -8 -12 -2 0 6 3 14 7 17 3 4 9 5 12 2 2 -3 -1 -11 -7
-17z m880 7 c2 3 5 -1 5 -9 0 -15 -14 -16 -35 -3 -7 5 -10 13 -6 18 4 6 10 6
18 0 7 -6 15 -9 18 -6z m-797 -44 c2 -12 0 -19 -6 -16 -5 4 -9 16 -9 27 0 26
9 19 15 -11z m-82 -28 c-3 -9 -9 -11 -15 -5 -5 5 -6 17 -2 26 5 13 9 14 14 5
5 -7 6 -19 3 -26z m849 12 c3 3 11 -1 18 -10 8 -10 9 -15 1 -15 -6 0 -11 4
-11 9 0 5 -8 8 -17 6 -23 -3 -35 4 -27 16 4 6 10 6 18 0 7 -6 15 -9 18 -6z
m-785 -11 c-3 -3 -12 -4 -19 -1 -8 3 -5 6 6 6 11 1 17 -2 13 -5z m758 -24 c10
-11 16 -20 13 -20 -3 0 -13 9 -23 20 -10 11 -16 20 -13 20 3 0 13 -9 23 -20z
m89 12 c3 -5 -1 -9 -9 -9 -8 0 -12 4 -9 9 3 4 7 8 9 8 2 0 6 -4 9 -8z m3866
-7 c7 -9 8 -15 2 -15 -5 0 -12 7 -16 15 -3 8 -4 15 -2 15 2 0 9 -7 16 -15z
m-3810 -24 c0 -5 -9 -7 -20 -4 -11 3 -20 7 -20 9 0 2 9 4 20 4 11 0 20 -4 20
-9z m74 -67 c3 -7 1 -16 -5 -19 -5 -4 -9 -3 -8 2 3 20 -2 33 -14 33 -7 0 -18
9 -25 21 -13 20 -12 19 17 -2 17 -12 32 -28 35 -35z m40 -55 c-8 -13 -24 -1
-24 18 0 13 3 13 15 3 8 -7 12 -16 9 -21z m144 1 c-7 -10 -14 -17 -17 -15 -4
4 18 35 25 35 2 0 -1 -9 -8 -20z m-96 -29 c2 -5 19 -18 38 -30 19 -11 29 -21
21 -21 -18 0 -81 39 -81 51 0 12 17 12 22 0z m148 -1 c0 -5 -5 -10 -11 -10 -5
0 -7 5 -4 10 3 6 8 10 11 10 2 0 4 -4 4 -10z"/>
<path d="M5350 13666 c0 -2 8 -10 18 -17 15 -13 16 -12 3 4 -13 16 -21 21 -21
13z"/>
<path d="M5449 13523 c-13 -16 -12 -17 4 -4 9 7 17 15 17 17 0 8 -8 3 -21 -13z"/>
<path d="M5408 13503 c7 -3 16 -2 19 1 4 3 -2 6 -13 5 -11 0 -14 -3 -6 -6z"/>
<path d="M3457 11413 c-4 -3 -7 -11 -7 -17 0 -6 5 -5 12 2 6 6 9 14 7 17 -3 3
-9 2 -12 -2z"/>
<path d="M7423 10928 c-20 -26 -26 -41 -15 -34 7 4 12 2 12 -3 0 -6 4 -11 8
-11 4 0 8 14 7 30 0 35 0 34 -12 18z"/>
<path d="M7197 9529 c-4 -16 -3 -18 9 -8 7 6 11 15 8 20 -8 13 -11 11 -17 -12z"/>
<path d="M7193 9487 c0 -7 -3 -23 -8 -37 -7 -23 -7 -23 9 -7 19 19 36 14 36
-9 0 -8 5 -14 11 -14 7 0 6 8 -4 23 -8 12 -21 21 -27 19 -7 -2 -10 3 -7 12 4
9 3 18 -2 20 -4 3 -8 0 -8 -7z"/>
<path d="M7195 9422 c-5 -4 -11 -24 -13 -45 -2 -30 1 -35 10 -26 7 6 13 27 13
45 0 19 0 34 0 34 0 0 -4 -4 -10 -8z"/>
<path d="M7165 9390 c-3 -5 -1 -10 4 -10 6 0 11 5 11 10 0 6 -2 10 -4 10 -3 0
-8 -4 -11 -10z"/>
<path d="M7296 8895 c-3 -8 -1 -15 4 -15 6 0 10 7 10 15 0 8 -2 15 -4 15 -2 0
-6 -7 -10 -15z"/>
<path d="M7386 8383 c-8 -8 17 -43 31 -43 7 0 13 3 13 8 0 11 -37 41 -44 35z"/>
<path d="M7189 8368 c-5 -18 -6 -38 -1 -34 7 8 12 36 6 36 -2 0 -4 -1 -5 -2z"/>
<path d="M7295 7070 c3 -5 11 -10 16 -10 6 0 7 5 4 10 -3 6 -11 10 -16 10 -6
0 -7 -4 -4 -10z"/>
<path d="M7175 7030 c3 -5 8 -10 11 -10 2 0 4 5 4 10 0 6 -5 10 -11 10 -5 0
-7 -4 -4 -10z"/>
<path d="M7525 6980 c3 -5 8 -10 11 -10 2 0 4 5 4 10 0 6 -5 10 -11 10 -5 0
-7 -4 -4 -10z"/>
<path d="M7425 6960 c3 -5 11 -10 16 -10 6 0 7 5 4 10 -3 6 -11 10 -16 10 -6
0 -7 -4 -4 -10z"/>
<path d="M7330 6890 c0 -5 5 -10 11 -10 5 0 7 5 4 10 -3 6 -8 10 -11 10 -2 0
-4 -4 -4 -10z"/>
<path d="M7432 6863 c11 -14 -2 -18 -18 -5 -5 4 4 -5 20 -20 17 -16 34 -28 39
-28 5 0 -1 9 -14 20 -32 26 -9 26 25 -1 14 -11 26 -15 26 -9 0 8 6 8 20 0 11
-6 20 -16 20 -22 0 -7 -5 -6 -15 2 -9 7 -15 8 -15 2 0 -14 24 -22 40 -12 11 7
9 13 -11 29 -13 11 -30 18 -37 16 -19 -7 -66 26 -51 36 7 4 1 6 -14 6 -19 -2
-23 -5 -15 -14z"/>
<path d="M7260 6860 c0 -5 5 -10 11 -10 5 0 7 5 4 10 -3 6 -8 10 -11 10 -2 0
-4 -4 -4 -10z"/>
<path d="M7404 6832 c21 -25 6 -30 -18 -7 -8 8 -18 15 -23 15 -4 -1 3 -10 16
-20 13 -11 18 -20 12 -20 -7 0 -9 -4 -6 -10 3 -5 1 -10 -5 -10 -6 0 -8 -5 -4
-12 6 -9 9 -9 12 0 2 7 9 9 15 5 6 -4 8 0 4 10 -6 16 18 32 34 21 22 -13 6 5
-23 26 -31 22 -32 22 -14 2z"/>
<path d="M7620 6810 c0 -5 5 -10 11 -10 5 0 7 5 4 10 -3 6 -8 10 -11 10 -2 0
-4 -4 -4 -10z"/>
<path d="M7082 6891 c-10 -6 -10 -10 2 -20 10 -9 16 -9 21 -1 10 16 -7 31 -23
21z"/>
<path d="M7670 6831 c0 -6 9 -15 20 -21 13 -7 20 -7 20 -1 0 6 -9 15 -20 21
-13 7 -20 7 -20 1z"/>
<path d="M7361 13834 c0 -11 3 -14 6 -6 3 7 2 16 -1 19 -3 4 -6 -2 -5 -13z"/>
<path d="M7460 13820 c0 -5 5 -10 11 -10 5 0 7 5 4 10 -3 6 -8 10 -11 10 -2 0
-4 -4 -4 -10z"/>
<path d="M7418 13803 c-21 -3 -28 -10 -29 -26 0 -21 -1 -21 -10 -2 -7 16 -8
14 -3 -10 3 -16 17 -93 30 -170 14 -77 43 -212 65 -300 89 -354 125 -610 104
-737 -7 -37 -9 -67 -6 -66 20 2 29 -4 34 -21 4 -15 11 -18 28 -14 19 5 22 3
12 -7 -7 -8 -19 -10 -30 -5 -23 10 -29 12 -49 14 -8 0 -12 6 -8 12 4 7 -1 9
-12 7 -11 -2 -18 -11 -16 -20 1 -8 -5 -21 -14 -29 -13 -11 -17 -10 -25 2 -7
12 -9 12 -10 -1 -1 -8 0 -25 1 -37 1 -15 -4 -23 -15 -23 -10 0 -13 5 -9 12 5
7 3 8 -5 4 -7 -5 -10 -14 -7 -22 3 -8 0 -23 -6 -34 -15 -23 -3 -39 15 -20 10
10 9 11 -2 5 -9 -5 -12 -3 -10 4 3 7 7 11 9 10 8 -4 51 21 90 52 19 15 50 30
68 34 30 6 52 29 52 55 0 6 -4 8 -10 5 -5 -3 -10 1 -10 9 0 11 -10 16 -32 17
-18 0 -28 3 -21 5 7 3 9 12 6 20 -7 19 5 64 18 64 6 0 9 -15 7 -37 -2 -24 2
-38 11 -41 13 -4 13 58 0 263 -3 39 11 175 20 198 7 18 8 42 2 67 -8 34 -6 40
8 40 14 1 14 2 1 13 -17 13 -20 31 -7 43 12 13 8 24 -10 24 -15 0 -14 2 3 14
18 14 18 15 2 21 -10 4 -18 15 -18 25 0 10 -6 21 -12 23 -10 4 -10 6 0 6 15 1
16 31 1 31 -7 0 -9 9 -5 23 3 13 -1 32 -9 44 -8 11 -11 23 -8 27 3 3 2 6 -4 6
-6 0 -10 11 -10 25 0 14 3 25 8 25 5 0 9 14 9 30 0 17 -5 30 -11 30 -12 0 -1
43 12 48 5 2 9 11 9 20 0 15 -2 15 -10 2 -8 -13 -10 -12 -10 3 0 9 -4 17 -9
17 -5 0 -11 7 -15 15 -4 13 -2 14 14 5 24 -13 24 -10 7 24 -8 14 -17 22 -21
18 -5 -4 -7 2 -6 13 1 11 1 31 0 45 -1 23 -2 24 -11 5 -8 -17 -9 -16 -6 7 3
17 -1 29 -10 32 -10 4 -12 13 -7 28 6 20 5 21 -10 9 -14 -12 -16 -11 -17 10 0
13 -3 18 -6 12 -2 -7 -11 -13 -19 -13 -8 0 -14 -5 -14 -11 0 -5 -4 -8 -10 -4
-5 3 -7 12 -3 20 3 8 4 14 2 14 -2 -1 -16 -4 -31 -6z m169 -355 c-3 -7 -5 -2
-5 12 0 14 2 19 5 13 2 -7 2 -19 0 -25z m-27 -1007 c0 -5 -7 -12 -16 -15 -14
-5 -15 -4 -4 9 14 17 20 19 20 6z m-50 -45 c0 -3 -4 -8 -10 -11 -5 -3 -10 -1
-10 4 0 6 5 11 10 11 6 0 10 -2 10 -4z"/>
<path d="M2619 13672 c7 -5 10 -15 7 -21 -4 -6 -2 -11 4 -11 17 0 8 33 -10 37
-12 4 -13 3 -1 -5z"/>
<path d="M2450 13501 c0 -5 7 -11 14 -14 10 -4 13 -1 9 9 -6 15 -23 19 -23 5z"/>
<path d="M2506 13470 c-14 -15 -23 -17 -32 -9 -10 8 -13 6 -11 -10 0 -11 5
-17 9 -15 4 3 8 0 8 -5 0 -6 -4 -11 -10 -11 -5 0 -10 -13 -10 -30 0 -16 5 -30
10 -30 6 0 10 -7 10 -15 0 -8 5 -15 11 -15 5 0 7 -4 4 -10 -3 -5 -3 -16 2 -22
7 -11 13 -86 13 -156 0 -13 5 -20 10 -17 6 3 10 1 10 -4 0 -15 20 -9 43 13 16
15 21 16 28 5 12 -19 11 -2 -1 21 -7 13 -6 19 5 23 7 3 15 2 17 -4 2 -5 11 0
20 11 17 19 17 20 -2 20 -10 0 -22 -5 -25 -10 -10 -15 -34 6 -31 27 2 9 13 18
26 20 28 4 40 13 18 13 -11 0 -14 12 -12 53 1 28 3 59 5 67 3 11 -3 14 -21 12
-23 -2 -23 -2 -6 11 17 12 17 15 3 29 -9 9 -13 19 -9 23 4 5 -1 5 -10 2 -10
-3 -17 -3 -17 1 6 36 -24 43 -55 12z m81 -46 c-3 -3 -12 -4 -19 -1 -8 3 -5 6
6 6 11 1 17 -2 13 -5z m-47 -180 c0 -8 -19 -13 -24 -6 -3 5 1 9 9 9 8 0 15 -2
15 -3z m50 -56 c0 -4 -4 -8 -9 -8 -5 0 -12 -8 -14 -17 -3 -10 -4 -7 -4 8 1 22
27 39 27 17z"/>
<path d="M7601 13413 c-1 -17 16 -25 25 -12 4 7 3 9 -4 5 -5 -3 -13 0 -15 6
-4 9 -6 10 -6 1z"/>
<path d="M6990 13398 c0 -4 5 -8 12 -8 6 0 8 -3 5 -7 -10 -9 14 -34 26 -26 6
3 7 1 3 -6 -4 -6 0 -14 8 -17 9 -3 14 -9 12 -13 -2 -3 2 -15 10 -26 14 -19 15
-19 10 8 -3 16 -10 34 -15 41 -6 7 -8 16 -4 19 3 4 2 7 -4 7 -6 0 -13 9 -16
19 -5 19 -47 27 -47 9z"/>
<path d="M7647 13320 c-3 -11 -1 -20 4 -20 5 0 9 9 9 20 0 11 -2 20 -4 20 -2
0 -6 -9 -9 -20z"/>
<path d="M2595 13229 c4 -5 16 -9 27 -9 26 0 19 9 -11 15 -12 2 -19 0 -16 -6z"/>
<path d="M7120 13204 c1 -19 39 -156 45 -162 4 -4 5 2 2 13 -3 11 -13 49 -22
85 -16 61 -25 86 -25 64z"/>
<path d="M2623 13141 c-3 -11 -12 -22 -20 -25 -8 -3 -11 -1 -8 4 3 6 0 10 -8
10 -8 0 -18 -7 -21 -16 -3 -8 -10 -12 -16 -9 -5 3 -10 2 -10 -4 0 -5 -3 -16
-6 -25 -5 -13 4 -15 63 -12 88 4 106 12 90 36 -8 14 -15 16 -24 8 -10 -8 -13
-5 -13 11 0 11 -5 21 -11 21 -5 0 -7 5 -4 10 3 6 3 10 0 10 -4 0 -9 -9 -12
-19z"/>
<path d="M7106 13103 c-6 -14 -5 -15 5 -6 7 7 10 15 7 18 -3 3 -9 -2 -12 -12z"/>
<path d="M7070 13096 c0 -2 8 -10 18 -17 15 -13 16 -12 3 4 -13 16 -21 21 -21
13z"/>
<path d="M2630 13053 c0 -6 -9 -9 -20 -6 -14 4 -20 0 -20 -12 0 -15 -1 -15
-16 -1 -8 9 -21 13 -27 9 -7 -4 -6 -8 4 -12 8 -3 14 -17 14 -31 0 -36 5 -43
23 -28 12 10 14 10 8 1 -10 -18 13 -16 44 3 14 8 18 13 8 10 -9 -2 -23 3 -32
13 -17 19 -22 36 -7 26 5 -3 12 -1 16 4 3 6 12 8 19 5 8 -3 17 0 22 7 5 8 3
10 -6 4 -7 -4 -16 -2 -21 6 -5 9 -9 10 -9 2z"/>
<path d="M2653 13023 c-18 -2 -33 -9 -33 -14 0 -5 11 -7 24 -3 28 7 40 -8 41
-51 1 -17 5 -36 9 -44 5 -7 3 -18 -4 -24 -9 -9 -15 -7 -26 7 -8 11 -14 15 -14
9 0 -5 8 -17 19 -27 17 -16 19 -15 35 8 9 14 16 30 16 36 0 5 5 10 10 10 6 0
10 5 10 10 0 18 -19 10 -25 -11 -4 -11 -9 -18 -13 -15 -3 4 3 19 14 34 30 41
39 56 27 49 -5 -4 -19 3 -31 13 -12 11 -22 19 -24 18 -2 0 -18 -3 -35 -5z"/>
<path d="M2654 12962 c2 -4 1 -14 -5 -22 -6 -10 -9 -11 -9 -2 0 6 -7 12 -15
12 -8 0 -15 -5 -15 -11 0 -5 4 -8 9 -4 5 3 12 1 16 -4 7 -12 -32 -34 -45 -26
-5 3 -16 -7 -24 -22 -12 -24 -12 -33 -1 -52 12 -24 13 -23 11 15 -1 30 3 39
18 42 10 2 23 -2 30 -9 8 -9 8 -10 -1 -5 -16 8 -46 -23 -39 -41 3 -8 6 -20 6
-26 0 -7 12 6 25 28 14 22 23 46 20 52 -2 7 7 26 20 42 21 24 23 30 9 35 -8 3
-13 2 -10 -2z"/>
<path d="M3052 12880 c0 -14 2 -19 5 -12 2 6 2 18 0 25 -3 6 -5 1 -5 -13z"/>
<path d="M3062 12820 c0 -19 2 -27 5 -17 2 9 2 25 0 35 -3 9 -5 1 -5 -18z"/>
<path d="M2660 12831 c0 -7 -4 -10 -8 -7 -4 2 -13 -4 -20 -15 -7 -11 -8 -19
-2 -19 5 0 10 -5 10 -11 0 -5 -4 -8 -9 -5 -14 9 -22 -36 -9 -52 6 -7 7 -12 2
-11 -21 4 -28 -2 -14 -11 12 -8 11 -12 -8 -30 -12 -11 -22 -28 -22 -36 0 -8
-4 -13 -9 -10 -18 12 -17 -41 1 -64 10 -13 17 -29 14 -36 -3 -8 0 -11 10 -7
11 4 14 -5 14 -38 0 -24 5 -51 11 -59 8 -12 10 -8 7 17 -3 18 -1 30 3 27 13
-8 18 28 21 173 2 77 6 139 11 136 4 -2 7 1 7 6 0 6 -7 11 -15 11 -8 0 -15 5
-15 11 0 5 5 7 10 4 11 -7 26 22 16 32 -3 4 -6 1 -6 -6z"/>
<path d="M2592 12774 c-7 -8 -8 -14 -3 -14 10 0 25 19 20 25 -2 1 -10 -3 -17
-11z"/>
<path d="M7150 12546 c0 -9 5 -16 10 -16 6 0 10 4 10 9 0 6 -4 13 -10 16 -5 3
-10 -1 -10 -9z"/>
<path d="M2701 12518 c0 -10 -5 -18 -11 -18 -5 0 -10 -8 -11 -17 0 -15 -2 -15
-9 2 -6 14 -9 16 -11 5 -1 -8 -3 -24 -5 -35 -27 -147 -29 -185 -9 -185 8 0 15
-7 15 -15 0 -8 5 -15 11 -15 5 0 8 4 5 9 -3 5 3 11 14 14 16 4 20 0 20 -20 0
-13 4 -22 8 -19 10 6 8 94 -3 120 -7 17 10 40 25 31 3 -2 11 8 17 22 10 20 10
23 -2 13 -11 -9 -18 -4 -34 28 -20 40 -20 40 -1 35 16 -4 19 -2 14 11 -3 9
-10 16 -14 16 -5 0 -11 8 -13 18 -4 16 -5 16 -6 0z m3 -177 c4 -5 0 -12 -6
-14 -7 -3 -4 -6 7 -6 16 -1 17 -3 6 -10 -17 -11 -41 8 -34 26 6 15 19 17 27 4z
m6 -61 c-8 -5 -22 -10 -30 -10 -13 0 -13 1 0 10 8 5 22 10 30 10 13 0 13 -1 0
-10z"/>
<path d="M7695 12482 c-16 -12 -17 -42 -1 -42 8 0 30 -8 48 -19 18 -10 47 -21
64 -24 28 -5 32 -3 37 21 5 28 -14 51 -45 52 -22 0 -29 -12 -17 -30 7 -13 9
-12 9 3 0 23 17 22 30 -3 8 -16 8 -20 -4 -20 -8 0 -21 -3 -30 -6 -10 -4 -16
-1 -16 8 0 20 -32 48 -54 48 -9 0 -14 5 -11 10 7 12 4 13 -10 2z"/>
<path d="M7868 12398 c3 -24 15 -41 43 -63 22 -16 45 -36 52 -43 54 -60 67
-77 67 -88 0 -8 7 -14 15 -14 10 0 15 -10 15 -32 0 -50 10 -77 25 -71 8 2 11
11 8 19 -3 8 0 14 6 14 16 0 14 -25 -3 -40 -10 -7 -12 -18 -7 -32 9 -25 41
-33 41 -12 0 9 5 12 11 8 6 -3 4 4 -4 17 -21 34 -33 94 -17 84 9 -5 11 -4 6 4
-4 6 -12 9 -17 6 -5 -4 -9 1 -9 10 0 9 -4 13 -10 10 -16 -10 -12 2 8 21 16 17
16 18 0 11 -12 -4 -18 -2 -18 8 0 8 -5 15 -11 15 -6 0 -8 -7 -5 -16 3 -9 2
-12 -5 -9 -5 4 -9 14 -7 23 1 10 -1 23 -6 30 -4 7 -2 20 6 29 12 15 11 15 -9
4 -20 -10 -24 -8 -40 16 -13 19 -14 28 -5 31 6 2 12 10 12 19 0 12 -2 12 -16
-1 -11 -12 -20 -13 -34 -6 -14 8 -19 6 -23 -8 -2 -9 -4 -1 -4 18 0 19 4 38 10
41 5 4 5 9 -2 13 -6 4 -11 2 -11 -4 0 -7 -8 -9 -21 -5 -18 6 -20 4 -15 -17 3
-13 -1 -9 -9 10 -8 17 -16 32 -18 32 -2 0 -1 -15 1 -32z m216 -263 c-4 -8 -8
-15 -10 -15 -2 0 -4 7 -4 15 0 8 4 15 10 15 5 0 7 -7 4 -15z m36 -80 c0 -8 -4
-15 -10 -15 -5 0 -7 7 -4 15 4 8 8 15 10 15 2 0 4 -7 4 -15z"/>
<path d="M7429 12273 c-1 -5 -2 -15 -3 -23 0 -8 -7 -15 -13 -15 -7 0 -20 -11
-30 -25 -16 -23 -16 -24 0 -11 14 11 17 11 17 0 1 -9 4 -8 11 4 6 9 15 15 20
11 6 -3 9 9 7 30 -2 33 -6 47 -9 29z"/>
<path d="M2660 12190 c0 -16 4 -30 9 -30 4 0 8 13 7 30 -1 39 -16 39 -16 0z"/>
<path d="M2656 12064 c-11 -29 -7 -54 8 -48 18 7 27 64 10 64 -6 0 -15 -7 -18
-16z"/>
<path d="M2611 11988 c0 -31 2 -59 7 -61 4 -3 6 16 4 41 -5 73 -10 82 -11 20z"/>
<path d="M2876 11939 c-15 -22 -26 -43 -22 -46 3 -3 8 1 12 10 7 20 34 11 35
-12 0 -9 6 -1 13 17 6 18 15 30 18 26 4 -4 2 5 -5 20 -7 14 -14 26 -17 26 -3
0 -18 -19 -34 -41z"/>
<path d="M2601 11884 c0 -11 3 -14 6 -6 3 7 2 16 -1 19 -3 4 -6 -2 -5 -13z"/>
<path d="M2781 11853 c-36 -32 -39 -43 -10 -36 21 6 56 49 47 59 -3 2 -19 -8
-37 -23z"/>
<path d="M2663 11846 c1 -14 5 -26 9 -26 4 0 5 -7 2 -15 -4 -8 -2 -15 4 -15
13 0 9 57 -5 71 -8 8 -11 4 -10 -15z"/>
<path d="M7341 11754 c0 -11 3 -14 6 -6 3 7 2 16 -1 19 -3 4 -6 -2 -5 -13z"/>
<path d="M7360 11760 c0 -5 5 -10 11 -10 5 0 7 5 4 10 -3 6 -8 10 -11 10 -2 0
-4 -4 -4 -10z"/>
<path d="M2815 11740 c-7 -12 2 -12 30 0 19 8 19 9 -2 9 -12 1 -25 -3 -28 -9z"/>
<path d="M2581 11694 c0 -11 3 -14 6 -6 3 7 2 16 -1 19 -3 4 -6 -2 -5 -13z"/>
<path d="M7711 11671 c-18 -12 -19 -68 -1 -84 9 -9 11 -9 6 0 -3 6 -1 15 5 19
7 4 10 3 7 -2 -3 -5 -2 -18 3 -29 6 -15 8 -10 8 22 1 23 -3 44 -9 48 -5 3 -7
12 -3 20 6 17 3 18 -16 6z m9 -41 c0 -5 -4 -10 -10 -10 -5 0 -10 5 -10 10 0 6
5 10 10 10 6 0 10 -4 10 -10z"/>
<path d="M7305 11599 c-4 -6 -5 -12 -2 -15 2 -3 7 2 10 11 7 17 1 20 -8 4z"/>
<path d="M7845 11570 c-13 -6 -15 -9 -5 -9 8 -1 21 -10 28 -22 8 -12 9 -18 3
-14 -6 3 -19 8 -30 10 -15 3 -18 -1 -13 -18 5 -19 7 -19 10 -4 2 12 8 15 15 9
7 -5 26 -12 42 -16 23 -6 27 -5 18 5 -9 9 -8 18 5 38 l16 26 -22 -19 c-18 -16
-25 -17 -35 -7 -9 10 -8 11 8 5 18 -7 18 -6 6 9 -15 19 -17 19 -46 7z"/>
<path d="M8067 11564 c-3 -4 1 -13 9 -21 8 -9 12 -18 9 -21 -3 -4 -10 0 -15 8
-8 12 -10 9 -10 -11 0 -15 7 -32 16 -39 12 -11 18 -10 32 4 14 13 14 19 4 34
-7 9 -15 25 -18 35 -7 18 -16 22 -27 11z"/>
<path d="M8100 11555 c0 -8 4 -15 10 -15 5 0 7 7 4 15 -4 8 -8 15 -10 15 -2 0
-4 -7 -4 -15z"/>
<path d="M3420 11538 c0 -4 4 -8 9 -8 6 0 12 4 15 8 3 5 -1 9 -9 9 -8 0 -15
-4 -15 -9z"/>
<path d="M7730 11540 c-1 -8 -2 -21 -1 -27 1 -7 -3 -13 -8 -13 -6 0 -15 -9
-22 -21 -10 -19 -9 -20 11 -14 19 6 20 4 12 -12 -9 -16 -6 -21 19 -32 15 -7
33 -10 39 -6 13 8 13 35 -1 35 -6 0 -9 7 -5 15 3 8 0 14 -6 12 -6 -1 -16 16
-23 38 -7 22 -14 33 -15 25z"/>
<path d="M2996 11517 c3 -10 9 -15 12 -12 3 3 0 11 -7 18 -10 9 -11 8 -5 -6z"/>
<path d="M8136 11493 c-6 -14 -5 -15 5 -6 7 7 10 15 7 18 -3 3 -9 -2 -12 -12z"/>
<path d="M7330 11466 c0 -2 8 -10 18 -17 15 -13 16 -12 3 4 -13 16 -21 21 -21
13z"/>
<path d="M8060 11460 c0 -5 5 -10 11 -10 5 0 7 5 4 10 -3 6 -8 10 -11 10 -2 0
-4 -4 -4 -10z"/>
<path d="M2650 11455 c0 -5 5 -17 10 -25 5 -8 10 -10 10 -5 0 6 -5 17 -10 25
-5 8 -10 11 -10 5z"/>
<path d="M2670 11396 c0 -8 4 -17 8 -20 10 -6 9 -36 -2 -54 -4 -7 -4 -12 1
-11 20 3 23 -2 9 -16 -16 -17 -11 -45 8 -45 7 0 21 7 32 15 16 13 16 14 2 9
-20 -7 -24 6 -7 23 8 8 4 25 -11 62 -22 49 -40 66 -40 37z"/>
<path d="M7770 11356 c0 -2 7 -7 16 -10 8 -3 12 -2 9 4 -6 10 -25 14 -25 6z"/>
<path d="M7730 11326 c0 -8 -6 -17 -12 -19 -8 -3 -6 -6 5 -6 11 -1 17 6 17 19
0 11 -2 20 -5 20 -3 0 -5 -6 -5 -14z"/>
<path d="M7739 11281 c11 -7 10 -11 -5 -20 -11 -6 -15 -11 -11 -11 5 0 20 9
34 20 l26 20 -29 0 c-20 0 -25 -3 -15 -9z"/>
<path d="M8046 11265 c-9 -26 -7 -32 5 -12 6 10 9 21 6 23 -2 3 -7 -2 -11 -11z"/>
<path d="M7680 11241 c0 -10 19 -25 25 -20 1 2 -3 10 -11 17 -8 7 -14 8 -14 3z"/>
<path d="M2688 11233 c7 -3 16 -2 19 1 4 3 -2 6 -13 5 -11 0 -14 -3 -6 -6z"/>
<path d="M7733 11212 c-9 -6 -8 -11 5 -19 15 -9 18 -7 19 8 2 20 -5 23 -24 11z"/>
<path d="M8011 11169 c-6 -18 -9 -35 -6 -37 3 -3 5 0 5 7 0 7 5 9 12 5 7 -5 8
-3 3 6 -4 7 -3 15 3 19 6 4 7 12 3 20 -6 9 -12 3 -20 -20z"/>
<path d="M7916 11165 c-9 -26 -7 -32 5 -12 6 10 9 21 6 23 -2 3 -7 -2 -11 -11z"/>
<path d="M7940 11141 c0 -6 4 -13 10 -16 6 -3 7 1 4 9 -7 18 -14 21 -14 7z"/>
<path d="M7742 11112 c-10 -7 -8 -12 7 -26 17 -15 19 -16 25 -1 11 29 -6 43
-32 27z m23 -12 c3 -5 1 -10 -4 -10 -6 0 -11 5 -11 10 0 6 2 10 4 10 3 0 8 -4
11 -10z"/>
<path d="M7967 11054 c-26 -65 -26 -65 -4 -51 13 9 21 23 19 35 -2 11 2 23 8
27 6 3 8 11 5 16 -4 5 3 9 15 9 19 0 20 2 6 15 -8 8 -16 15 -19 15 -2 0 -15
-30 -30 -66z"/>
<path d="M2832 11061 c-11 -7 -11 -9 2 -14 10 -4 16 -1 16 8 0 17 -1 17 -18 6z"/>
<path d="M7706 10785 c-11 -8 -15 -15 -9 -15 6 0 16 7 23 15 16 19 11 19 -14
0z"/>
<path d="M7744 9725 c21 -16 32 -13 21 4 -3 6 -14 11 -23 11 -15 -1 -15 -2 2
-15z"/>
<path d="M7921 6044 c0 -11 3 -14 6 -6 3 7 2 16 -1 19 -3 4 -6 -2 -5 -13z"/>
<path d="M7806 5563 c-6 -14 -5 -15 5 -6 7 7 10 15 7 18 -3 3 -9 -2 -12 -12z"/>
<path d="M7680 5380 c13 -9 13 -10 0 -10 -13 0 -13 -1 0 -10 9 -6 17 -5 22 3
9 15 1 27 -20 27 -15 0 -15 -2 -2 -10z"/>
<path d="M4000 2955 c-37 -16 -92 -27 -170 -34 -151 -14 -773 -14 -823 0 -51
14 -56 6 -19 -29 49 -46 90 -54 304 -59 299 -8 533 27 695 102 40 19 73 36 73
39 0 3 -1 5 -2 5 -2 -1 -28 -12 -58 -24z"/>
</g>
</svg>
